G04 #@! TF.GenerationSoftware,KiCad,Pcbnew,5.1.10-88a1d61d58~88~ubuntu20.04.1*
G04 #@! TF.CreationDate,2021-05-29T16:43:34+02:00*
G04 #@! TF.ProjectId,wt32-eth01-programmer,77743332-2d65-4746-9830-312d70726f67,rev?*
G04 #@! TF.SameCoordinates,Original*
G04 #@! TF.FileFunction,Copper,L2,Bot*
G04 #@! TF.FilePolarity,Positive*
%FSLAX46Y46*%
G04 Gerber Fmt 4.6, Leading zero omitted, Abs format (unit mm)*
G04 Created by KiCad (PCBNEW 5.1.10-88a1d61d58~88~ubuntu20.04.1) date 2021-05-29 16:43:34*
%MOMM*%
%LPD*%
G01*
G04 APERTURE LIST*
G04 #@! TA.AperFunction,ComponentPad*
%ADD10O,3.048000X1.524000*%
G04 #@! TD*
G04 #@! TA.AperFunction,ComponentPad*
%ADD11O,1.000000X2.100000*%
G04 #@! TD*
G04 #@! TA.AperFunction,ComponentPad*
%ADD12O,1.000000X1.600000*%
G04 #@! TD*
G04 #@! TA.AperFunction,ViaPad*
%ADD13C,0.800000*%
G04 #@! TD*
G04 #@! TA.AperFunction,Conductor*
%ADD14C,0.500000*%
G04 #@! TD*
G04 #@! TA.AperFunction,Conductor*
%ADD15C,0.250000*%
G04 #@! TD*
G04 APERTURE END LIST*
D10*
X78105000Y-104140000D03*
X78105000Y-73660000D03*
X78105000Y-76200000D03*
X78105000Y-78740000D03*
X78105000Y-81280000D03*
X78105000Y-83820000D03*
X78105000Y-86360000D03*
X78105000Y-88900000D03*
X78105000Y-91440000D03*
X78105000Y-93980000D03*
X78105000Y-96520000D03*
X78105000Y-99060000D03*
X78105000Y-101600000D03*
X55245000Y-104140000D03*
X55245000Y-101600000D03*
X55245000Y-99060000D03*
X55245000Y-96520000D03*
X55245000Y-93980000D03*
X55245000Y-91440000D03*
X55245000Y-88900000D03*
X55245000Y-86360000D03*
X55245000Y-83820000D03*
X55245000Y-81280000D03*
X55245000Y-78740000D03*
X55245000Y-76200000D03*
X55245000Y-73660000D03*
D11*
X61720000Y-50755000D03*
X70360000Y-50755000D03*
D12*
X70360000Y-46575000D03*
X61720000Y-46575000D03*
D13*
X57404000Y-60960000D03*
X56388000Y-55880000D03*
X60452000Y-65532000D03*
X60960000Y-55372000D03*
X66548000Y-53340000D03*
X72644000Y-58420000D03*
X73369000Y-60960000D03*
X65532000Y-50292000D03*
X70612000Y-76200000D03*
X66575239Y-50309933D03*
X70612000Y-77516990D03*
X59944000Y-78740000D03*
X65024000Y-65024000D03*
X64008000Y-79465000D03*
X58928000Y-76708000D03*
X61976000Y-78740000D03*
D14*
X57404000Y-60960000D02*
X56388000Y-59944000D01*
X56388000Y-55880000D02*
X56388000Y-59944000D01*
X57269000Y-99060000D02*
X55245000Y-99060000D01*
X57977999Y-98351001D02*
X57269000Y-99060000D01*
X57977999Y-68006001D02*
X57977999Y-98351001D01*
X60452000Y-65532000D02*
X57977999Y-68006001D01*
X62992000Y-53340000D02*
X66548000Y-53340000D01*
X60960000Y-55372000D02*
X62992000Y-53340000D01*
D15*
X72644000Y-63500000D02*
X77724000Y-68580000D01*
X72644000Y-58420000D02*
X72644000Y-63500000D01*
X77724000Y-73279000D02*
X78105000Y-73660000D01*
X77724000Y-68580000D02*
X77724000Y-73279000D01*
X79954010Y-74350990D02*
X78105000Y-76200000D01*
X79954010Y-67545010D02*
X79954010Y-74350990D01*
X73369000Y-60960000D02*
X79954010Y-67545010D01*
X70612000Y-55372000D02*
X70612000Y-76200000D01*
X65532000Y-50292000D02*
X70612000Y-55372000D01*
X71337001Y-76791989D02*
X70612000Y-77516990D01*
X71337001Y-55071695D02*
X71337001Y-76791989D01*
X66575239Y-50309933D02*
X71337001Y-55071695D01*
X59944000Y-78740000D02*
X65024000Y-73660000D01*
X65024000Y-73660000D02*
X65024000Y-65024000D01*
X58928000Y-78797002D02*
X58928000Y-76708000D01*
X59595998Y-79465000D02*
X58928000Y-78797002D01*
X64008000Y-79465000D02*
X59595998Y-79465000D01*
X61976000Y-78740000D02*
X78105000Y-78740000D01*
M02*
