%TF.GenerationSoftware,KiCad,Pcbnew,5.1.10-88a1d61d58~88~ubuntu20.04.1*%
%TF.CreationDate,2021-05-28T23:30:33+02:00*%
%TF.ProjectId,wt32-eth01-programmer,77743332-2d65-4746-9830-312d70726f67,rev?*%
%TF.SameCoordinates,Original*%
%TF.FileFunction,Copper,L2,Bot*%
%TF.FilePolarity,Positive*%
%FSLAX46Y46*%
G04 Gerber Fmt 4.6, Leading zero omitted, Abs format (unit mm)*
G04 Created by KiCad (PCBNEW 5.1.10-88a1d61d58~88~ubuntu20.04.1) date 2021-05-28 23:30:33*
%MOMM*%
%LPD*%
G01*
G04 APERTURE LIST*
%TA.AperFunction,Profile*%
%ADD10C,0.050000*%
%TD*%
%TA.AperFunction,ComponentPad*%
%ADD11O,3.048000X1.524000*%
%TD*%
%TA.AperFunction,ComponentPad*%
%ADD12O,1.000000X2.100000*%
%TD*%
%TA.AperFunction,ComponentPad*%
%ADD13O,1.000000X1.600000*%
%TD*%
%TA.AperFunction,ViaPad*%
%ADD14C,0.800000*%
%TD*%
%TA.AperFunction,Conductor*%
%ADD15C,0.500000*%
%TD*%
%TA.AperFunction,Conductor*%
%ADD16C,0.250000*%
%TD*%
%ADD17C,0.350000*%
%ADD18O,0.600000X1.700000*%
%ADD19O,0.600000X1.200000*%
G04 APERTURE END LIST*
D10*
X50800000Y-45720000D02*
G75*
G02*
X52070000Y-44450000I1270000J0D01*
G01*
X52070000Y-120650000D02*
G75*
G02*
X50800000Y-119380000I0J1270000D01*
G01*
X82550000Y-119380000D02*
G75*
G02*
X81280000Y-120650000I-1270000J0D01*
G01*
X81280000Y-44450000D02*
G75*
G02*
X82550000Y-45720000I0J-1270000D01*
G01*
X50800000Y-45720000D02*
X50800000Y-119380000D01*
X81280000Y-44450000D02*
X52070000Y-44450000D01*
X82550000Y-119380000D02*
X82550000Y-45720000D01*
X52070000Y-120650000D02*
X81280000Y-120650000D01*
D11*
%TO.P,U3,14*%
%TO.N,Net-(U3-Pad14)*%
X78105000Y-104140000D03*
%TO.P,U3,26*%
%TO.N,TX*%
X78105000Y-73660000D03*
%TO.P,U3,25*%
%TO.N,RX*%
X78105000Y-76200000D03*
%TO.P,U3,24*%
%TO.N,I00*%
X78105000Y-78740000D03*
%TO.P,U3,23*%
%TO.N,Net-(U3-Pad23)*%
X78105000Y-81280000D03*
%TO.P,U3,22*%
%TO.N,Net-(U3-Pad22)*%
X78105000Y-83820000D03*
%TO.P,U3,21*%
%TO.N,Net-(U3-Pad21)*%
X78105000Y-86360000D03*
%TO.P,U3,20*%
%TO.N,Net-(U3-Pad20)*%
X78105000Y-88900000D03*
%TO.P,U3,19*%
%TO.N,Net-(U3-Pad19)*%
X78105000Y-91440000D03*
%TO.P,U3,18*%
%TO.N,Net-(U3-Pad18)*%
X78105000Y-93980000D03*
%TO.P,U3,17*%
%TO.N,Net-(U3-Pad17)*%
X78105000Y-96520000D03*
%TO.P,U3,16*%
%TO.N,Net-(U3-Pad16)*%
X78105000Y-99060000D03*
%TO.P,U3,15*%
%TO.N,IO2*%
X78105000Y-101600000D03*
%TO.P,U3,13*%
%TO.N,Net-(U3-Pad13)*%
X55245000Y-104140000D03*
%TO.P,U3,12*%
%TO.N,Net-(U3-Pad12)*%
X55245000Y-101600000D03*
%TO.P,U3,11*%
%TO.N,GND*%
X55245000Y-99060000D03*
%TO.P,U3,10*%
%TO.N,+3V3*%
X55245000Y-96520000D03*
%TO.P,U3,9*%
%TO.N,Net-(U3-Pad9)*%
X55245000Y-93980000D03*
%TO.P,U3,8*%
%TO.N,Net-(U3-Pad8)*%
X55245000Y-91440000D03*
%TO.P,U3,7*%
%TO.N,Net-(U3-Pad7)*%
X55245000Y-88900000D03*
%TO.P,U3,6*%
%TO.N,Net-(U3-Pad6)*%
X55245000Y-86360000D03*
%TO.P,U3,5*%
%TO.N,Net-(U3-Pad5)*%
X55245000Y-83820000D03*
%TO.P,U3,4*%
%TO.N,RST*%
X55245000Y-81280000D03*
%TO.P,U3,3*%
%TO.N,Net-(U3-Pad3)*%
X55245000Y-78740000D03*
%TO.P,U3,2*%
%TO.N,Net-(U3-Pad2)*%
X55245000Y-76200000D03*
%TO.P,U3,1*%
%TO.N,CHPD*%
X55245000Y-73660000D03*
%TD*%
D12*
%TO.P,J1,S1*%
%TO.N,Net-(J1-PadS1)*%
X61720000Y-50755000D03*
X70360000Y-50755000D03*
D13*
X70360000Y-46575000D03*
X61720000Y-46575000D03*
%TD*%
D14*
%TO.N,GND*%
X57404000Y-60960000D03*
X56388000Y-55880000D03*
X60452000Y-65532000D03*
%TO.N,+5V*%
X60960000Y-55372000D03*
X66548000Y-53340000D03*
%TO.N,TX*%
X72644000Y-58420000D03*
%TO.N,RX*%
X73369000Y-60960000D03*
%TO.N,D-*%
X65532000Y-50292000D03*
X70612000Y-76200000D03*
%TO.N,D+*%
X66575239Y-50309933D03*
X70612000Y-77516990D03*
%TO.N,RST*%
X59944000Y-78740000D03*
X65024000Y-65024000D03*
%TO.N,DTR*%
X64008000Y-79465000D03*
X58928000Y-76708000D03*
%TO.N,I00*%
X61976000Y-78740000D03*
%TD*%
D15*
%TO.N,GND*%
X57404000Y-60960000D02*
X56388000Y-59944000D01*
X56388000Y-55880000D02*
X56388000Y-59944000D01*
X57269000Y-99060000D02*
X55245000Y-99060000D01*
X57977999Y-98351001D02*
X57269000Y-99060000D01*
X57977999Y-68006001D02*
X57977999Y-98351001D01*
X60452000Y-65532000D02*
X57977999Y-68006001D01*
%TO.N,+5V*%
X62992000Y-53340000D02*
X66548000Y-53340000D01*
X60960000Y-55372000D02*
X62992000Y-53340000D01*
D16*
%TO.N,TX*%
X72644000Y-63500000D02*
X77724000Y-68580000D01*
X72644000Y-58420000D02*
X72644000Y-63500000D01*
X77724000Y-73279000D02*
X78105000Y-73660000D01*
X77724000Y-68580000D02*
X77724000Y-73279000D01*
%TO.N,RX*%
X79954010Y-74350990D02*
X78105000Y-76200000D01*
X79954010Y-67545010D02*
X79954010Y-74350990D01*
X73369000Y-60960000D02*
X79954010Y-67545010D01*
%TO.N,D-*%
X70612000Y-55372000D02*
X70612000Y-76200000D01*
X65532000Y-50292000D02*
X70612000Y-55372000D01*
%TO.N,D+*%
X71337001Y-76791989D02*
X70612000Y-77516990D01*
X71337001Y-55071695D02*
X71337001Y-76791989D01*
X66575239Y-50309933D02*
X71337001Y-55071695D01*
%TO.N,RST*%
X59944000Y-78740000D02*
X65024000Y-73660000D01*
X65024000Y-73660000D02*
X65024000Y-65024000D01*
%TO.N,DTR*%
X58928000Y-78797002D02*
X58928000Y-76708000D01*
X59595998Y-79465000D02*
X58928000Y-78797002D01*
X64008000Y-79465000D02*
X59595998Y-79465000D01*
%TO.N,I00*%
X61976000Y-78740000D02*
X78105000Y-78740000D01*
%TD*%
D17*
X57404000Y-60960000D03*
X56388000Y-55880000D03*
X60452000Y-65532000D03*
X60960000Y-55372000D03*
X66548000Y-53340000D03*
X72644000Y-58420000D03*
X73369000Y-60960000D03*
X65532000Y-50292000D03*
X70612000Y-76200000D03*
X66575239Y-50309933D03*
X70612000Y-77516990D03*
X59944000Y-78740000D03*
X65024000Y-65024000D03*
X64008000Y-79465000D03*
X58928000Y-76708000D03*
X61976000Y-78740000D03*
X53340000Y-46990000D03*
X80010000Y-46990000D03*
X78105000Y-104140000D03*
X78105000Y-73660000D03*
X78105000Y-76200000D03*
X78105000Y-78740000D03*
X78105000Y-81280000D03*
X78105000Y-83820000D03*
X78105000Y-86360000D03*
X78105000Y-88900000D03*
X78105000Y-91440000D03*
X78105000Y-93980000D03*
X78105000Y-96520000D03*
X78105000Y-99060000D03*
X78105000Y-101600000D03*
X55245000Y-104140000D03*
X55245000Y-101600000D03*
X55245000Y-99060000D03*
X55245000Y-96520000D03*
X55245000Y-93980000D03*
X55245000Y-91440000D03*
X55245000Y-88900000D03*
X55245000Y-86360000D03*
X55245000Y-83820000D03*
X55245000Y-81280000D03*
X55245000Y-78740000D03*
X55245000Y-76200000D03*
X55245000Y-73660000D03*
X78105000Y-118745000D03*
X55245000Y-118745000D03*
D18*
X61720000Y-50755000D03*
X70360000Y-50755000D03*
D17*
X68930000Y-50225000D03*
D19*
X70360000Y-46575000D03*
D17*
X63150000Y-50225000D03*
D19*
X61720000Y-46575000D03*
M02*
