%TF.GenerationSoftware,KiCad,Pcbnew,5.1.10-88a1d61d58~88~ubuntu20.04.1*%
%TF.CreationDate,2021-05-28T23:30:33+02:00*%
%TF.ProjectId,wt32-eth01-programmer,77743332-2d65-4746-9830-312d70726f67,rev?*%
%TF.SameCoordinates,Original*%
%TF.FileFunction,Copper,L1,Top*%
%TF.FilePolarity,Positive*%
%FSLAX46Y46*%
G04 Gerber Fmt 4.6, Leading zero omitted, Abs format (unit mm)*
G04 Created by KiCad (PCBNEW 5.1.10-88a1d61d58~88~ubuntu20.04.1) date 2021-05-28 23:30:33*
%MOMM*%
%LPD*%
G01*
G04 APERTURE LIST*
%TA.AperFunction,Profile*%
%ADD10C,0.050000*%
%TD*%
%TA.AperFunction,SMDPad,CuDef*%
%ADD11R,1.300000X1.550000*%
%TD*%
%TA.AperFunction,SMDPad,CuDef*%
%ADD12R,1.200000X1.400000*%
%TD*%
%TA.AperFunction,ComponentPad*%
%ADD13O,3.048000X1.524000*%
%TD*%
%TA.AperFunction,ComponentPad*%
%ADD14C,2.032000*%
%TD*%
%TA.AperFunction,SMDPad,CuDef*%
%ADD15R,2.000000X1.500000*%
%TD*%
%TA.AperFunction,SMDPad,CuDef*%
%ADD16R,2.000000X3.800000*%
%TD*%
%TA.AperFunction,SMDPad,CuDef*%
%ADD17R,0.800000X0.900000*%
%TD*%
%TA.AperFunction,SMDPad,CuDef*%
%ADD18R,0.900000X0.800000*%
%TD*%
%TA.AperFunction,SMDPad,CuDef*%
%ADD19R,0.600000X1.450000*%
%TD*%
%TA.AperFunction,SMDPad,CuDef*%
%ADD20R,0.300000X1.450000*%
%TD*%
%TA.AperFunction,ComponentPad*%
%ADD21O,1.000000X2.100000*%
%TD*%
%TA.AperFunction,ComponentPad*%
%ADD22O,1.000000X1.600000*%
%TD*%
%TA.AperFunction,ViaPad*%
%ADD23C,0.800000*%
%TD*%
%TA.AperFunction,Conductor*%
%ADD24C,0.500000*%
%TD*%
%TA.AperFunction,Conductor*%
%ADD25C,0.250000*%
%TD*%
%ADD26C,0.350000*%
%ADD27O,0.600000X1.700000*%
%ADD28O,0.600000X1.200000*%
G04 APERTURE END LIST*
D10*
X50800000Y-45720000D02*
G75*
G02*
X52070000Y-44450000I1270000J0D01*
G01*
X52070000Y-120650000D02*
G75*
G02*
X50800000Y-119380000I0J1270000D01*
G01*
X82550000Y-119380000D02*
G75*
G02*
X81280000Y-120650000I-1270000J0D01*
G01*
X81280000Y-44450000D02*
G75*
G02*
X82550000Y-45720000I0J-1270000D01*
G01*
X50800000Y-45720000D02*
X50800000Y-119380000D01*
X81280000Y-44450000D02*
X52070000Y-44450000D01*
X82550000Y-119380000D02*
X82550000Y-45720000D01*
X52070000Y-120650000D02*
X81280000Y-120650000D01*
D11*
%TO.P,SW1,2*%
%TO.N,RST*%
X75220000Y-60490000D03*
%TO.P,SW1,1*%
%TO.N,GND*%
X79720000Y-60490000D03*
X79720000Y-52540000D03*
%TO.P,SW1,2*%
%TO.N,RST*%
X75220000Y-52540000D03*
%TD*%
D12*
%TO.P,Y1,4*%
%TO.N,N/C*%
X71452000Y-71120000D03*
%TO.P,Y1,3*%
%TO.N,Net-(U2-Pad8)*%
X71452000Y-68920000D03*
%TO.P,Y1,2*%
%TO.N,GND*%
X73152000Y-68920000D03*
%TO.P,Y1,1*%
%TO.N,Net-(U2-Pad7)*%
X73152000Y-71120000D03*
%TD*%
D13*
%TO.P,U3,14*%
%TO.N,Net-(U3-Pad14)*%
X78105000Y-104140000D03*
%TO.P,U3,26*%
%TO.N,TX*%
X78105000Y-73660000D03*
%TO.P,U3,25*%
%TO.N,RX*%
X78105000Y-76200000D03*
%TO.P,U3,24*%
%TO.N,I00*%
X78105000Y-78740000D03*
%TO.P,U3,23*%
%TO.N,Net-(U3-Pad23)*%
X78105000Y-81280000D03*
%TO.P,U3,22*%
%TO.N,Net-(U3-Pad22)*%
X78105000Y-83820000D03*
%TO.P,U3,21*%
%TO.N,Net-(U3-Pad21)*%
X78105000Y-86360000D03*
%TO.P,U3,20*%
%TO.N,Net-(U3-Pad20)*%
X78105000Y-88900000D03*
%TO.P,U3,19*%
%TO.N,Net-(U3-Pad19)*%
X78105000Y-91440000D03*
%TO.P,U3,18*%
%TO.N,Net-(U3-Pad18)*%
X78105000Y-93980000D03*
%TO.P,U3,17*%
%TO.N,Net-(U3-Pad17)*%
X78105000Y-96520000D03*
%TO.P,U3,16*%
%TO.N,Net-(U3-Pad16)*%
X78105000Y-99060000D03*
%TO.P,U3,15*%
%TO.N,IO2*%
X78105000Y-101600000D03*
%TO.P,U3,13*%
%TO.N,Net-(U3-Pad13)*%
X55245000Y-104140000D03*
%TO.P,U3,12*%
%TO.N,Net-(U3-Pad12)*%
X55245000Y-101600000D03*
%TO.P,U3,11*%
%TO.N,GND*%
X55245000Y-99060000D03*
%TO.P,U3,10*%
%TO.N,+3V3*%
X55245000Y-96520000D03*
%TO.P,U3,9*%
%TO.N,Net-(U3-Pad9)*%
X55245000Y-93980000D03*
%TO.P,U3,8*%
%TO.N,Net-(U3-Pad8)*%
X55245000Y-91440000D03*
%TO.P,U3,7*%
%TO.N,Net-(U3-Pad7)*%
X55245000Y-88900000D03*
%TO.P,U3,6*%
%TO.N,Net-(U3-Pad6)*%
X55245000Y-86360000D03*
%TO.P,U3,5*%
%TO.N,Net-(U3-Pad5)*%
X55245000Y-83820000D03*
%TO.P,U3,4*%
%TO.N,RST*%
X55245000Y-81280000D03*
%TO.P,U3,3*%
%TO.N,Net-(U3-Pad3)*%
X55245000Y-78740000D03*
%TO.P,U3,2*%
%TO.N,Net-(U3-Pad2)*%
X55245000Y-76200000D03*
%TO.P,U3,1*%
%TO.N,CHPD*%
X55245000Y-73660000D03*
D14*
%TO.P,U3,*%
%TO.N,*%
X78105000Y-118745000D03*
X55245000Y-118745000D03*
%TD*%
%TO.P,U2,16*%
%TO.N,+3V3*%
%TA.AperFunction,SMDPad,CuDef*%
G36*
G01*
X68604000Y-82527000D02*
X68604000Y-82827000D01*
G75*
G02*
X68454000Y-82977000I-150000J0D01*
G01*
X66804000Y-82977000D01*
G75*
G02*
X66654000Y-82827000I0J150000D01*
G01*
X66654000Y-82527000D01*
G75*
G02*
X66804000Y-82377000I150000J0D01*
G01*
X68454000Y-82377000D01*
G75*
G02*
X68604000Y-82527000I0J-150000D01*
G01*
G37*
%TD.AperFunction*%
%TO.P,U2,15*%
%TO.N,Net-(U2-Pad15)*%
%TA.AperFunction,SMDPad,CuDef*%
G36*
G01*
X68604000Y-81257000D02*
X68604000Y-81557000D01*
G75*
G02*
X68454000Y-81707000I-150000J0D01*
G01*
X66804000Y-81707000D01*
G75*
G02*
X66654000Y-81557000I0J150000D01*
G01*
X66654000Y-81257000D01*
G75*
G02*
X66804000Y-81107000I150000J0D01*
G01*
X68454000Y-81107000D01*
G75*
G02*
X68604000Y-81257000I0J-150000D01*
G01*
G37*
%TD.AperFunction*%
%TO.P,U2,14*%
%TO.N,RTS*%
%TA.AperFunction,SMDPad,CuDef*%
G36*
G01*
X68604000Y-79987000D02*
X68604000Y-80287000D01*
G75*
G02*
X68454000Y-80437000I-150000J0D01*
G01*
X66804000Y-80437000D01*
G75*
G02*
X66654000Y-80287000I0J150000D01*
G01*
X66654000Y-79987000D01*
G75*
G02*
X66804000Y-79837000I150000J0D01*
G01*
X68454000Y-79837000D01*
G75*
G02*
X68604000Y-79987000I0J-150000D01*
G01*
G37*
%TD.AperFunction*%
%TO.P,U2,13*%
%TO.N,DTR*%
%TA.AperFunction,SMDPad,CuDef*%
G36*
G01*
X68604000Y-78717000D02*
X68604000Y-79017000D01*
G75*
G02*
X68454000Y-79167000I-150000J0D01*
G01*
X66804000Y-79167000D01*
G75*
G02*
X66654000Y-79017000I0J150000D01*
G01*
X66654000Y-78717000D01*
G75*
G02*
X66804000Y-78567000I150000J0D01*
G01*
X68454000Y-78567000D01*
G75*
G02*
X68604000Y-78717000I0J-150000D01*
G01*
G37*
%TD.AperFunction*%
%TO.P,U2,12*%
%TO.N,Net-(U2-Pad12)*%
%TA.AperFunction,SMDPad,CuDef*%
G36*
G01*
X68604000Y-77447000D02*
X68604000Y-77747000D01*
G75*
G02*
X68454000Y-77897000I-150000J0D01*
G01*
X66804000Y-77897000D01*
G75*
G02*
X66654000Y-77747000I0J150000D01*
G01*
X66654000Y-77447000D01*
G75*
G02*
X66804000Y-77297000I150000J0D01*
G01*
X68454000Y-77297000D01*
G75*
G02*
X68604000Y-77447000I0J-150000D01*
G01*
G37*
%TD.AperFunction*%
%TO.P,U2,11*%
%TO.N,Net-(U2-Pad11)*%
%TA.AperFunction,SMDPad,CuDef*%
G36*
G01*
X68604000Y-76177000D02*
X68604000Y-76477000D01*
G75*
G02*
X68454000Y-76627000I-150000J0D01*
G01*
X66804000Y-76627000D01*
G75*
G02*
X66654000Y-76477000I0J150000D01*
G01*
X66654000Y-76177000D01*
G75*
G02*
X66804000Y-76027000I150000J0D01*
G01*
X68454000Y-76027000D01*
G75*
G02*
X68604000Y-76177000I0J-150000D01*
G01*
G37*
%TD.AperFunction*%
%TO.P,U2,10*%
%TO.N,Net-(U2-Pad10)*%
%TA.AperFunction,SMDPad,CuDef*%
G36*
G01*
X68604000Y-74907000D02*
X68604000Y-75207000D01*
G75*
G02*
X68454000Y-75357000I-150000J0D01*
G01*
X66804000Y-75357000D01*
G75*
G02*
X66654000Y-75207000I0J150000D01*
G01*
X66654000Y-74907000D01*
G75*
G02*
X66804000Y-74757000I150000J0D01*
G01*
X68454000Y-74757000D01*
G75*
G02*
X68604000Y-74907000I0J-150000D01*
G01*
G37*
%TD.AperFunction*%
%TO.P,U2,9*%
%TO.N,Net-(U2-Pad9)*%
%TA.AperFunction,SMDPad,CuDef*%
G36*
G01*
X68604000Y-73637000D02*
X68604000Y-73937000D01*
G75*
G02*
X68454000Y-74087000I-150000J0D01*
G01*
X66804000Y-74087000D01*
G75*
G02*
X66654000Y-73937000I0J150000D01*
G01*
X66654000Y-73637000D01*
G75*
G02*
X66804000Y-73487000I150000J0D01*
G01*
X68454000Y-73487000D01*
G75*
G02*
X68604000Y-73637000I0J-150000D01*
G01*
G37*
%TD.AperFunction*%
%TO.P,U2,8*%
%TO.N,Net-(U2-Pad8)*%
%TA.AperFunction,SMDPad,CuDef*%
G36*
G01*
X73554000Y-73637000D02*
X73554000Y-73937000D01*
G75*
G02*
X73404000Y-74087000I-150000J0D01*
G01*
X71754000Y-74087000D01*
G75*
G02*
X71604000Y-73937000I0J150000D01*
G01*
X71604000Y-73637000D01*
G75*
G02*
X71754000Y-73487000I150000J0D01*
G01*
X73404000Y-73487000D01*
G75*
G02*
X73554000Y-73637000I0J-150000D01*
G01*
G37*
%TD.AperFunction*%
%TO.P,U2,7*%
%TO.N,Net-(U2-Pad7)*%
%TA.AperFunction,SMDPad,CuDef*%
G36*
G01*
X73554000Y-74907000D02*
X73554000Y-75207000D01*
G75*
G02*
X73404000Y-75357000I-150000J0D01*
G01*
X71754000Y-75357000D01*
G75*
G02*
X71604000Y-75207000I0J150000D01*
G01*
X71604000Y-74907000D01*
G75*
G02*
X71754000Y-74757000I150000J0D01*
G01*
X73404000Y-74757000D01*
G75*
G02*
X73554000Y-74907000I0J-150000D01*
G01*
G37*
%TD.AperFunction*%
%TO.P,U2,6*%
%TO.N,D-*%
%TA.AperFunction,SMDPad,CuDef*%
G36*
G01*
X73554000Y-76177000D02*
X73554000Y-76477000D01*
G75*
G02*
X73404000Y-76627000I-150000J0D01*
G01*
X71754000Y-76627000D01*
G75*
G02*
X71604000Y-76477000I0J150000D01*
G01*
X71604000Y-76177000D01*
G75*
G02*
X71754000Y-76027000I150000J0D01*
G01*
X73404000Y-76027000D01*
G75*
G02*
X73554000Y-76177000I0J-150000D01*
G01*
G37*
%TD.AperFunction*%
%TO.P,U2,5*%
%TO.N,D+*%
%TA.AperFunction,SMDPad,CuDef*%
G36*
G01*
X73554000Y-77447000D02*
X73554000Y-77747000D01*
G75*
G02*
X73404000Y-77897000I-150000J0D01*
G01*
X71754000Y-77897000D01*
G75*
G02*
X71604000Y-77747000I0J150000D01*
G01*
X71604000Y-77447000D01*
G75*
G02*
X71754000Y-77297000I150000J0D01*
G01*
X73404000Y-77297000D01*
G75*
G02*
X73554000Y-77447000I0J-150000D01*
G01*
G37*
%TD.AperFunction*%
%TO.P,U2,4*%
%TO.N,+3V3*%
%TA.AperFunction,SMDPad,CuDef*%
G36*
G01*
X73554000Y-78717000D02*
X73554000Y-79017000D01*
G75*
G02*
X73404000Y-79167000I-150000J0D01*
G01*
X71754000Y-79167000D01*
G75*
G02*
X71604000Y-79017000I0J150000D01*
G01*
X71604000Y-78717000D01*
G75*
G02*
X71754000Y-78567000I150000J0D01*
G01*
X73404000Y-78567000D01*
G75*
G02*
X73554000Y-78717000I0J-150000D01*
G01*
G37*
%TD.AperFunction*%
%TO.P,U2,3*%
%TO.N,RX*%
%TA.AperFunction,SMDPad,CuDef*%
G36*
G01*
X73554000Y-79987000D02*
X73554000Y-80287000D01*
G75*
G02*
X73404000Y-80437000I-150000J0D01*
G01*
X71754000Y-80437000D01*
G75*
G02*
X71604000Y-80287000I0J150000D01*
G01*
X71604000Y-79987000D01*
G75*
G02*
X71754000Y-79837000I150000J0D01*
G01*
X73404000Y-79837000D01*
G75*
G02*
X73554000Y-79987000I0J-150000D01*
G01*
G37*
%TD.AperFunction*%
%TO.P,U2,2*%
%TO.N,TX*%
%TA.AperFunction,SMDPad,CuDef*%
G36*
G01*
X73554000Y-81257000D02*
X73554000Y-81557000D01*
G75*
G02*
X73404000Y-81707000I-150000J0D01*
G01*
X71754000Y-81707000D01*
G75*
G02*
X71604000Y-81557000I0J150000D01*
G01*
X71604000Y-81257000D01*
G75*
G02*
X71754000Y-81107000I150000J0D01*
G01*
X73404000Y-81107000D01*
G75*
G02*
X73554000Y-81257000I0J-150000D01*
G01*
G37*
%TD.AperFunction*%
%TO.P,U2,1*%
%TO.N,GND*%
%TA.AperFunction,SMDPad,CuDef*%
G36*
G01*
X73554000Y-82527000D02*
X73554000Y-82827000D01*
G75*
G02*
X73404000Y-82977000I-150000J0D01*
G01*
X71754000Y-82977000D01*
G75*
G02*
X71604000Y-82827000I0J150000D01*
G01*
X71604000Y-82527000D01*
G75*
G02*
X71754000Y-82377000I150000J0D01*
G01*
X73404000Y-82377000D01*
G75*
G02*
X73554000Y-82527000I0J-150000D01*
G01*
G37*
%TD.AperFunction*%
%TD*%
D15*
%TO.P,U1,1*%
%TO.N,GND*%
X60554000Y-61736000D03*
%TO.P,U1,3*%
%TO.N,+5V*%
X60554000Y-57136000D03*
%TO.P,U1,2*%
%TO.N,+3V3*%
X60554000Y-59436000D03*
D16*
X54254000Y-59436000D03*
%TD*%
%TO.P,R7,2*%
%TO.N,RTS*%
%TA.AperFunction,SMDPad,CuDef*%
G36*
G01*
X64839000Y-78982000D02*
X65209000Y-78982000D01*
G75*
G02*
X65344000Y-79117000I0J-135000D01*
G01*
X65344000Y-79387000D01*
G75*
G02*
X65209000Y-79522000I-135000J0D01*
G01*
X64839000Y-79522000D01*
G75*
G02*
X64704000Y-79387000I0J135000D01*
G01*
X64704000Y-79117000D01*
G75*
G02*
X64839000Y-78982000I135000J0D01*
G01*
G37*
%TD.AperFunction*%
%TO.P,R7,1*%
%TO.N,Net-(Q2-Pad2)*%
%TA.AperFunction,SMDPad,CuDef*%
G36*
G01*
X64839000Y-77962000D02*
X65209000Y-77962000D01*
G75*
G02*
X65344000Y-78097000I0J-135000D01*
G01*
X65344000Y-78367000D01*
G75*
G02*
X65209000Y-78502000I-135000J0D01*
G01*
X64839000Y-78502000D01*
G75*
G02*
X64704000Y-78367000I0J135000D01*
G01*
X64704000Y-78097000D01*
G75*
G02*
X64839000Y-77962000I135000J0D01*
G01*
G37*
%TD.AperFunction*%
%TD*%
%TO.P,R6,2*%
%TO.N,DTR*%
%TA.AperFunction,SMDPad,CuDef*%
G36*
G01*
X65209000Y-81038000D02*
X64839000Y-81038000D01*
G75*
G02*
X64704000Y-80903000I0J135000D01*
G01*
X64704000Y-80633000D01*
G75*
G02*
X64839000Y-80498000I135000J0D01*
G01*
X65209000Y-80498000D01*
G75*
G02*
X65344000Y-80633000I0J-135000D01*
G01*
X65344000Y-80903000D01*
G75*
G02*
X65209000Y-81038000I-135000J0D01*
G01*
G37*
%TD.AperFunction*%
%TO.P,R6,1*%
%TO.N,Net-(Q1-Pad2)*%
%TA.AperFunction,SMDPad,CuDef*%
G36*
G01*
X65209000Y-82058000D02*
X64839000Y-82058000D01*
G75*
G02*
X64704000Y-81923000I0J135000D01*
G01*
X64704000Y-81653000D01*
G75*
G02*
X64839000Y-81518000I135000J0D01*
G01*
X65209000Y-81518000D01*
G75*
G02*
X65344000Y-81653000I0J-135000D01*
G01*
X65344000Y-81923000D01*
G75*
G02*
X65209000Y-82058000I-135000J0D01*
G01*
G37*
%TD.AperFunction*%
%TD*%
%TO.P,R5,2*%
%TO.N,+3V3*%
%TA.AperFunction,SMDPad,CuDef*%
G36*
G01*
X64274000Y-63315000D02*
X64274000Y-63685000D01*
G75*
G02*
X64139000Y-63820000I-135000J0D01*
G01*
X63869000Y-63820000D01*
G75*
G02*
X63734000Y-63685000I0J135000D01*
G01*
X63734000Y-63315000D01*
G75*
G02*
X63869000Y-63180000I135000J0D01*
G01*
X64139000Y-63180000D01*
G75*
G02*
X64274000Y-63315000I0J-135000D01*
G01*
G37*
%TD.AperFunction*%
%TO.P,R5,1*%
%TO.N,RST*%
%TA.AperFunction,SMDPad,CuDef*%
G36*
G01*
X65294000Y-63315000D02*
X65294000Y-63685000D01*
G75*
G02*
X65159000Y-63820000I-135000J0D01*
G01*
X64889000Y-63820000D01*
G75*
G02*
X64754000Y-63685000I0J135000D01*
G01*
X64754000Y-63315000D01*
G75*
G02*
X64889000Y-63180000I135000J0D01*
G01*
X65159000Y-63180000D01*
G75*
G02*
X65294000Y-63315000I0J-135000D01*
G01*
G37*
%TD.AperFunction*%
%TD*%
%TO.P,R4,2*%
%TO.N,CHPD*%
%TA.AperFunction,SMDPad,CuDef*%
G36*
G01*
X60722000Y-73475000D02*
X60722000Y-73845000D01*
G75*
G02*
X60587000Y-73980000I-135000J0D01*
G01*
X60317000Y-73980000D01*
G75*
G02*
X60182000Y-73845000I0J135000D01*
G01*
X60182000Y-73475000D01*
G75*
G02*
X60317000Y-73340000I135000J0D01*
G01*
X60587000Y-73340000D01*
G75*
G02*
X60722000Y-73475000I0J-135000D01*
G01*
G37*
%TD.AperFunction*%
%TO.P,R4,1*%
%TO.N,+3V3*%
%TA.AperFunction,SMDPad,CuDef*%
G36*
G01*
X61742000Y-73475000D02*
X61742000Y-73845000D01*
G75*
G02*
X61607000Y-73980000I-135000J0D01*
G01*
X61337000Y-73980000D01*
G75*
G02*
X61202000Y-73845000I0J135000D01*
G01*
X61202000Y-73475000D01*
G75*
G02*
X61337000Y-73340000I135000J0D01*
G01*
X61607000Y-73340000D01*
G75*
G02*
X61742000Y-73475000I0J-135000D01*
G01*
G37*
%TD.AperFunction*%
%TD*%
%TO.P,R3,2*%
%TO.N,Net-(D3-Pad2)*%
%TA.AperFunction,SMDPad,CuDef*%
G36*
G01*
X64758000Y-61780000D02*
X64758000Y-61410000D01*
G75*
G02*
X64893000Y-61275000I135000J0D01*
G01*
X65163000Y-61275000D01*
G75*
G02*
X65298000Y-61410000I0J-135000D01*
G01*
X65298000Y-61780000D01*
G75*
G02*
X65163000Y-61915000I-135000J0D01*
G01*
X64893000Y-61915000D01*
G75*
G02*
X64758000Y-61780000I0J135000D01*
G01*
G37*
%TD.AperFunction*%
%TO.P,R3,1*%
%TO.N,+3V3*%
%TA.AperFunction,SMDPad,CuDef*%
G36*
G01*
X63738000Y-61780000D02*
X63738000Y-61410000D01*
G75*
G02*
X63873000Y-61275000I135000J0D01*
G01*
X64143000Y-61275000D01*
G75*
G02*
X64278000Y-61410000I0J-135000D01*
G01*
X64278000Y-61780000D01*
G75*
G02*
X64143000Y-61915000I-135000J0D01*
G01*
X63873000Y-61915000D01*
G75*
G02*
X63738000Y-61780000I0J135000D01*
G01*
G37*
%TD.AperFunction*%
%TD*%
%TO.P,R2,2*%
%TO.N,Net-(D2-Pad2)*%
%TA.AperFunction,SMDPad,CuDef*%
G36*
G01*
X64758000Y-58605000D02*
X64758000Y-58235000D01*
G75*
G02*
X64893000Y-58100000I135000J0D01*
G01*
X65163000Y-58100000D01*
G75*
G02*
X65298000Y-58235000I0J-135000D01*
G01*
X65298000Y-58605000D01*
G75*
G02*
X65163000Y-58740000I-135000J0D01*
G01*
X64893000Y-58740000D01*
G75*
G02*
X64758000Y-58605000I0J135000D01*
G01*
G37*
%TD.AperFunction*%
%TO.P,R2,1*%
%TO.N,+3V3*%
%TA.AperFunction,SMDPad,CuDef*%
G36*
G01*
X63738000Y-58605000D02*
X63738000Y-58235000D01*
G75*
G02*
X63873000Y-58100000I135000J0D01*
G01*
X64143000Y-58100000D01*
G75*
G02*
X64278000Y-58235000I0J-135000D01*
G01*
X64278000Y-58605000D01*
G75*
G02*
X64143000Y-58740000I-135000J0D01*
G01*
X63873000Y-58740000D01*
G75*
G02*
X63738000Y-58605000I0J135000D01*
G01*
G37*
%TD.AperFunction*%
%TD*%
%TO.P,R1,2*%
%TO.N,Net-(D1-Pad2)*%
%TA.AperFunction,SMDPad,CuDef*%
G36*
G01*
X64758000Y-55430000D02*
X64758000Y-55060000D01*
G75*
G02*
X64893000Y-54925000I135000J0D01*
G01*
X65163000Y-54925000D01*
G75*
G02*
X65298000Y-55060000I0J-135000D01*
G01*
X65298000Y-55430000D01*
G75*
G02*
X65163000Y-55565000I-135000J0D01*
G01*
X64893000Y-55565000D01*
G75*
G02*
X64758000Y-55430000I0J135000D01*
G01*
G37*
%TD.AperFunction*%
%TO.P,R1,1*%
%TO.N,+3V3*%
%TA.AperFunction,SMDPad,CuDef*%
G36*
G01*
X63738000Y-55430000D02*
X63738000Y-55060000D01*
G75*
G02*
X63873000Y-54925000I135000J0D01*
G01*
X64143000Y-54925000D01*
G75*
G02*
X64278000Y-55060000I0J-135000D01*
G01*
X64278000Y-55430000D01*
G75*
G02*
X64143000Y-55565000I-135000J0D01*
G01*
X63873000Y-55565000D01*
G75*
G02*
X63738000Y-55430000I0J135000D01*
G01*
G37*
%TD.AperFunction*%
%TD*%
D17*
%TO.P,Q2,3*%
%TO.N,DTR*%
X61910000Y-75724000D03*
%TO.P,Q2,2*%
%TO.N,Net-(Q2-Pad2)*%
X62860000Y-77724000D03*
%TO.P,Q2,1*%
%TO.N,I00*%
X60960000Y-77724000D03*
%TD*%
D18*
%TO.P,Q1,3*%
%TO.N,RST*%
X60992000Y-81280000D03*
%TO.P,Q1,2*%
%TO.N,Net-(Q1-Pad2)*%
X62992000Y-80330000D03*
%TO.P,Q1,1*%
%TO.N,RTS*%
X62992000Y-82230000D03*
%TD*%
D19*
%TO.P,J1,B1*%
%TO.N,GND*%
X62790000Y-51670000D03*
%TO.P,J1,A9*%
%TO.N,Net-(J1-PadA4)*%
X63590000Y-51670000D03*
%TO.P,J1,B9*%
X68490000Y-51670000D03*
%TO.P,J1,B12*%
%TO.N,GND*%
X69290000Y-51670000D03*
%TO.P,J1,A1*%
X69290000Y-51670000D03*
%TO.P,J1,A4*%
%TO.N,Net-(J1-PadA4)*%
X68490000Y-51670000D03*
%TO.P,J1,B4*%
X63590000Y-51670000D03*
%TO.P,J1,A12*%
%TO.N,GND*%
X62790000Y-51670000D03*
D20*
%TO.P,J1,B8*%
%TO.N,Net-(J1-PadB8)*%
X67790000Y-51670000D03*
%TO.P,J1,A5*%
%TO.N,+5V*%
X67290000Y-51670000D03*
%TO.P,J1,B7*%
%TO.N,Net-(J1-PadB7)*%
X66790000Y-51670000D03*
%TO.P,J1,A7*%
%TO.N,D-*%
X65790000Y-51670000D03*
%TO.P,J1,B6*%
%TO.N,Net-(J1-PadB6)*%
X65290000Y-51670000D03*
%TO.P,J1,A8*%
%TO.N,Net-(J1-PadA8)*%
X64790000Y-51670000D03*
%TO.P,J1,B5*%
%TO.N,Net-(J1-PadB5)*%
X64290000Y-51670000D03*
%TO.P,J1,A6*%
%TO.N,D+*%
X66290000Y-51670000D03*
D21*
%TO.P,J1,S1*%
%TO.N,Net-(J1-PadS1)*%
X61720000Y-50755000D03*
X70360000Y-50755000D03*
D22*
X70360000Y-46575000D03*
X61720000Y-46575000D03*
%TD*%
%TO.P,D3,2*%
%TO.N,Net-(D3-Pad2)*%
%TA.AperFunction,SMDPad,CuDef*%
G36*
G01*
X66985500Y-61338750D02*
X66985500Y-61851250D01*
G75*
G02*
X66766750Y-62070000I-218750J0D01*
G01*
X66329250Y-62070000D01*
G75*
G02*
X66110500Y-61851250I0J218750D01*
G01*
X66110500Y-61338750D01*
G75*
G02*
X66329250Y-61120000I218750J0D01*
G01*
X66766750Y-61120000D01*
G75*
G02*
X66985500Y-61338750I0J-218750D01*
G01*
G37*
%TD.AperFunction*%
%TO.P,D3,1*%
%TO.N,RX*%
%TA.AperFunction,SMDPad,CuDef*%
G36*
G01*
X68560500Y-61338750D02*
X68560500Y-61851250D01*
G75*
G02*
X68341750Y-62070000I-218750J0D01*
G01*
X67904250Y-62070000D01*
G75*
G02*
X67685500Y-61851250I0J218750D01*
G01*
X67685500Y-61338750D01*
G75*
G02*
X67904250Y-61120000I218750J0D01*
G01*
X68341750Y-61120000D01*
G75*
G02*
X68560500Y-61338750I0J-218750D01*
G01*
G37*
%TD.AperFunction*%
%TD*%
%TO.P,D2,2*%
%TO.N,Net-(D2-Pad2)*%
%TA.AperFunction,SMDPad,CuDef*%
G36*
G01*
X66985500Y-58163750D02*
X66985500Y-58676250D01*
G75*
G02*
X66766750Y-58895000I-218750J0D01*
G01*
X66329250Y-58895000D01*
G75*
G02*
X66110500Y-58676250I0J218750D01*
G01*
X66110500Y-58163750D01*
G75*
G02*
X66329250Y-57945000I218750J0D01*
G01*
X66766750Y-57945000D01*
G75*
G02*
X66985500Y-58163750I0J-218750D01*
G01*
G37*
%TD.AperFunction*%
%TO.P,D2,1*%
%TO.N,TX*%
%TA.AperFunction,SMDPad,CuDef*%
G36*
G01*
X68560500Y-58163750D02*
X68560500Y-58676250D01*
G75*
G02*
X68341750Y-58895000I-218750J0D01*
G01*
X67904250Y-58895000D01*
G75*
G02*
X67685500Y-58676250I0J218750D01*
G01*
X67685500Y-58163750D01*
G75*
G02*
X67904250Y-57945000I218750J0D01*
G01*
X68341750Y-57945000D01*
G75*
G02*
X68560500Y-58163750I0J-218750D01*
G01*
G37*
%TD.AperFunction*%
%TD*%
%TO.P,D1,2*%
%TO.N,Net-(D1-Pad2)*%
%TA.AperFunction,SMDPad,CuDef*%
G36*
G01*
X66985500Y-54988750D02*
X66985500Y-55501250D01*
G75*
G02*
X66766750Y-55720000I-218750J0D01*
G01*
X66329250Y-55720000D01*
G75*
G02*
X66110500Y-55501250I0J218750D01*
G01*
X66110500Y-54988750D01*
G75*
G02*
X66329250Y-54770000I218750J0D01*
G01*
X66766750Y-54770000D01*
G75*
G02*
X66985500Y-54988750I0J-218750D01*
G01*
G37*
%TD.AperFunction*%
%TO.P,D1,1*%
%TO.N,GND*%
%TA.AperFunction,SMDPad,CuDef*%
G36*
G01*
X68560500Y-54988750D02*
X68560500Y-55501250D01*
G75*
G02*
X68341750Y-55720000I-218750J0D01*
G01*
X67904250Y-55720000D01*
G75*
G02*
X67685500Y-55501250I0J218750D01*
G01*
X67685500Y-54988750D01*
G75*
G02*
X67904250Y-54770000I218750J0D01*
G01*
X68341750Y-54770000D01*
G75*
G02*
X68560500Y-54988750I0J-218750D01*
G01*
G37*
%TD.AperFunction*%
%TD*%
%TO.P,C3,2*%
%TO.N,GND*%
%TA.AperFunction,SMDPad,CuDef*%
G36*
G01*
X56446000Y-69338000D02*
X56446000Y-68838000D01*
G75*
G02*
X56671000Y-68613000I225000J0D01*
G01*
X57121000Y-68613000D01*
G75*
G02*
X57346000Y-68838000I0J-225000D01*
G01*
X57346000Y-69338000D01*
G75*
G02*
X57121000Y-69563000I-225000J0D01*
G01*
X56671000Y-69563000D01*
G75*
G02*
X56446000Y-69338000I0J225000D01*
G01*
G37*
%TD.AperFunction*%
%TO.P,C3,1*%
%TO.N,+3V3*%
%TA.AperFunction,SMDPad,CuDef*%
G36*
G01*
X54896000Y-69338000D02*
X54896000Y-68838000D01*
G75*
G02*
X55121000Y-68613000I225000J0D01*
G01*
X55571000Y-68613000D01*
G75*
G02*
X55796000Y-68838000I0J-225000D01*
G01*
X55796000Y-69338000D01*
G75*
G02*
X55571000Y-69563000I-225000J0D01*
G01*
X55121000Y-69563000D01*
G75*
G02*
X54896000Y-69338000I0J225000D01*
G01*
G37*
%TD.AperFunction*%
%TD*%
%TO.P,C2,2*%
%TO.N,GND*%
%TA.AperFunction,SMDPad,CuDef*%
G36*
G01*
X57784500Y-66457003D02*
X57784500Y-64606997D01*
G75*
G02*
X58034497Y-64357000I249997J0D01*
G01*
X58859503Y-64357000D01*
G75*
G02*
X59109500Y-64606997I0J-249997D01*
G01*
X59109500Y-66457003D01*
G75*
G02*
X58859503Y-66707000I-249997J0D01*
G01*
X58034497Y-66707000D01*
G75*
G02*
X57784500Y-66457003I0J249997D01*
G01*
G37*
%TD.AperFunction*%
%TO.P,C2,1*%
%TO.N,+3V3*%
%TA.AperFunction,SMDPad,CuDef*%
G36*
G01*
X54709500Y-66457003D02*
X54709500Y-64606997D01*
G75*
G02*
X54959497Y-64357000I249997J0D01*
G01*
X55784503Y-64357000D01*
G75*
G02*
X56034500Y-64606997I0J-249997D01*
G01*
X56034500Y-66457003D01*
G75*
G02*
X55784503Y-66707000I-249997J0D01*
G01*
X54959497Y-66707000D01*
G75*
G02*
X54709500Y-66457003I0J249997D01*
G01*
G37*
%TD.AperFunction*%
%TD*%
%TO.P,C1,2*%
%TO.N,GND*%
%TA.AperFunction,SMDPad,CuDef*%
G36*
G01*
X56812000Y-54106000D02*
X56812000Y-54606000D01*
G75*
G02*
X56587000Y-54831000I-225000J0D01*
G01*
X56137000Y-54831000D01*
G75*
G02*
X55912000Y-54606000I0J225000D01*
G01*
X55912000Y-54106000D01*
G75*
G02*
X56137000Y-53881000I225000J0D01*
G01*
X56587000Y-53881000D01*
G75*
G02*
X56812000Y-54106000I0J-225000D01*
G01*
G37*
%TD.AperFunction*%
%TO.P,C1,1*%
%TO.N,+5V*%
%TA.AperFunction,SMDPad,CuDef*%
G36*
G01*
X58362000Y-54106000D02*
X58362000Y-54606000D01*
G75*
G02*
X58137000Y-54831000I-225000J0D01*
G01*
X57687000Y-54831000D01*
G75*
G02*
X57462000Y-54606000I0J225000D01*
G01*
X57462000Y-54106000D01*
G75*
G02*
X57687000Y-53881000I225000J0D01*
G01*
X58137000Y-53881000D01*
G75*
G02*
X58362000Y-54106000I0J-225000D01*
G01*
G37*
%TD.AperFunction*%
%TD*%
D23*
%TO.N,GND*%
X57404000Y-60960000D03*
X56388000Y-55880000D03*
X60452000Y-65532000D03*
%TO.N,+5V*%
X60960000Y-55372000D03*
X66548000Y-53340000D03*
%TO.N,TX*%
X72644000Y-58420000D03*
%TO.N,RX*%
X73369000Y-60960000D03*
%TO.N,D-*%
X65532000Y-50292000D03*
X70612000Y-76200000D03*
%TO.N,D+*%
X66575239Y-50309933D03*
X70612000Y-77516990D03*
%TO.N,RST*%
X59944000Y-78740000D03*
X65024000Y-65024000D03*
%TO.N,DTR*%
X64008000Y-79465000D03*
X58928000Y-76708000D03*
%TO.N,I00*%
X61976000Y-78740000D03*
%TD*%
D24*
%TO.N,GND*%
X79720000Y-52540000D02*
X79720000Y-60490000D01*
X60554000Y-63425000D02*
X58447000Y-65532000D01*
X60554000Y-61736000D02*
X60554000Y-63425000D01*
X58447000Y-67537000D02*
X56896000Y-69088000D01*
X58447000Y-65532000D02*
X58447000Y-67537000D01*
X56196000Y-99060000D02*
X72579000Y-82677000D01*
X55245000Y-99060000D02*
X56196000Y-99060000D01*
X79720000Y-62352000D02*
X73152000Y-68920000D01*
X79720000Y-60490000D02*
X79720000Y-62352000D01*
X58180000Y-61736000D02*
X57404000Y-60960000D01*
X60554000Y-61736000D02*
X58180000Y-61736000D01*
X62154928Y-52355010D02*
X62739999Y-51769939D01*
X56362000Y-53881000D02*
X57887990Y-52355010D01*
X56362000Y-54356000D02*
X56362000Y-53881000D01*
X56388000Y-54382000D02*
X56362000Y-54356000D01*
X56362000Y-55854000D02*
X56388000Y-55880000D01*
X56362000Y-54356000D02*
X56362000Y-55854000D01*
X69340001Y-54027999D02*
X69340001Y-51670000D01*
X68123000Y-55245000D02*
X69340001Y-54027999D01*
X58447000Y-65532000D02*
X60452000Y-65532000D01*
X78394999Y-51214999D02*
X79720000Y-52540000D01*
X72153001Y-51214999D02*
X78394999Y-51214999D01*
X69340001Y-54027999D02*
X72153001Y-51214999D01*
X61839072Y-48600990D02*
X60420990Y-50019072D01*
X70240928Y-48600990D02*
X61839072Y-48600990D01*
X60420990Y-50019072D02*
X60420990Y-52355010D01*
X72153001Y-50513063D02*
X70240928Y-48600990D01*
X72153001Y-51214999D02*
X72153001Y-50513063D01*
X60420990Y-52355010D02*
X62154928Y-52355010D01*
X57887990Y-52355010D02*
X60420990Y-52355010D01*
%TO.N,+5V*%
X57912000Y-54356000D02*
X57912000Y-54494000D01*
D25*
X67290000Y-52598000D02*
X67290000Y-51670000D01*
X66548000Y-53340000D02*
X67290000Y-52598000D01*
D24*
X58928000Y-55372000D02*
X57912000Y-54356000D01*
X60960000Y-55372000D02*
X58928000Y-55372000D01*
X60960000Y-56730000D02*
X60554000Y-57136000D01*
X60960000Y-55372000D02*
X60960000Y-56730000D01*
%TO.N,+3V3*%
X62992000Y-59436000D02*
X64008000Y-58420000D01*
X60554000Y-59436000D02*
X62992000Y-59436000D01*
X60554000Y-59436000D02*
X54254000Y-59436000D01*
X64008000Y-58420000D02*
X64008000Y-55245000D01*
X64008000Y-58420000D02*
X64008000Y-61595000D01*
X54254000Y-64414000D02*
X55372000Y-65532000D01*
X54254000Y-59436000D02*
X54254000Y-64414000D01*
X55372000Y-69062000D02*
X55346000Y-69088000D01*
X55372000Y-65532000D02*
X55372000Y-69062000D01*
X64008000Y-63496000D02*
X64004000Y-63500000D01*
X64008000Y-61595000D02*
X64008000Y-63496000D01*
X72202232Y-78867000D02*
X72579000Y-78867000D01*
D25*
X68392232Y-82677000D02*
X72202232Y-78867000D01*
D24*
X67629000Y-82677000D02*
X68392232Y-82677000D01*
D25*
X71953990Y-78241990D02*
X72579000Y-78867000D01*
X66053990Y-78241990D02*
X71953990Y-78241990D01*
X61472000Y-73660000D02*
X66053990Y-78241990D01*
D24*
X61472000Y-73340000D02*
X61472000Y-73660000D01*
X60921990Y-72789990D02*
X61472000Y-73340000D01*
X58572990Y-72789990D02*
X60921990Y-72789990D01*
X55346000Y-69563000D02*
X58572990Y-72789990D01*
X55346000Y-69088000D02*
X55346000Y-69563000D01*
X57269000Y-96520000D02*
X55245000Y-96520000D01*
X67629000Y-86160000D02*
X57269000Y-96520000D01*
X67629000Y-82677000D02*
X67629000Y-86160000D01*
X53221000Y-96520000D02*
X55245000Y-96520000D01*
X53170990Y-96469990D02*
X53221000Y-96520000D01*
X53170990Y-67733010D02*
X53170990Y-96469990D01*
X55372000Y-65532000D02*
X53170990Y-67733010D01*
D25*
%TO.N,Net-(D1-Pad2)*%
X65028000Y-55245000D02*
X66548000Y-55245000D01*
%TO.N,Net-(D2-Pad2)*%
X65028000Y-58420000D02*
X66548000Y-58420000D01*
%TO.N,TX*%
X68123000Y-58420000D02*
X72644000Y-58420000D01*
X77724000Y-73279000D02*
X78105000Y-73660000D01*
X74768010Y-80192990D02*
X73554000Y-81407000D01*
X73554000Y-81407000D02*
X72579000Y-81407000D01*
X79954010Y-79190254D02*
X78951274Y-80192990D01*
X79954010Y-75749746D02*
X79954010Y-79190254D01*
X78105000Y-73900736D02*
X79954010Y-75749746D01*
X78951274Y-80192990D02*
X74768010Y-80192990D01*
X78105000Y-73660000D02*
X78105000Y-73900736D01*
%TO.N,Net-(D3-Pad2)*%
X65028000Y-61595000D02*
X66548000Y-61595000D01*
%TO.N,RX*%
X74168000Y-80137000D02*
X78105000Y-76200000D01*
X72579000Y-80137000D02*
X74168000Y-80137000D01*
X72734000Y-61595000D02*
X73369000Y-60960000D01*
X68123000Y-61595000D02*
X72734000Y-61595000D01*
%TO.N,Net-(J1-PadA4)*%
X68490000Y-50909998D02*
X68490000Y-51670000D01*
X66856002Y-49276000D02*
X68490000Y-50909998D01*
X65223998Y-49276000D02*
X66856002Y-49276000D01*
X63590000Y-50909998D02*
X65223998Y-49276000D01*
X63590000Y-51670000D02*
X63590000Y-50909998D01*
%TO.N,D-*%
X65790000Y-50550000D02*
X65532000Y-50292000D01*
X65790000Y-51670000D02*
X65790000Y-50550000D01*
X72452000Y-76200000D02*
X72579000Y-76327000D01*
X70612000Y-76200000D02*
X72452000Y-76200000D01*
%TO.N,D+*%
X66290000Y-50595172D02*
X66575239Y-50309933D01*
X66290000Y-51670000D02*
X66290000Y-50595172D01*
X72498990Y-77516990D02*
X72579000Y-77597000D01*
X70612000Y-77516990D02*
X72498990Y-77516990D01*
%TO.N,RST*%
X75220000Y-52540000D02*
X75220000Y-60490000D01*
X75220000Y-60490000D02*
X75146000Y-60490000D01*
X72136000Y-63500000D02*
X65024000Y-63500000D01*
X75146000Y-60490000D02*
X72136000Y-63500000D01*
X55245000Y-81280000D02*
X60992000Y-81280000D01*
X60992000Y-79788000D02*
X59944000Y-78740000D01*
X60992000Y-81280000D02*
X60992000Y-79788000D01*
X65024000Y-65024000D02*
X65024000Y-63500000D01*
%TO.N,RTS*%
X65909000Y-80137000D02*
X67629000Y-80137000D01*
X65024000Y-79252000D02*
X65909000Y-80137000D01*
X64511999Y-78739999D02*
X65024000Y-79252000D01*
X63049003Y-78739999D02*
X64511999Y-78739999D01*
X62216999Y-79572003D02*
X63049003Y-78739999D01*
X62216999Y-81454999D02*
X62216999Y-79572003D01*
X62992000Y-82230000D02*
X62216999Y-81454999D01*
%TO.N,DTR*%
X68005768Y-78867000D02*
X67629000Y-78867000D01*
X68929010Y-80483758D02*
X68929010Y-79790242D01*
X68644768Y-80768000D02*
X68929010Y-80483758D01*
X68929010Y-79790242D02*
X68005768Y-78867000D01*
X65024000Y-80768000D02*
X68644768Y-80768000D01*
X65024000Y-80481000D02*
X64008000Y-79465000D01*
X65024000Y-80768000D02*
X65024000Y-80481000D01*
X60926000Y-76708000D02*
X61910000Y-75724000D01*
X58928000Y-76708000D02*
X60926000Y-76708000D01*
%TO.N,I00*%
X60960000Y-77724000D02*
X61976000Y-78740000D01*
%TO.N,CHPD*%
X55245000Y-73660000D02*
X60452000Y-73660000D01*
%TO.N,Net-(U2-Pad8)*%
X70526999Y-72709999D02*
X70526999Y-69845001D01*
X70526999Y-69845001D02*
X71452000Y-68920000D01*
X71604000Y-73787000D02*
X70526999Y-72709999D01*
X72579000Y-73787000D02*
X71604000Y-73787000D01*
%TO.N,Net-(U2-Pad7)*%
X73554000Y-75057000D02*
X72579000Y-75057000D01*
X73879010Y-74731990D02*
X73554000Y-75057000D01*
X73879010Y-71847010D02*
X73879010Y-74731990D01*
X73152000Y-71120000D02*
X73879010Y-71847010D01*
%TO.N,Net-(Q1-Pad2)*%
X63566000Y-80330000D02*
X65024000Y-81788000D01*
X62992000Y-80330000D02*
X63566000Y-80330000D01*
%TO.N,Net-(Q2-Pad2)*%
X64516000Y-77724000D02*
X65024000Y-78232000D01*
X62860000Y-77724000D02*
X64516000Y-77724000D01*
%TD*%
D26*
X57404000Y-60960000D03*
X56388000Y-55880000D03*
X60452000Y-65532000D03*
X60960000Y-55372000D03*
X66548000Y-53340000D03*
X72644000Y-58420000D03*
X73369000Y-60960000D03*
X65532000Y-50292000D03*
X70612000Y-76200000D03*
X66575239Y-50309933D03*
X70612000Y-77516990D03*
X59944000Y-78740000D03*
X65024000Y-65024000D03*
X64008000Y-79465000D03*
X58928000Y-76708000D03*
X61976000Y-78740000D03*
X53340000Y-46990000D03*
X80010000Y-46990000D03*
X78105000Y-104140000D03*
X78105000Y-73660000D03*
X78105000Y-76200000D03*
X78105000Y-78740000D03*
X78105000Y-81280000D03*
X78105000Y-83820000D03*
X78105000Y-86360000D03*
X78105000Y-88900000D03*
X78105000Y-91440000D03*
X78105000Y-93980000D03*
X78105000Y-96520000D03*
X78105000Y-99060000D03*
X78105000Y-101600000D03*
X55245000Y-104140000D03*
X55245000Y-101600000D03*
X55245000Y-99060000D03*
X55245000Y-96520000D03*
X55245000Y-93980000D03*
X55245000Y-91440000D03*
X55245000Y-88900000D03*
X55245000Y-86360000D03*
X55245000Y-83820000D03*
X55245000Y-81280000D03*
X55245000Y-78740000D03*
X55245000Y-76200000D03*
X55245000Y-73660000D03*
X78105000Y-118745000D03*
X55245000Y-118745000D03*
D27*
X61720000Y-50755000D03*
X70360000Y-50755000D03*
D26*
X68930000Y-50225000D03*
D28*
X70360000Y-46575000D03*
D26*
X63150000Y-50225000D03*
D28*
X61720000Y-46575000D03*
M02*
