M48
METRIC
T1C0.400
T2C0.600
T3C0.762
T4C2.032
T5C0.650
T6C2.200
%
G90
G05
T1
X56.388Y-55.88
X57.404Y-60.96
X58.928Y-76.708
X59.944Y-78.74
X60.452Y-65.532
X60.96Y-55.372
X61.976Y-78.74
X64.008Y-79.465
X65.024Y-65.024
X65.532Y-50.292
X66.548Y-53.34
X66.575Y-50.31
X70.612Y-76.2
X70.612Y-77.517
X72.644Y-58.42
X73.369Y-60.96
T3
X55.245Y-73.66
X55.245Y-76.2
X55.245Y-78.74
X55.245Y-81.28
X55.245Y-83.82
X55.245Y-86.36
X55.245Y-88.9
X55.245Y-91.44
X55.245Y-93.98
X55.245Y-96.52
X55.245Y-99.06
X55.245Y-101.6
X55.245Y-104.14
X78.105Y-73.66
X78.105Y-76.2
X78.105Y-78.74
X78.105Y-81.28
X78.105Y-83.82
X78.105Y-86.36
X78.105Y-88.9
X78.105Y-91.44
X78.105Y-93.98
X78.105Y-96.52
X78.105Y-99.06
X78.105Y-101.6
X78.105Y-104.14
T4
X55.245Y-118.745
X78.105Y-118.745
T5
X63.15Y-50.225
X68.93Y-50.225
T6
X53.34Y-46.99
X80.01Y-46.99
T2
G00X61.72Y-46.875
M15
G01X61.72Y-46.275
M16
G05
G00X61.72Y-51.305
M15
G01X61.72Y-50.205
M16
G05
G00X70.36Y-46.875
M15
G01X70.36Y-46.275
M16
G05
G00X70.36Y-51.305
M15
G01X70.36Y-50.205
M16
G05
T0
M30
