%FSLAX45Y45*%
G04 Gerber Fmt 4.5, Leading zero omitted, Abs format (unit mm)*
G04 Created by KiCad (PCBNEW 5.1.10-88a1d61d58~88~ubuntu20.04.1) date 2021-05-29 16:43:34*
%MOMM*%
%LPD*%
G01*
G04 APERTURE LIST*
%TA.AperFunction,Profile*%
%ADD10C,0.050000*%
%TD*%
%ADD11C,0.200000*%
%ADD12C,0.300000*%
G04 APERTURE END LIST*
D10*
X5080000Y-4572000D02*
G75*
G02*
X5207000Y-4445000I127000J0D01*
G01*
X5207000Y-12065000D02*
G75*
G02*
X5080000Y-11938000I0J127000D01*
G01*
X8255000Y-11938000D02*
G75*
G02*
X8128000Y-12065000I-127000J0D01*
G01*
X8128000Y-4445000D02*
G75*
G02*
X8255000Y-4572000I0J-127000D01*
G01*
X5080000Y-4572000D02*
X5080000Y-11938000D01*
X8128000Y-4445000D02*
X5207000Y-4445000D01*
X8255000Y-11938000D02*
X8255000Y-4572000D01*
X5207000Y-12065000D02*
X8128000Y-12065000D01*
D11*
X5618800Y-5568000D02*
X5658800Y-5608000D01*
X5658800Y-5568000D02*
X5618800Y-5608000D01*
X5720400Y-6076000D02*
X5760400Y-6116000D01*
X5760400Y-6076000D02*
X5720400Y-6116000D01*
X5872800Y-7650800D02*
X5912800Y-7690800D01*
X5912800Y-7650800D02*
X5872800Y-7690800D01*
X5974400Y-7854000D02*
X6014400Y-7894000D01*
X6014400Y-7854000D02*
X5974400Y-7894000D01*
X6025200Y-6533200D02*
X6065200Y-6573200D01*
X6065200Y-6533200D02*
X6025200Y-6573200D01*
X6076000Y-5517200D02*
X6116000Y-5557200D01*
X6116000Y-5517200D02*
X6076000Y-5557200D01*
X6177600Y-7854000D02*
X6217600Y-7894000D01*
X6217600Y-7854000D02*
X6177600Y-7894000D01*
X6380800Y-7926500D02*
X6420800Y-7966500D01*
X6420800Y-7926500D02*
X6380800Y-7966500D01*
X6482400Y-6482400D02*
X6522400Y-6522400D01*
X6522400Y-6482400D02*
X6482400Y-6522400D01*
X6533200Y-5009200D02*
X6573200Y-5049200D01*
X6573200Y-5009200D02*
X6533200Y-5049200D01*
X6634800Y-5314000D02*
X6674800Y-5354000D01*
X6674800Y-5314000D02*
X6634800Y-5354000D01*
X6637524Y-5010993D02*
X6677524Y-5050993D01*
X6677524Y-5010993D02*
X6637524Y-5050993D01*
X7041200Y-7600000D02*
X7081200Y-7640000D01*
X7081200Y-7600000D02*
X7041200Y-7640000D01*
X7041200Y-7731699D02*
X7081200Y-7771699D01*
X7081200Y-7731699D02*
X7041200Y-7771699D01*
X7244400Y-5822000D02*
X7284400Y-5862000D01*
X7284400Y-5822000D02*
X7244400Y-5862000D01*
X7316900Y-6076000D02*
X7356900Y-6116000D01*
X7356900Y-6076000D02*
X7316900Y-6116000D01*
X6202000Y-4657500D02*
G75*
G03*
X6202000Y-4657500I-30000J0D01*
G01*
X6192000Y-4687500D02*
X6192000Y-4627500D01*
X6152000Y-4687500D02*
X6152000Y-4627500D01*
X6192000Y-4627500D02*
G75*
G03*
X6152000Y-4627500I-20000J0D01*
G01*
X6152000Y-4687500D02*
G75*
G03*
X6192000Y-4687500I20000J0D01*
G01*
X6202000Y-5075500D02*
G75*
G03*
X6202000Y-5075500I-30000J0D01*
G01*
X6192000Y-5130500D02*
X6192000Y-5020500D01*
X6152000Y-5130500D02*
X6152000Y-5020500D01*
X6192000Y-5020500D02*
G75*
G03*
X6152000Y-5020500I-20000J0D01*
G01*
X6152000Y-5130500D02*
G75*
G03*
X6192000Y-5130500I20000J0D01*
G01*
X7066000Y-4657500D02*
G75*
G03*
X7066000Y-4657500I-30000J0D01*
G01*
X7056000Y-4687500D02*
X7056000Y-4627500D01*
X7016000Y-4687500D02*
X7016000Y-4627500D01*
X7056000Y-4627500D02*
G75*
G03*
X7016000Y-4627500I-20000J0D01*
G01*
X7016000Y-4687500D02*
G75*
G03*
X7056000Y-4687500I20000J0D01*
G01*
X7066000Y-5075500D02*
G75*
G03*
X7066000Y-5075500I-30000J0D01*
G01*
X7056000Y-5130500D02*
X7056000Y-5020500D01*
X7016000Y-5130500D02*
X7016000Y-5020500D01*
X7056000Y-5020500D02*
G75*
G03*
X7016000Y-5020500I-20000J0D01*
G01*
X7016000Y-5130500D02*
G75*
G03*
X7056000Y-5130500I20000J0D01*
G01*
X5524500Y-7327900D02*
X5524500Y-7404100D01*
X5486400Y-7366000D02*
X5562600Y-7366000D01*
X5524500Y-7581900D02*
X5524500Y-7658100D01*
X5486400Y-7620000D02*
X5562600Y-7620000D01*
X5524500Y-7835900D02*
X5524500Y-7912100D01*
X5486400Y-7874000D02*
X5562600Y-7874000D01*
X5524500Y-8089900D02*
X5524500Y-8166100D01*
X5486400Y-8128000D02*
X5562600Y-8128000D01*
X5524500Y-8343900D02*
X5524500Y-8420100D01*
X5486400Y-8382000D02*
X5562600Y-8382000D01*
X5524500Y-8597900D02*
X5524500Y-8674100D01*
X5486400Y-8636000D02*
X5562600Y-8636000D01*
X5524500Y-8851900D02*
X5524500Y-8928100D01*
X5486400Y-8890000D02*
X5562600Y-8890000D01*
X5524500Y-9105900D02*
X5524500Y-9182100D01*
X5486400Y-9144000D02*
X5562600Y-9144000D01*
X5524500Y-9359900D02*
X5524500Y-9436100D01*
X5486400Y-9398000D02*
X5562600Y-9398000D01*
X5524500Y-9613900D02*
X5524500Y-9690100D01*
X5486400Y-9652000D02*
X5562600Y-9652000D01*
X5524500Y-9867900D02*
X5524500Y-9944100D01*
X5486400Y-9906000D02*
X5562600Y-9906000D01*
X5524500Y-10121900D02*
X5524500Y-10198100D01*
X5486400Y-10160000D02*
X5562600Y-10160000D01*
X5524500Y-10375900D02*
X5524500Y-10452100D01*
X5486400Y-10414000D02*
X5562600Y-10414000D01*
X7810500Y-7327900D02*
X7810500Y-7404100D01*
X7772400Y-7366000D02*
X7848600Y-7366000D01*
X7810500Y-7581900D02*
X7810500Y-7658100D01*
X7772400Y-7620000D02*
X7848600Y-7620000D01*
X7810500Y-7835900D02*
X7810500Y-7912100D01*
X7772400Y-7874000D02*
X7848600Y-7874000D01*
X7810500Y-8089900D02*
X7810500Y-8166100D01*
X7772400Y-8128000D02*
X7848600Y-8128000D01*
X7810500Y-8343900D02*
X7810500Y-8420100D01*
X7772400Y-8382000D02*
X7848600Y-8382000D01*
X7810500Y-8597900D02*
X7810500Y-8674100D01*
X7772400Y-8636000D02*
X7848600Y-8636000D01*
X7810500Y-8851900D02*
X7810500Y-8928100D01*
X7772400Y-8890000D02*
X7848600Y-8890000D01*
X7810500Y-9105900D02*
X7810500Y-9182100D01*
X7772400Y-9144000D02*
X7848600Y-9144000D01*
X7810500Y-9359900D02*
X7810500Y-9436100D01*
X7772400Y-9398000D02*
X7848600Y-9398000D01*
X7810500Y-9613900D02*
X7810500Y-9690100D01*
X7772400Y-9652000D02*
X7848600Y-9652000D01*
X7810500Y-9867900D02*
X7810500Y-9944100D01*
X7772400Y-9906000D02*
X7848600Y-9906000D01*
X7810500Y-10121900D02*
X7810500Y-10198100D01*
X7772400Y-10160000D02*
X7848600Y-10160000D01*
X7810500Y-10375900D02*
X7810500Y-10452100D01*
X7772400Y-10414000D02*
X7848600Y-10414000D01*
X5596343Y-11946343D02*
X5596343Y-11802657D01*
X5452657Y-11802657D01*
X5452657Y-11946343D01*
X5596343Y-11946343D01*
X7882343Y-11946343D02*
X7882343Y-11802657D01*
X7738657Y-11802657D01*
X7738657Y-11946343D01*
X7882343Y-11946343D01*
X6315000Y-5055000D02*
X6347500Y-5022500D01*
X6315000Y-4990000D01*
X6282500Y-5022500D01*
X6315000Y-5055000D01*
X6893000Y-5055000D02*
X6925500Y-5022500D01*
X6893000Y-4990000D01*
X6860500Y-5022500D01*
X6893000Y-5055000D01*
X5224000Y-4589000D02*
X5444000Y-4809000D01*
X5444000Y-4589000D02*
X5224000Y-4809000D01*
X5444000Y-4699000D02*
G75*
G03*
X5444000Y-4699000I-110000J0D01*
G01*
X7891000Y-4589000D02*
X8111000Y-4809000D01*
X8111000Y-4589000D02*
X7891000Y-4809000D01*
X8111000Y-4699000D02*
G75*
G03*
X8111000Y-4699000I-110000J0D01*
G01*
D12*
X5363928Y-12533214D02*
X5363928Y-12233214D01*
X5435357Y-12233214D01*
X5478214Y-12247500D01*
X5506786Y-12276071D01*
X5521071Y-12304643D01*
X5535357Y-12361786D01*
X5535357Y-12404643D01*
X5521071Y-12461786D01*
X5506786Y-12490357D01*
X5478214Y-12518929D01*
X5435357Y-12533214D01*
X5363928Y-12533214D01*
X5663928Y-12533214D02*
X5663928Y-12333214D01*
X5663928Y-12390357D02*
X5678214Y-12361786D01*
X5692500Y-12347500D01*
X5721071Y-12333214D01*
X5749643Y-12333214D01*
X5849643Y-12533214D02*
X5849643Y-12333214D01*
X5849643Y-12233214D02*
X5835357Y-12247500D01*
X5849643Y-12261786D01*
X5863928Y-12247500D01*
X5849643Y-12233214D01*
X5849643Y-12261786D01*
X6035357Y-12533214D02*
X6006786Y-12518929D01*
X5992500Y-12490357D01*
X5992500Y-12233214D01*
X6192500Y-12533214D02*
X6163928Y-12518929D01*
X6149643Y-12490357D01*
X6149643Y-12233214D01*
X6535357Y-12533214D02*
X6535357Y-12233214D01*
X6635357Y-12447500D01*
X6735357Y-12233214D01*
X6735357Y-12533214D01*
X7006786Y-12533214D02*
X7006786Y-12376071D01*
X6992500Y-12347500D01*
X6963928Y-12333214D01*
X6906786Y-12333214D01*
X6878214Y-12347500D01*
X7006786Y-12518929D02*
X6978214Y-12533214D01*
X6906786Y-12533214D01*
X6878214Y-12518929D01*
X6863928Y-12490357D01*
X6863928Y-12461786D01*
X6878214Y-12433214D01*
X6906786Y-12418929D01*
X6978214Y-12418929D01*
X7006786Y-12404643D01*
X7149643Y-12333214D02*
X7149643Y-12633214D01*
X7149643Y-12347500D02*
X7178214Y-12333214D01*
X7235357Y-12333214D01*
X7263928Y-12347500D01*
X7278214Y-12361786D01*
X7292500Y-12390357D01*
X7292500Y-12476071D01*
X7278214Y-12504643D01*
X7263928Y-12518929D01*
X7235357Y-12533214D01*
X7178214Y-12533214D01*
X7149643Y-12518929D01*
X7421071Y-12504643D02*
X7435357Y-12518929D01*
X7421071Y-12533214D01*
X7406786Y-12518929D01*
X7421071Y-12504643D01*
X7421071Y-12533214D01*
X7421071Y-12347500D02*
X7435357Y-12361786D01*
X7421071Y-12376071D01*
X7406786Y-12361786D01*
X7421071Y-12347500D01*
X7421071Y-12376071D01*
X5037500Y-13007500D02*
X5077500Y-13047500D01*
X5077500Y-13007500D02*
X5037500Y-13047500D01*
X5421071Y-12863214D02*
X5449643Y-12863214D01*
X5478214Y-12877500D01*
X5492500Y-12891786D01*
X5506786Y-12920357D01*
X5521071Y-12977500D01*
X5521071Y-13048929D01*
X5506786Y-13106071D01*
X5492500Y-13134643D01*
X5478214Y-13148929D01*
X5449643Y-13163214D01*
X5421071Y-13163214D01*
X5392500Y-13148929D01*
X5378214Y-13134643D01*
X5363928Y-13106071D01*
X5349643Y-13048929D01*
X5349643Y-12977500D01*
X5363928Y-12920357D01*
X5378214Y-12891786D01*
X5392500Y-12877500D01*
X5421071Y-12863214D01*
X5649643Y-13134643D02*
X5663928Y-13148929D01*
X5649643Y-13163214D01*
X5635357Y-13148929D01*
X5649643Y-13134643D01*
X5649643Y-13163214D01*
X5921071Y-12963214D02*
X5921071Y-13163214D01*
X5849643Y-12848929D02*
X5778214Y-13063214D01*
X5963928Y-13063214D01*
X6135357Y-12863214D02*
X6163928Y-12863214D01*
X6192500Y-12877500D01*
X6206786Y-12891786D01*
X6221071Y-12920357D01*
X6235357Y-12977500D01*
X6235357Y-13048929D01*
X6221071Y-13106071D01*
X6206786Y-13134643D01*
X6192500Y-13148929D01*
X6163928Y-13163214D01*
X6135357Y-13163214D01*
X6106786Y-13148929D01*
X6092500Y-13134643D01*
X6078214Y-13106071D01*
X6063928Y-13048929D01*
X6063928Y-12977500D01*
X6078214Y-12920357D01*
X6092500Y-12891786D01*
X6106786Y-12877500D01*
X6135357Y-12863214D01*
X6421071Y-12863214D02*
X6449643Y-12863214D01*
X6478214Y-12877500D01*
X6492500Y-12891786D01*
X6506786Y-12920357D01*
X6521071Y-12977500D01*
X6521071Y-13048929D01*
X6506786Y-13106071D01*
X6492500Y-13134643D01*
X6478214Y-13148929D01*
X6449643Y-13163214D01*
X6421071Y-13163214D01*
X6392500Y-13148929D01*
X6378214Y-13134643D01*
X6363928Y-13106071D01*
X6349643Y-13048929D01*
X6349643Y-12977500D01*
X6363928Y-12920357D01*
X6378214Y-12891786D01*
X6392500Y-12877500D01*
X6421071Y-12863214D01*
X6649643Y-13163214D02*
X6649643Y-12963214D01*
X6649643Y-12991786D02*
X6663928Y-12977500D01*
X6692500Y-12963214D01*
X6735357Y-12963214D01*
X6763928Y-12977500D01*
X6778214Y-13006071D01*
X6778214Y-13163214D01*
X6778214Y-13006071D02*
X6792500Y-12977500D01*
X6821071Y-12963214D01*
X6863928Y-12963214D01*
X6892500Y-12977500D01*
X6906786Y-13006071D01*
X6906786Y-13163214D01*
X7049643Y-13163214D02*
X7049643Y-12963214D01*
X7049643Y-12991786D02*
X7063928Y-12977500D01*
X7092500Y-12963214D01*
X7135357Y-12963214D01*
X7163928Y-12977500D01*
X7178214Y-13006071D01*
X7178214Y-13163214D01*
X7178214Y-13006071D02*
X7192500Y-12977500D01*
X7221071Y-12963214D01*
X7263928Y-12963214D01*
X7292500Y-12977500D01*
X7306786Y-13006071D01*
X7306786Y-13163214D01*
X7892500Y-12848929D02*
X7635357Y-13234643D01*
X8278214Y-12863214D02*
X8306786Y-12863214D01*
X8335357Y-12877500D01*
X8349643Y-12891786D01*
X8363928Y-12920357D01*
X8378214Y-12977500D01*
X8378214Y-13048929D01*
X8363928Y-13106071D01*
X8349643Y-13134643D01*
X8335357Y-13148929D01*
X8306786Y-13163214D01*
X8278214Y-13163214D01*
X8249643Y-13148929D01*
X8235357Y-13134643D01*
X8221071Y-13106071D01*
X8206786Y-13048929D01*
X8206786Y-12977500D01*
X8221071Y-12920357D01*
X8235357Y-12891786D01*
X8249643Y-12877500D01*
X8278214Y-12863214D01*
X8506786Y-13134643D02*
X8521071Y-13148929D01*
X8506786Y-13163214D01*
X8492500Y-13148929D01*
X8506786Y-13134643D01*
X8506786Y-13163214D01*
X8706786Y-12863214D02*
X8735357Y-12863214D01*
X8763928Y-12877500D01*
X8778214Y-12891786D01*
X8792500Y-12920357D01*
X8806786Y-12977500D01*
X8806786Y-13048929D01*
X8792500Y-13106071D01*
X8778214Y-13134643D01*
X8763928Y-13148929D01*
X8735357Y-13163214D01*
X8706786Y-13163214D01*
X8678214Y-13148929D01*
X8663928Y-13134643D01*
X8649643Y-13106071D01*
X8635357Y-13048929D01*
X8635357Y-12977500D01*
X8649643Y-12920357D01*
X8663928Y-12891786D01*
X8678214Y-12877500D01*
X8706786Y-12863214D01*
X9092500Y-13163214D02*
X8921071Y-13163214D01*
X9006786Y-13163214D02*
X9006786Y-12863214D01*
X8978214Y-12906071D01*
X8949643Y-12934643D01*
X8921071Y-12948929D01*
X9363928Y-12863214D02*
X9221071Y-12863214D01*
X9206786Y-13006071D01*
X9221071Y-12991786D01*
X9249643Y-12977500D01*
X9321071Y-12977500D01*
X9349643Y-12991786D01*
X9363928Y-13006071D01*
X9378214Y-13034643D01*
X9378214Y-13106071D01*
X9363928Y-13134643D01*
X9349643Y-13148929D01*
X9321071Y-13163214D01*
X9249643Y-13163214D01*
X9221071Y-13148929D01*
X9206786Y-13134643D01*
X9478214Y-12863214D02*
X9678214Y-12863214D01*
X9549643Y-13163214D01*
X9778214Y-12863214D02*
X9778214Y-12920357D01*
X9892500Y-12863214D02*
X9892500Y-12920357D01*
X10335357Y-13277500D02*
X10321071Y-13263214D01*
X10292500Y-13220357D01*
X10278214Y-13191786D01*
X10263928Y-13148929D01*
X10249643Y-13077500D01*
X10249643Y-13020357D01*
X10263928Y-12948929D01*
X10278214Y-12906071D01*
X10292500Y-12877500D01*
X10321071Y-12834643D01*
X10335357Y-12820357D01*
X10606786Y-13163214D02*
X10435357Y-13163214D01*
X10521071Y-13163214D02*
X10521071Y-12863214D01*
X10492500Y-12906071D01*
X10463928Y-12934643D01*
X10435357Y-12948929D01*
X10863928Y-12863214D02*
X10806786Y-12863214D01*
X10778214Y-12877500D01*
X10763928Y-12891786D01*
X10735357Y-12934643D01*
X10721071Y-12991786D01*
X10721071Y-13106071D01*
X10735357Y-13134643D01*
X10749643Y-13148929D01*
X10778214Y-13163214D01*
X10835357Y-13163214D01*
X10863928Y-13148929D01*
X10878214Y-13134643D01*
X10892500Y-13106071D01*
X10892500Y-13034643D01*
X10878214Y-13006071D01*
X10863928Y-12991786D01*
X10835357Y-12977500D01*
X10778214Y-12977500D01*
X10749643Y-12991786D01*
X10735357Y-13006071D01*
X10721071Y-13034643D01*
X11249643Y-13163214D02*
X11249643Y-12863214D01*
X11378214Y-13163214D02*
X11378214Y-13006071D01*
X11363928Y-12977500D01*
X11335357Y-12963214D01*
X11292500Y-12963214D01*
X11263928Y-12977500D01*
X11249643Y-12991786D01*
X11563928Y-13163214D02*
X11535357Y-13148929D01*
X11521071Y-13134643D01*
X11506786Y-13106071D01*
X11506786Y-13020357D01*
X11521071Y-12991786D01*
X11535357Y-12977500D01*
X11563928Y-12963214D01*
X11606786Y-12963214D01*
X11635357Y-12977500D01*
X11649643Y-12991786D01*
X11663928Y-13020357D01*
X11663928Y-13106071D01*
X11649643Y-13134643D01*
X11635357Y-13148929D01*
X11606786Y-13163214D01*
X11563928Y-13163214D01*
X11835357Y-13163214D02*
X11806786Y-13148929D01*
X11792500Y-13120357D01*
X11792500Y-12863214D01*
X12063928Y-13148929D02*
X12035357Y-13163214D01*
X11978214Y-13163214D01*
X11949643Y-13148929D01*
X11935357Y-13120357D01*
X11935357Y-13006071D01*
X11949643Y-12977500D01*
X11978214Y-12963214D01*
X12035357Y-12963214D01*
X12063928Y-12977500D01*
X12078214Y-13006071D01*
X12078214Y-13034643D01*
X11935357Y-13063214D01*
X12192500Y-13148929D02*
X12221071Y-13163214D01*
X12278214Y-13163214D01*
X12306786Y-13148929D01*
X12321071Y-13120357D01*
X12321071Y-13106071D01*
X12306786Y-13077500D01*
X12278214Y-13063214D01*
X12235357Y-13063214D01*
X12206786Y-13048929D01*
X12192500Y-13020357D01*
X12192500Y-13006071D01*
X12206786Y-12977500D01*
X12235357Y-12963214D01*
X12278214Y-12963214D01*
X12306786Y-12977500D01*
X12421071Y-13277500D02*
X12435357Y-13263214D01*
X12463928Y-13220357D01*
X12478214Y-13191786D01*
X12492500Y-13148929D01*
X12506786Y-13077500D01*
X12506786Y-13020357D01*
X12492500Y-12948929D01*
X12478214Y-12906071D01*
X12463928Y-12877500D01*
X12435357Y-12834643D01*
X12421071Y-12820357D01*
X5077500Y-13423500D02*
G75*
G03*
X5077500Y-13423500I-30000J0D01*
G01*
X5421071Y-13259214D02*
X5449643Y-13259214D01*
X5478214Y-13273500D01*
X5492500Y-13287786D01*
X5506786Y-13316357D01*
X5521071Y-13373500D01*
X5521071Y-13444929D01*
X5506786Y-13502071D01*
X5492500Y-13530643D01*
X5478214Y-13544929D01*
X5449643Y-13559214D01*
X5421071Y-13559214D01*
X5392500Y-13544929D01*
X5378214Y-13530643D01*
X5363928Y-13502071D01*
X5349643Y-13444929D01*
X5349643Y-13373500D01*
X5363928Y-13316357D01*
X5378214Y-13287786D01*
X5392500Y-13273500D01*
X5421071Y-13259214D01*
X5649643Y-13530643D02*
X5663928Y-13544929D01*
X5649643Y-13559214D01*
X5635357Y-13544929D01*
X5649643Y-13530643D01*
X5649643Y-13559214D01*
X5921071Y-13259214D02*
X5863928Y-13259214D01*
X5835357Y-13273500D01*
X5821071Y-13287786D01*
X5792500Y-13330643D01*
X5778214Y-13387786D01*
X5778214Y-13502071D01*
X5792500Y-13530643D01*
X5806786Y-13544929D01*
X5835357Y-13559214D01*
X5892500Y-13559214D01*
X5921071Y-13544929D01*
X5935357Y-13530643D01*
X5949643Y-13502071D01*
X5949643Y-13430643D01*
X5935357Y-13402071D01*
X5921071Y-13387786D01*
X5892500Y-13373500D01*
X5835357Y-13373500D01*
X5806786Y-13387786D01*
X5792500Y-13402071D01*
X5778214Y-13430643D01*
X6135357Y-13259214D02*
X6163928Y-13259214D01*
X6192500Y-13273500D01*
X6206786Y-13287786D01*
X6221071Y-13316357D01*
X6235357Y-13373500D01*
X6235357Y-13444929D01*
X6221071Y-13502071D01*
X6206786Y-13530643D01*
X6192500Y-13544929D01*
X6163928Y-13559214D01*
X6135357Y-13559214D01*
X6106786Y-13544929D01*
X6092500Y-13530643D01*
X6078214Y-13502071D01*
X6063928Y-13444929D01*
X6063928Y-13373500D01*
X6078214Y-13316357D01*
X6092500Y-13287786D01*
X6106786Y-13273500D01*
X6135357Y-13259214D01*
X6421071Y-13259214D02*
X6449643Y-13259214D01*
X6478214Y-13273500D01*
X6492500Y-13287786D01*
X6506786Y-13316357D01*
X6521071Y-13373500D01*
X6521071Y-13444929D01*
X6506786Y-13502071D01*
X6492500Y-13530643D01*
X6478214Y-13544929D01*
X6449643Y-13559214D01*
X6421071Y-13559214D01*
X6392500Y-13544929D01*
X6378214Y-13530643D01*
X6363928Y-13502071D01*
X6349643Y-13444929D01*
X6349643Y-13373500D01*
X6363928Y-13316357D01*
X6378214Y-13287786D01*
X6392500Y-13273500D01*
X6421071Y-13259214D01*
X6649643Y-13559214D02*
X6649643Y-13359214D01*
X6649643Y-13387786D02*
X6663928Y-13373500D01*
X6692500Y-13359214D01*
X6735357Y-13359214D01*
X6763928Y-13373500D01*
X6778214Y-13402071D01*
X6778214Y-13559214D01*
X6778214Y-13402071D02*
X6792500Y-13373500D01*
X6821071Y-13359214D01*
X6863928Y-13359214D01*
X6892500Y-13373500D01*
X6906786Y-13402071D01*
X6906786Y-13559214D01*
X7049643Y-13559214D02*
X7049643Y-13359214D01*
X7049643Y-13387786D02*
X7063928Y-13373500D01*
X7092500Y-13359214D01*
X7135357Y-13359214D01*
X7163928Y-13373500D01*
X7178214Y-13402071D01*
X7178214Y-13559214D01*
X7178214Y-13402071D02*
X7192500Y-13373500D01*
X7221071Y-13359214D01*
X7263928Y-13359214D01*
X7292500Y-13373500D01*
X7306786Y-13402071D01*
X7306786Y-13559214D01*
X7892500Y-13244929D02*
X7635357Y-13630643D01*
X8278214Y-13259214D02*
X8306786Y-13259214D01*
X8335357Y-13273500D01*
X8349643Y-13287786D01*
X8363928Y-13316357D01*
X8378214Y-13373500D01*
X8378214Y-13444929D01*
X8363928Y-13502071D01*
X8349643Y-13530643D01*
X8335357Y-13544929D01*
X8306786Y-13559214D01*
X8278214Y-13559214D01*
X8249643Y-13544929D01*
X8235357Y-13530643D01*
X8221071Y-13502071D01*
X8206786Y-13444929D01*
X8206786Y-13373500D01*
X8221071Y-13316357D01*
X8235357Y-13287786D01*
X8249643Y-13273500D01*
X8278214Y-13259214D01*
X8506786Y-13530643D02*
X8521071Y-13544929D01*
X8506786Y-13559214D01*
X8492500Y-13544929D01*
X8506786Y-13530643D01*
X8506786Y-13559214D01*
X8706786Y-13259214D02*
X8735357Y-13259214D01*
X8763928Y-13273500D01*
X8778214Y-13287786D01*
X8792500Y-13316357D01*
X8806786Y-13373500D01*
X8806786Y-13444929D01*
X8792500Y-13502071D01*
X8778214Y-13530643D01*
X8763928Y-13544929D01*
X8735357Y-13559214D01*
X8706786Y-13559214D01*
X8678214Y-13544929D01*
X8663928Y-13530643D01*
X8649643Y-13502071D01*
X8635357Y-13444929D01*
X8635357Y-13373500D01*
X8649643Y-13316357D01*
X8663928Y-13287786D01*
X8678214Y-13273500D01*
X8706786Y-13259214D01*
X8921071Y-13287786D02*
X8935357Y-13273500D01*
X8963928Y-13259214D01*
X9035357Y-13259214D01*
X9063928Y-13273500D01*
X9078214Y-13287786D01*
X9092500Y-13316357D01*
X9092500Y-13344929D01*
X9078214Y-13387786D01*
X8906786Y-13559214D01*
X9092500Y-13559214D01*
X9192500Y-13259214D02*
X9378214Y-13259214D01*
X9278214Y-13373500D01*
X9321071Y-13373500D01*
X9349643Y-13387786D01*
X9363928Y-13402071D01*
X9378214Y-13430643D01*
X9378214Y-13502071D01*
X9363928Y-13530643D01*
X9349643Y-13544929D01*
X9321071Y-13559214D01*
X9235357Y-13559214D01*
X9206786Y-13544929D01*
X9192500Y-13530643D01*
X9635357Y-13259214D02*
X9578214Y-13259214D01*
X9549643Y-13273500D01*
X9535357Y-13287786D01*
X9506786Y-13330643D01*
X9492500Y-13387786D01*
X9492500Y-13502071D01*
X9506786Y-13530643D01*
X9521071Y-13544929D01*
X9549643Y-13559214D01*
X9606786Y-13559214D01*
X9635357Y-13544929D01*
X9649643Y-13530643D01*
X9663928Y-13502071D01*
X9663928Y-13430643D01*
X9649643Y-13402071D01*
X9635357Y-13387786D01*
X9606786Y-13373500D01*
X9549643Y-13373500D01*
X9521071Y-13387786D01*
X9506786Y-13402071D01*
X9492500Y-13430643D01*
X9778214Y-13259214D02*
X9778214Y-13316357D01*
X9892500Y-13259214D02*
X9892500Y-13316357D01*
X10335357Y-13673500D02*
X10321071Y-13659214D01*
X10292500Y-13616357D01*
X10278214Y-13587786D01*
X10263928Y-13544929D01*
X10249643Y-13473500D01*
X10249643Y-13416357D01*
X10263928Y-13344929D01*
X10278214Y-13302071D01*
X10292500Y-13273500D01*
X10321071Y-13230643D01*
X10335357Y-13216357D01*
X10506786Y-13259214D02*
X10535357Y-13259214D01*
X10563928Y-13273500D01*
X10578214Y-13287786D01*
X10592500Y-13316357D01*
X10606786Y-13373500D01*
X10606786Y-13444929D01*
X10592500Y-13502071D01*
X10578214Y-13530643D01*
X10563928Y-13544929D01*
X10535357Y-13559214D01*
X10506786Y-13559214D01*
X10478214Y-13544929D01*
X10463928Y-13530643D01*
X10449643Y-13502071D01*
X10435357Y-13444929D01*
X10435357Y-13373500D01*
X10449643Y-13316357D01*
X10463928Y-13287786D01*
X10478214Y-13273500D01*
X10506786Y-13259214D01*
X10963928Y-13559214D02*
X10963928Y-13259214D01*
X11092500Y-13559214D02*
X11092500Y-13402071D01*
X11078214Y-13373500D01*
X11049643Y-13359214D01*
X11006786Y-13359214D01*
X10978214Y-13373500D01*
X10963928Y-13387786D01*
X11278214Y-13559214D02*
X11249643Y-13544929D01*
X11235357Y-13530643D01*
X11221071Y-13502071D01*
X11221071Y-13416357D01*
X11235357Y-13387786D01*
X11249643Y-13373500D01*
X11278214Y-13359214D01*
X11321071Y-13359214D01*
X11349643Y-13373500D01*
X11363928Y-13387786D01*
X11378214Y-13416357D01*
X11378214Y-13502071D01*
X11363928Y-13530643D01*
X11349643Y-13544929D01*
X11321071Y-13559214D01*
X11278214Y-13559214D01*
X11549643Y-13559214D02*
X11521071Y-13544929D01*
X11506786Y-13516357D01*
X11506786Y-13259214D01*
X11778214Y-13544929D02*
X11749643Y-13559214D01*
X11692500Y-13559214D01*
X11663928Y-13544929D01*
X11649643Y-13516357D01*
X11649643Y-13402071D01*
X11663928Y-13373500D01*
X11692500Y-13359214D01*
X11749643Y-13359214D01*
X11778214Y-13373500D01*
X11792500Y-13402071D01*
X11792500Y-13430643D01*
X11649643Y-13459214D01*
X11906786Y-13544929D02*
X11935357Y-13559214D01*
X11992500Y-13559214D01*
X12021071Y-13544929D01*
X12035357Y-13516357D01*
X12035357Y-13502071D01*
X12021071Y-13473500D01*
X11992500Y-13459214D01*
X11949643Y-13459214D01*
X11921071Y-13444929D01*
X11906786Y-13416357D01*
X11906786Y-13402071D01*
X11921071Y-13373500D01*
X11949643Y-13359214D01*
X11992500Y-13359214D01*
X12021071Y-13373500D01*
X12392500Y-13444929D02*
X12621071Y-13444929D01*
X12506786Y-13559214D02*
X12506786Y-13330643D01*
X13121071Y-13359214D02*
X13121071Y-13559214D01*
X13049643Y-13244929D02*
X12978214Y-13459214D01*
X13163928Y-13459214D01*
X13492500Y-13544929D02*
X13521071Y-13559214D01*
X13578214Y-13559214D01*
X13606786Y-13544929D01*
X13621071Y-13516357D01*
X13621071Y-13502071D01*
X13606786Y-13473500D01*
X13578214Y-13459214D01*
X13535357Y-13459214D01*
X13506786Y-13444929D01*
X13492500Y-13416357D01*
X13492500Y-13402071D01*
X13506786Y-13373500D01*
X13535357Y-13359214D01*
X13578214Y-13359214D01*
X13606786Y-13373500D01*
X13792500Y-13559214D02*
X13763928Y-13544929D01*
X13749643Y-13516357D01*
X13749643Y-13259214D01*
X13949643Y-13559214D02*
X13921071Y-13544929D01*
X13906786Y-13530643D01*
X13892500Y-13502071D01*
X13892500Y-13416357D01*
X13906786Y-13387786D01*
X13921071Y-13373500D01*
X13949643Y-13359214D01*
X13992500Y-13359214D01*
X14021071Y-13373500D01*
X14035357Y-13387786D01*
X14049643Y-13416357D01*
X14049643Y-13502071D01*
X14035357Y-13530643D01*
X14021071Y-13544929D01*
X13992500Y-13559214D01*
X13949643Y-13559214D01*
X14135357Y-13359214D02*
X14249643Y-13359214D01*
X14178214Y-13259214D02*
X14178214Y-13516357D01*
X14192500Y-13544929D01*
X14221071Y-13559214D01*
X14249643Y-13559214D01*
X14335357Y-13544929D02*
X14363928Y-13559214D01*
X14421071Y-13559214D01*
X14449643Y-13544929D01*
X14463928Y-13516357D01*
X14463928Y-13502071D01*
X14449643Y-13473500D01*
X14421071Y-13459214D01*
X14378214Y-13459214D01*
X14349643Y-13444929D01*
X14335357Y-13416357D01*
X14335357Y-13402071D01*
X14349643Y-13373500D01*
X14378214Y-13359214D01*
X14421071Y-13359214D01*
X14449643Y-13373500D01*
X14563928Y-13673500D02*
X14578214Y-13659214D01*
X14606786Y-13616357D01*
X14621071Y-13587786D01*
X14635357Y-13544929D01*
X14649643Y-13473500D01*
X14649643Y-13416357D01*
X14635357Y-13344929D01*
X14621071Y-13302071D01*
X14606786Y-13273500D01*
X14578214Y-13230643D01*
X14563928Y-13216357D01*
X5039400Y-13781400D02*
X5039400Y-13857600D01*
X5001300Y-13819500D02*
X5077500Y-13819500D01*
X5421071Y-13655214D02*
X5449643Y-13655214D01*
X5478214Y-13669500D01*
X5492500Y-13683786D01*
X5506786Y-13712357D01*
X5521071Y-13769500D01*
X5521071Y-13840929D01*
X5506786Y-13898071D01*
X5492500Y-13926643D01*
X5478214Y-13940929D01*
X5449643Y-13955214D01*
X5421071Y-13955214D01*
X5392500Y-13940929D01*
X5378214Y-13926643D01*
X5363928Y-13898071D01*
X5349643Y-13840929D01*
X5349643Y-13769500D01*
X5363928Y-13712357D01*
X5378214Y-13683786D01*
X5392500Y-13669500D01*
X5421071Y-13655214D01*
X5649643Y-13926643D02*
X5663928Y-13940929D01*
X5649643Y-13955214D01*
X5635357Y-13940929D01*
X5649643Y-13926643D01*
X5649643Y-13955214D01*
X5763928Y-13655214D02*
X5963928Y-13655214D01*
X5835357Y-13955214D01*
X6206786Y-13655214D02*
X6149643Y-13655214D01*
X6121071Y-13669500D01*
X6106786Y-13683786D01*
X6078214Y-13726643D01*
X6063928Y-13783786D01*
X6063928Y-13898071D01*
X6078214Y-13926643D01*
X6092500Y-13940929D01*
X6121071Y-13955214D01*
X6178214Y-13955214D01*
X6206786Y-13940929D01*
X6221071Y-13926643D01*
X6235357Y-13898071D01*
X6235357Y-13826643D01*
X6221071Y-13798071D01*
X6206786Y-13783786D01*
X6178214Y-13769500D01*
X6121071Y-13769500D01*
X6092500Y-13783786D01*
X6078214Y-13798071D01*
X6063928Y-13826643D01*
X6349643Y-13683786D02*
X6363928Y-13669500D01*
X6392500Y-13655214D01*
X6463928Y-13655214D01*
X6492500Y-13669500D01*
X6506786Y-13683786D01*
X6521071Y-13712357D01*
X6521071Y-13740929D01*
X6506786Y-13783786D01*
X6335357Y-13955214D01*
X6521071Y-13955214D01*
X6649643Y-13955214D02*
X6649643Y-13755214D01*
X6649643Y-13783786D02*
X6663928Y-13769500D01*
X6692500Y-13755214D01*
X6735357Y-13755214D01*
X6763928Y-13769500D01*
X6778214Y-13798071D01*
X6778214Y-13955214D01*
X6778214Y-13798071D02*
X6792500Y-13769500D01*
X6821071Y-13755214D01*
X6863928Y-13755214D01*
X6892500Y-13769500D01*
X6906786Y-13798071D01*
X6906786Y-13955214D01*
X7049643Y-13955214D02*
X7049643Y-13755214D01*
X7049643Y-13783786D02*
X7063928Y-13769500D01*
X7092500Y-13755214D01*
X7135357Y-13755214D01*
X7163928Y-13769500D01*
X7178214Y-13798071D01*
X7178214Y-13955214D01*
X7178214Y-13798071D02*
X7192500Y-13769500D01*
X7221071Y-13755214D01*
X7263928Y-13755214D01*
X7292500Y-13769500D01*
X7306786Y-13798071D01*
X7306786Y-13955214D01*
X7892500Y-13640929D02*
X7635357Y-14026643D01*
X8278214Y-13655214D02*
X8306786Y-13655214D01*
X8335357Y-13669500D01*
X8349643Y-13683786D01*
X8363928Y-13712357D01*
X8378214Y-13769500D01*
X8378214Y-13840929D01*
X8363928Y-13898071D01*
X8349643Y-13926643D01*
X8335357Y-13940929D01*
X8306786Y-13955214D01*
X8278214Y-13955214D01*
X8249643Y-13940929D01*
X8235357Y-13926643D01*
X8221071Y-13898071D01*
X8206786Y-13840929D01*
X8206786Y-13769500D01*
X8221071Y-13712357D01*
X8235357Y-13683786D01*
X8249643Y-13669500D01*
X8278214Y-13655214D01*
X8506786Y-13926643D02*
X8521071Y-13940929D01*
X8506786Y-13955214D01*
X8492500Y-13940929D01*
X8506786Y-13926643D01*
X8506786Y-13955214D01*
X8706786Y-13655214D02*
X8735357Y-13655214D01*
X8763928Y-13669500D01*
X8778214Y-13683786D01*
X8792500Y-13712357D01*
X8806786Y-13769500D01*
X8806786Y-13840929D01*
X8792500Y-13898071D01*
X8778214Y-13926643D01*
X8763928Y-13940929D01*
X8735357Y-13955214D01*
X8706786Y-13955214D01*
X8678214Y-13940929D01*
X8663928Y-13926643D01*
X8649643Y-13898071D01*
X8635357Y-13840929D01*
X8635357Y-13769500D01*
X8649643Y-13712357D01*
X8663928Y-13683786D01*
X8678214Y-13669500D01*
X8706786Y-13655214D01*
X8906786Y-13655214D02*
X9092500Y-13655214D01*
X8992500Y-13769500D01*
X9035357Y-13769500D01*
X9063928Y-13783786D01*
X9078214Y-13798071D01*
X9092500Y-13826643D01*
X9092500Y-13898071D01*
X9078214Y-13926643D01*
X9063928Y-13940929D01*
X9035357Y-13955214D01*
X8949643Y-13955214D01*
X8921071Y-13940929D01*
X8906786Y-13926643D01*
X9278214Y-13655214D02*
X9306786Y-13655214D01*
X9335357Y-13669500D01*
X9349643Y-13683786D01*
X9363928Y-13712357D01*
X9378214Y-13769500D01*
X9378214Y-13840929D01*
X9363928Y-13898071D01*
X9349643Y-13926643D01*
X9335357Y-13940929D01*
X9306786Y-13955214D01*
X9278214Y-13955214D01*
X9249643Y-13940929D01*
X9235357Y-13926643D01*
X9221071Y-13898071D01*
X9206786Y-13840929D01*
X9206786Y-13769500D01*
X9221071Y-13712357D01*
X9235357Y-13683786D01*
X9249643Y-13669500D01*
X9278214Y-13655214D01*
X9563928Y-13655214D02*
X9592500Y-13655214D01*
X9621071Y-13669500D01*
X9635357Y-13683786D01*
X9649643Y-13712357D01*
X9663928Y-13769500D01*
X9663928Y-13840929D01*
X9649643Y-13898071D01*
X9635357Y-13926643D01*
X9621071Y-13940929D01*
X9592500Y-13955214D01*
X9563928Y-13955214D01*
X9535357Y-13940929D01*
X9521071Y-13926643D01*
X9506786Y-13898071D01*
X9492500Y-13840929D01*
X9492500Y-13769500D01*
X9506786Y-13712357D01*
X9521071Y-13683786D01*
X9535357Y-13669500D01*
X9563928Y-13655214D01*
X9778214Y-13655214D02*
X9778214Y-13712357D01*
X9892500Y-13655214D02*
X9892500Y-13712357D01*
X10335357Y-14069500D02*
X10321071Y-14055214D01*
X10292500Y-14012357D01*
X10278214Y-13983786D01*
X10263928Y-13940929D01*
X10249643Y-13869500D01*
X10249643Y-13812357D01*
X10263928Y-13740929D01*
X10278214Y-13698071D01*
X10292500Y-13669500D01*
X10321071Y-13626643D01*
X10335357Y-13612357D01*
X10435357Y-13683786D02*
X10449643Y-13669500D01*
X10478214Y-13655214D01*
X10549643Y-13655214D01*
X10578214Y-13669500D01*
X10592500Y-13683786D01*
X10606786Y-13712357D01*
X10606786Y-13740929D01*
X10592500Y-13783786D01*
X10421071Y-13955214D01*
X10606786Y-13955214D01*
X10863928Y-13655214D02*
X10806786Y-13655214D01*
X10778214Y-13669500D01*
X10763928Y-13683786D01*
X10735357Y-13726643D01*
X10721071Y-13783786D01*
X10721071Y-13898071D01*
X10735357Y-13926643D01*
X10749643Y-13940929D01*
X10778214Y-13955214D01*
X10835357Y-13955214D01*
X10863928Y-13940929D01*
X10878214Y-13926643D01*
X10892500Y-13898071D01*
X10892500Y-13826643D01*
X10878214Y-13798071D01*
X10863928Y-13783786D01*
X10835357Y-13769500D01*
X10778214Y-13769500D01*
X10749643Y-13783786D01*
X10735357Y-13798071D01*
X10721071Y-13826643D01*
X11249643Y-13955214D02*
X11249643Y-13655214D01*
X11378214Y-13955214D02*
X11378214Y-13798071D01*
X11363928Y-13769500D01*
X11335357Y-13755214D01*
X11292500Y-13755214D01*
X11263928Y-13769500D01*
X11249643Y-13783786D01*
X11563928Y-13955214D02*
X11535357Y-13940929D01*
X11521071Y-13926643D01*
X11506786Y-13898071D01*
X11506786Y-13812357D01*
X11521071Y-13783786D01*
X11535357Y-13769500D01*
X11563928Y-13755214D01*
X11606786Y-13755214D01*
X11635357Y-13769500D01*
X11649643Y-13783786D01*
X11663928Y-13812357D01*
X11663928Y-13898071D01*
X11649643Y-13926643D01*
X11635357Y-13940929D01*
X11606786Y-13955214D01*
X11563928Y-13955214D01*
X11835357Y-13955214D02*
X11806786Y-13940929D01*
X11792500Y-13912357D01*
X11792500Y-13655214D01*
X12063928Y-13940929D02*
X12035357Y-13955214D01*
X11978214Y-13955214D01*
X11949643Y-13940929D01*
X11935357Y-13912357D01*
X11935357Y-13798071D01*
X11949643Y-13769500D01*
X11978214Y-13755214D01*
X12035357Y-13755214D01*
X12063928Y-13769500D01*
X12078214Y-13798071D01*
X12078214Y-13826643D01*
X11935357Y-13855214D01*
X12192500Y-13940929D02*
X12221071Y-13955214D01*
X12278214Y-13955214D01*
X12306786Y-13940929D01*
X12321071Y-13912357D01*
X12321071Y-13898071D01*
X12306786Y-13869500D01*
X12278214Y-13855214D01*
X12235357Y-13855214D01*
X12206786Y-13840929D01*
X12192500Y-13812357D01*
X12192500Y-13798071D01*
X12206786Y-13769500D01*
X12235357Y-13755214D01*
X12278214Y-13755214D01*
X12306786Y-13769500D01*
X12421071Y-14069500D02*
X12435357Y-14055214D01*
X12463928Y-14012357D01*
X12478214Y-13983786D01*
X12492500Y-13940929D01*
X12506786Y-13869500D01*
X12506786Y-13812357D01*
X12492500Y-13740929D01*
X12478214Y-13698071D01*
X12463928Y-13669500D01*
X12435357Y-13626643D01*
X12421071Y-13612357D01*
X5047743Y-14287343D02*
X5047743Y-14143657D01*
X4904057Y-14143657D01*
X4904057Y-14287343D01*
X5047743Y-14287343D01*
X5349643Y-14079786D02*
X5363928Y-14065500D01*
X5392500Y-14051214D01*
X5463928Y-14051214D01*
X5492500Y-14065500D01*
X5506786Y-14079786D01*
X5521071Y-14108357D01*
X5521071Y-14136929D01*
X5506786Y-14179786D01*
X5335357Y-14351214D01*
X5521071Y-14351214D01*
X5649643Y-14322643D02*
X5663928Y-14336929D01*
X5649643Y-14351214D01*
X5635357Y-14336929D01*
X5649643Y-14322643D01*
X5649643Y-14351214D01*
X5849643Y-14051214D02*
X5878214Y-14051214D01*
X5906786Y-14065500D01*
X5921071Y-14079786D01*
X5935357Y-14108357D01*
X5949643Y-14165500D01*
X5949643Y-14236929D01*
X5935357Y-14294071D01*
X5921071Y-14322643D01*
X5906786Y-14336929D01*
X5878214Y-14351214D01*
X5849643Y-14351214D01*
X5821071Y-14336929D01*
X5806786Y-14322643D01*
X5792500Y-14294071D01*
X5778214Y-14236929D01*
X5778214Y-14165500D01*
X5792500Y-14108357D01*
X5806786Y-14079786D01*
X5821071Y-14065500D01*
X5849643Y-14051214D01*
X6049643Y-14051214D02*
X6235357Y-14051214D01*
X6135357Y-14165500D01*
X6178214Y-14165500D01*
X6206786Y-14179786D01*
X6221071Y-14194071D01*
X6235357Y-14222643D01*
X6235357Y-14294071D01*
X6221071Y-14322643D01*
X6206786Y-14336929D01*
X6178214Y-14351214D01*
X6092500Y-14351214D01*
X6063928Y-14336929D01*
X6049643Y-14322643D01*
X6349643Y-14079786D02*
X6363928Y-14065500D01*
X6392500Y-14051214D01*
X6463928Y-14051214D01*
X6492500Y-14065500D01*
X6506786Y-14079786D01*
X6521071Y-14108357D01*
X6521071Y-14136929D01*
X6506786Y-14179786D01*
X6335357Y-14351214D01*
X6521071Y-14351214D01*
X6649643Y-14351214D02*
X6649643Y-14151214D01*
X6649643Y-14179786D02*
X6663928Y-14165500D01*
X6692500Y-14151214D01*
X6735357Y-14151214D01*
X6763928Y-14165500D01*
X6778214Y-14194071D01*
X6778214Y-14351214D01*
X6778214Y-14194071D02*
X6792500Y-14165500D01*
X6821071Y-14151214D01*
X6863928Y-14151214D01*
X6892500Y-14165500D01*
X6906786Y-14194071D01*
X6906786Y-14351214D01*
X7049643Y-14351214D02*
X7049643Y-14151214D01*
X7049643Y-14179786D02*
X7063928Y-14165500D01*
X7092500Y-14151214D01*
X7135357Y-14151214D01*
X7163928Y-14165500D01*
X7178214Y-14194071D01*
X7178214Y-14351214D01*
X7178214Y-14194071D02*
X7192500Y-14165500D01*
X7221071Y-14151214D01*
X7263928Y-14151214D01*
X7292500Y-14165500D01*
X7306786Y-14194071D01*
X7306786Y-14351214D01*
X7892500Y-14036929D02*
X7635357Y-14422643D01*
X8278214Y-14051214D02*
X8306786Y-14051214D01*
X8335357Y-14065500D01*
X8349643Y-14079786D01*
X8363928Y-14108357D01*
X8378214Y-14165500D01*
X8378214Y-14236929D01*
X8363928Y-14294071D01*
X8349643Y-14322643D01*
X8335357Y-14336929D01*
X8306786Y-14351214D01*
X8278214Y-14351214D01*
X8249643Y-14336929D01*
X8235357Y-14322643D01*
X8221071Y-14294071D01*
X8206786Y-14236929D01*
X8206786Y-14165500D01*
X8221071Y-14108357D01*
X8235357Y-14079786D01*
X8249643Y-14065500D01*
X8278214Y-14051214D01*
X8506786Y-14322643D02*
X8521071Y-14336929D01*
X8506786Y-14351214D01*
X8492500Y-14336929D01*
X8506786Y-14322643D01*
X8506786Y-14351214D01*
X8706786Y-14051214D02*
X8735357Y-14051214D01*
X8763928Y-14065500D01*
X8778214Y-14079786D01*
X8792500Y-14108357D01*
X8806786Y-14165500D01*
X8806786Y-14236929D01*
X8792500Y-14294071D01*
X8778214Y-14322643D01*
X8763928Y-14336929D01*
X8735357Y-14351214D01*
X8706786Y-14351214D01*
X8678214Y-14336929D01*
X8663928Y-14322643D01*
X8649643Y-14294071D01*
X8635357Y-14236929D01*
X8635357Y-14165500D01*
X8649643Y-14108357D01*
X8663928Y-14079786D01*
X8678214Y-14065500D01*
X8706786Y-14051214D01*
X8978214Y-14179786D02*
X8949643Y-14165500D01*
X8935357Y-14151214D01*
X8921071Y-14122643D01*
X8921071Y-14108357D01*
X8935357Y-14079786D01*
X8949643Y-14065500D01*
X8978214Y-14051214D01*
X9035357Y-14051214D01*
X9063928Y-14065500D01*
X9078214Y-14079786D01*
X9092500Y-14108357D01*
X9092500Y-14122643D01*
X9078214Y-14151214D01*
X9063928Y-14165500D01*
X9035357Y-14179786D01*
X8978214Y-14179786D01*
X8949643Y-14194071D01*
X8935357Y-14208357D01*
X8921071Y-14236929D01*
X8921071Y-14294071D01*
X8935357Y-14322643D01*
X8949643Y-14336929D01*
X8978214Y-14351214D01*
X9035357Y-14351214D01*
X9063928Y-14336929D01*
X9078214Y-14322643D01*
X9092500Y-14294071D01*
X9092500Y-14236929D01*
X9078214Y-14208357D01*
X9063928Y-14194071D01*
X9035357Y-14179786D01*
X9278214Y-14051214D02*
X9306786Y-14051214D01*
X9335357Y-14065500D01*
X9349643Y-14079786D01*
X9363928Y-14108357D01*
X9378214Y-14165500D01*
X9378214Y-14236929D01*
X9363928Y-14294071D01*
X9349643Y-14322643D01*
X9335357Y-14336929D01*
X9306786Y-14351214D01*
X9278214Y-14351214D01*
X9249643Y-14336929D01*
X9235357Y-14322643D01*
X9221071Y-14294071D01*
X9206786Y-14236929D01*
X9206786Y-14165500D01*
X9221071Y-14108357D01*
X9235357Y-14079786D01*
X9249643Y-14065500D01*
X9278214Y-14051214D01*
X9563928Y-14051214D02*
X9592500Y-14051214D01*
X9621071Y-14065500D01*
X9635357Y-14079786D01*
X9649643Y-14108357D01*
X9663928Y-14165500D01*
X9663928Y-14236929D01*
X9649643Y-14294071D01*
X9635357Y-14322643D01*
X9621071Y-14336929D01*
X9592500Y-14351214D01*
X9563928Y-14351214D01*
X9535357Y-14336929D01*
X9521071Y-14322643D01*
X9506786Y-14294071D01*
X9492500Y-14236929D01*
X9492500Y-14165500D01*
X9506786Y-14108357D01*
X9521071Y-14079786D01*
X9535357Y-14065500D01*
X9563928Y-14051214D01*
X9778214Y-14051214D02*
X9778214Y-14108357D01*
X9892500Y-14051214D02*
X9892500Y-14108357D01*
X10335357Y-14465500D02*
X10321071Y-14451214D01*
X10292500Y-14408357D01*
X10278214Y-14379786D01*
X10263928Y-14336929D01*
X10249643Y-14265500D01*
X10249643Y-14208357D01*
X10263928Y-14136929D01*
X10278214Y-14094071D01*
X10292500Y-14065500D01*
X10321071Y-14022643D01*
X10335357Y-14008357D01*
X10435357Y-14079786D02*
X10449643Y-14065500D01*
X10478214Y-14051214D01*
X10549643Y-14051214D01*
X10578214Y-14065500D01*
X10592500Y-14079786D01*
X10606786Y-14108357D01*
X10606786Y-14136929D01*
X10592500Y-14179786D01*
X10421071Y-14351214D01*
X10606786Y-14351214D01*
X10963928Y-14351214D02*
X10963928Y-14051214D01*
X11092500Y-14351214D02*
X11092500Y-14194071D01*
X11078214Y-14165500D01*
X11049643Y-14151214D01*
X11006786Y-14151214D01*
X10978214Y-14165500D01*
X10963928Y-14179786D01*
X11278214Y-14351214D02*
X11249643Y-14336929D01*
X11235357Y-14322643D01*
X11221071Y-14294071D01*
X11221071Y-14208357D01*
X11235357Y-14179786D01*
X11249643Y-14165500D01*
X11278214Y-14151214D01*
X11321071Y-14151214D01*
X11349643Y-14165500D01*
X11363928Y-14179786D01*
X11378214Y-14208357D01*
X11378214Y-14294071D01*
X11363928Y-14322643D01*
X11349643Y-14336929D01*
X11321071Y-14351214D01*
X11278214Y-14351214D01*
X11549643Y-14351214D02*
X11521071Y-14336929D01*
X11506786Y-14308357D01*
X11506786Y-14051214D01*
X11778214Y-14336929D02*
X11749643Y-14351214D01*
X11692500Y-14351214D01*
X11663928Y-14336929D01*
X11649643Y-14308357D01*
X11649643Y-14194071D01*
X11663928Y-14165500D01*
X11692500Y-14151214D01*
X11749643Y-14151214D01*
X11778214Y-14165500D01*
X11792500Y-14194071D01*
X11792500Y-14222643D01*
X11649643Y-14251214D01*
X11906786Y-14336929D02*
X11935357Y-14351214D01*
X11992500Y-14351214D01*
X12021071Y-14336929D01*
X12035357Y-14308357D01*
X12035357Y-14294071D01*
X12021071Y-14265500D01*
X11992500Y-14251214D01*
X11949643Y-14251214D01*
X11921071Y-14236929D01*
X11906786Y-14208357D01*
X11906786Y-14194071D01*
X11921071Y-14165500D01*
X11949643Y-14151214D01*
X11992500Y-14151214D01*
X12021071Y-14165500D01*
X12135357Y-14465500D02*
X12149643Y-14451214D01*
X12178214Y-14408357D01*
X12192500Y-14379786D01*
X12206786Y-14336929D01*
X12221071Y-14265500D01*
X12221071Y-14208357D01*
X12206786Y-14136929D01*
X12192500Y-14094071D01*
X12178214Y-14065500D01*
X12149643Y-14022643D01*
X12135357Y-14008357D01*
X5045000Y-14644000D02*
X5077500Y-14611500D01*
X5045000Y-14579000D01*
X5012500Y-14611500D01*
X5045000Y-14644000D01*
X5421071Y-14447214D02*
X5449643Y-14447214D01*
X5478214Y-14461500D01*
X5492500Y-14475786D01*
X5506786Y-14504357D01*
X5521071Y-14561500D01*
X5521071Y-14632929D01*
X5506786Y-14690071D01*
X5492500Y-14718643D01*
X5478214Y-14732929D01*
X5449643Y-14747214D01*
X5421071Y-14747214D01*
X5392500Y-14732929D01*
X5378214Y-14718643D01*
X5363928Y-14690071D01*
X5349643Y-14632929D01*
X5349643Y-14561500D01*
X5363928Y-14504357D01*
X5378214Y-14475786D01*
X5392500Y-14461500D01*
X5421071Y-14447214D01*
X5649643Y-14718643D02*
X5663928Y-14732929D01*
X5649643Y-14747214D01*
X5635357Y-14732929D01*
X5649643Y-14718643D01*
X5649643Y-14747214D01*
X5921071Y-14447214D02*
X5863928Y-14447214D01*
X5835357Y-14461500D01*
X5821071Y-14475786D01*
X5792500Y-14518643D01*
X5778214Y-14575786D01*
X5778214Y-14690071D01*
X5792500Y-14718643D01*
X5806786Y-14732929D01*
X5835357Y-14747214D01*
X5892500Y-14747214D01*
X5921071Y-14732929D01*
X5935357Y-14718643D01*
X5949643Y-14690071D01*
X5949643Y-14618643D01*
X5935357Y-14590071D01*
X5921071Y-14575786D01*
X5892500Y-14561500D01*
X5835357Y-14561500D01*
X5806786Y-14575786D01*
X5792500Y-14590071D01*
X5778214Y-14618643D01*
X6221071Y-14447214D02*
X6078214Y-14447214D01*
X6063928Y-14590071D01*
X6078214Y-14575786D01*
X6106786Y-14561500D01*
X6178214Y-14561500D01*
X6206786Y-14575786D01*
X6221071Y-14590071D01*
X6235357Y-14618643D01*
X6235357Y-14690071D01*
X6221071Y-14718643D01*
X6206786Y-14732929D01*
X6178214Y-14747214D01*
X6106786Y-14747214D01*
X6078214Y-14732929D01*
X6063928Y-14718643D01*
X6421071Y-14447214D02*
X6449643Y-14447214D01*
X6478214Y-14461500D01*
X6492500Y-14475786D01*
X6506786Y-14504357D01*
X6521071Y-14561500D01*
X6521071Y-14632929D01*
X6506786Y-14690071D01*
X6492500Y-14718643D01*
X6478214Y-14732929D01*
X6449643Y-14747214D01*
X6421071Y-14747214D01*
X6392500Y-14732929D01*
X6378214Y-14718643D01*
X6363928Y-14690071D01*
X6349643Y-14632929D01*
X6349643Y-14561500D01*
X6363928Y-14504357D01*
X6378214Y-14475786D01*
X6392500Y-14461500D01*
X6421071Y-14447214D01*
X6649643Y-14747214D02*
X6649643Y-14547214D01*
X6649643Y-14575786D02*
X6663928Y-14561500D01*
X6692500Y-14547214D01*
X6735357Y-14547214D01*
X6763928Y-14561500D01*
X6778214Y-14590071D01*
X6778214Y-14747214D01*
X6778214Y-14590071D02*
X6792500Y-14561500D01*
X6821071Y-14547214D01*
X6863928Y-14547214D01*
X6892500Y-14561500D01*
X6906786Y-14590071D01*
X6906786Y-14747214D01*
X7049643Y-14747214D02*
X7049643Y-14547214D01*
X7049643Y-14575786D02*
X7063928Y-14561500D01*
X7092500Y-14547214D01*
X7135357Y-14547214D01*
X7163928Y-14561500D01*
X7178214Y-14590071D01*
X7178214Y-14747214D01*
X7178214Y-14590071D02*
X7192500Y-14561500D01*
X7221071Y-14547214D01*
X7263928Y-14547214D01*
X7292500Y-14561500D01*
X7306786Y-14590071D01*
X7306786Y-14747214D01*
X7892500Y-14432929D02*
X7635357Y-14818643D01*
X8278214Y-14447214D02*
X8306786Y-14447214D01*
X8335357Y-14461500D01*
X8349643Y-14475786D01*
X8363928Y-14504357D01*
X8378214Y-14561500D01*
X8378214Y-14632929D01*
X8363928Y-14690071D01*
X8349643Y-14718643D01*
X8335357Y-14732929D01*
X8306786Y-14747214D01*
X8278214Y-14747214D01*
X8249643Y-14732929D01*
X8235357Y-14718643D01*
X8221071Y-14690071D01*
X8206786Y-14632929D01*
X8206786Y-14561500D01*
X8221071Y-14504357D01*
X8235357Y-14475786D01*
X8249643Y-14461500D01*
X8278214Y-14447214D01*
X8506786Y-14718643D02*
X8521071Y-14732929D01*
X8506786Y-14747214D01*
X8492500Y-14732929D01*
X8506786Y-14718643D01*
X8506786Y-14747214D01*
X8706786Y-14447214D02*
X8735357Y-14447214D01*
X8763928Y-14461500D01*
X8778214Y-14475786D01*
X8792500Y-14504357D01*
X8806786Y-14561500D01*
X8806786Y-14632929D01*
X8792500Y-14690071D01*
X8778214Y-14718643D01*
X8763928Y-14732929D01*
X8735357Y-14747214D01*
X8706786Y-14747214D01*
X8678214Y-14732929D01*
X8663928Y-14718643D01*
X8649643Y-14690071D01*
X8635357Y-14632929D01*
X8635357Y-14561500D01*
X8649643Y-14504357D01*
X8663928Y-14475786D01*
X8678214Y-14461500D01*
X8706786Y-14447214D01*
X8921071Y-14475786D02*
X8935357Y-14461500D01*
X8963928Y-14447214D01*
X9035357Y-14447214D01*
X9063928Y-14461500D01*
X9078214Y-14475786D01*
X9092500Y-14504357D01*
X9092500Y-14532929D01*
X9078214Y-14575786D01*
X8906786Y-14747214D01*
X9092500Y-14747214D01*
X9363928Y-14447214D02*
X9221071Y-14447214D01*
X9206786Y-14590071D01*
X9221071Y-14575786D01*
X9249643Y-14561500D01*
X9321071Y-14561500D01*
X9349643Y-14575786D01*
X9363928Y-14590071D01*
X9378214Y-14618643D01*
X9378214Y-14690071D01*
X9363928Y-14718643D01*
X9349643Y-14732929D01*
X9321071Y-14747214D01*
X9249643Y-14747214D01*
X9221071Y-14732929D01*
X9206786Y-14718643D01*
X9635357Y-14447214D02*
X9578214Y-14447214D01*
X9549643Y-14461500D01*
X9535357Y-14475786D01*
X9506786Y-14518643D01*
X9492500Y-14575786D01*
X9492500Y-14690071D01*
X9506786Y-14718643D01*
X9521071Y-14732929D01*
X9549643Y-14747214D01*
X9606786Y-14747214D01*
X9635357Y-14732929D01*
X9649643Y-14718643D01*
X9663928Y-14690071D01*
X9663928Y-14618643D01*
X9649643Y-14590071D01*
X9635357Y-14575786D01*
X9606786Y-14561500D01*
X9549643Y-14561500D01*
X9521071Y-14575786D01*
X9506786Y-14590071D01*
X9492500Y-14618643D01*
X9778214Y-14447214D02*
X9778214Y-14504357D01*
X9892500Y-14447214D02*
X9892500Y-14504357D01*
X10335357Y-14861500D02*
X10321071Y-14847214D01*
X10292500Y-14804357D01*
X10278214Y-14775786D01*
X10263928Y-14732929D01*
X10249643Y-14661500D01*
X10249643Y-14604357D01*
X10263928Y-14532929D01*
X10278214Y-14490071D01*
X10292500Y-14461500D01*
X10321071Y-14418643D01*
X10335357Y-14404357D01*
X10435357Y-14475786D02*
X10449643Y-14461500D01*
X10478214Y-14447214D01*
X10549643Y-14447214D01*
X10578214Y-14461500D01*
X10592500Y-14475786D01*
X10606786Y-14504357D01*
X10606786Y-14532929D01*
X10592500Y-14575786D01*
X10421071Y-14747214D01*
X10606786Y-14747214D01*
X10963928Y-14747214D02*
X10963928Y-14447214D01*
X11092500Y-14747214D02*
X11092500Y-14590071D01*
X11078214Y-14561500D01*
X11049643Y-14547214D01*
X11006786Y-14547214D01*
X10978214Y-14561500D01*
X10963928Y-14575786D01*
X11278214Y-14747214D02*
X11249643Y-14732929D01*
X11235357Y-14718643D01*
X11221071Y-14690071D01*
X11221071Y-14604357D01*
X11235357Y-14575786D01*
X11249643Y-14561500D01*
X11278214Y-14547214D01*
X11321071Y-14547214D01*
X11349643Y-14561500D01*
X11363928Y-14575786D01*
X11378214Y-14604357D01*
X11378214Y-14690071D01*
X11363928Y-14718643D01*
X11349643Y-14732929D01*
X11321071Y-14747214D01*
X11278214Y-14747214D01*
X11549643Y-14747214D02*
X11521071Y-14732929D01*
X11506786Y-14704357D01*
X11506786Y-14447214D01*
X11778214Y-14732929D02*
X11749643Y-14747214D01*
X11692500Y-14747214D01*
X11663928Y-14732929D01*
X11649643Y-14704357D01*
X11649643Y-14590071D01*
X11663928Y-14561500D01*
X11692500Y-14547214D01*
X11749643Y-14547214D01*
X11778214Y-14561500D01*
X11792500Y-14590071D01*
X11792500Y-14618643D01*
X11649643Y-14647214D01*
X11906786Y-14732929D02*
X11935357Y-14747214D01*
X11992500Y-14747214D01*
X12021071Y-14732929D01*
X12035357Y-14704357D01*
X12035357Y-14690071D01*
X12021071Y-14661500D01*
X11992500Y-14647214D01*
X11949643Y-14647214D01*
X11921071Y-14632929D01*
X11906786Y-14604357D01*
X11906786Y-14590071D01*
X11921071Y-14561500D01*
X11949643Y-14547214D01*
X11992500Y-14547214D01*
X12021071Y-14561500D01*
X12135357Y-14861500D02*
X12149643Y-14847214D01*
X12178214Y-14804357D01*
X12192500Y-14775786D01*
X12206786Y-14732929D01*
X12221071Y-14661500D01*
X12221071Y-14604357D01*
X12206786Y-14532929D01*
X12192500Y-14490071D01*
X12178214Y-14461500D01*
X12149643Y-14418643D01*
X12135357Y-14404357D01*
X12678214Y-14861500D02*
X12663928Y-14847214D01*
X12635357Y-14804357D01*
X12621071Y-14775786D01*
X12606786Y-14732929D01*
X12592500Y-14661500D01*
X12592500Y-14604357D01*
X12606786Y-14532929D01*
X12621071Y-14490071D01*
X12635357Y-14461500D01*
X12663928Y-14418643D01*
X12678214Y-14404357D01*
X12792500Y-14547214D02*
X12792500Y-14747214D01*
X12792500Y-14575786D02*
X12806786Y-14561500D01*
X12835357Y-14547214D01*
X12878214Y-14547214D01*
X12906786Y-14561500D01*
X12921071Y-14590071D01*
X12921071Y-14747214D01*
X13106786Y-14747214D02*
X13078214Y-14732929D01*
X13063928Y-14718643D01*
X13049643Y-14690071D01*
X13049643Y-14604357D01*
X13063928Y-14575786D01*
X13078214Y-14561500D01*
X13106786Y-14547214D01*
X13149643Y-14547214D01*
X13178214Y-14561500D01*
X13192500Y-14575786D01*
X13206786Y-14604357D01*
X13206786Y-14690071D01*
X13192500Y-14718643D01*
X13178214Y-14732929D01*
X13149643Y-14747214D01*
X13106786Y-14747214D01*
X13292500Y-14547214D02*
X13406786Y-14547214D01*
X13335357Y-14447214D02*
X13335357Y-14704357D01*
X13349643Y-14732929D01*
X13378214Y-14747214D01*
X13406786Y-14747214D01*
X13735357Y-14547214D02*
X13735357Y-14847214D01*
X13735357Y-14561500D02*
X13763928Y-14547214D01*
X13821071Y-14547214D01*
X13849643Y-14561500D01*
X13863928Y-14575786D01*
X13878214Y-14604357D01*
X13878214Y-14690071D01*
X13863928Y-14718643D01*
X13849643Y-14732929D01*
X13821071Y-14747214D01*
X13763928Y-14747214D01*
X13735357Y-14732929D01*
X14049643Y-14747214D02*
X14021071Y-14732929D01*
X14006786Y-14704357D01*
X14006786Y-14447214D01*
X14292500Y-14747214D02*
X14292500Y-14590071D01*
X14278214Y-14561500D01*
X14249643Y-14547214D01*
X14192500Y-14547214D01*
X14163928Y-14561500D01*
X14292500Y-14732929D02*
X14263928Y-14747214D01*
X14192500Y-14747214D01*
X14163928Y-14732929D01*
X14149643Y-14704357D01*
X14149643Y-14675786D01*
X14163928Y-14647214D01*
X14192500Y-14632929D01*
X14263928Y-14632929D01*
X14292500Y-14618643D01*
X14392500Y-14547214D02*
X14506786Y-14547214D01*
X14435357Y-14447214D02*
X14435357Y-14704357D01*
X14449643Y-14732929D01*
X14478214Y-14747214D01*
X14506786Y-14747214D01*
X14721071Y-14732929D02*
X14692500Y-14747214D01*
X14635357Y-14747214D01*
X14606786Y-14732929D01*
X14592500Y-14704357D01*
X14592500Y-14590071D01*
X14606786Y-14561500D01*
X14635357Y-14547214D01*
X14692500Y-14547214D01*
X14721071Y-14561500D01*
X14735357Y-14590071D01*
X14735357Y-14618643D01*
X14592500Y-14647214D01*
X14992500Y-14747214D02*
X14992500Y-14447214D01*
X14992500Y-14732929D02*
X14963928Y-14747214D01*
X14906786Y-14747214D01*
X14878214Y-14732929D01*
X14863928Y-14718643D01*
X14849643Y-14690071D01*
X14849643Y-14604357D01*
X14863928Y-14575786D01*
X14878214Y-14561500D01*
X14906786Y-14547214D01*
X14963928Y-14547214D01*
X14992500Y-14561500D01*
X15106786Y-14861500D02*
X15121071Y-14847214D01*
X15149643Y-14804357D01*
X15163928Y-14775786D01*
X15178214Y-14732929D01*
X15192500Y-14661500D01*
X15192500Y-14604357D01*
X15178214Y-14532929D01*
X15163928Y-14490071D01*
X15149643Y-14461500D01*
X15121071Y-14418643D01*
X15106786Y-14404357D01*
X4857500Y-14897500D02*
X5077500Y-15117500D01*
X5077500Y-14897500D02*
X4857500Y-15117500D01*
X5077500Y-15007500D02*
G75*
G03*
X5077500Y-15007500I-110000J0D01*
G01*
X5349643Y-14871786D02*
X5363928Y-14857500D01*
X5392500Y-14843214D01*
X5463928Y-14843214D01*
X5492500Y-14857500D01*
X5506786Y-14871786D01*
X5521071Y-14900357D01*
X5521071Y-14928929D01*
X5506786Y-14971786D01*
X5335357Y-15143214D01*
X5521071Y-15143214D01*
X5649643Y-15114643D02*
X5663928Y-15128929D01*
X5649643Y-15143214D01*
X5635357Y-15128929D01*
X5649643Y-15114643D01*
X5649643Y-15143214D01*
X5778214Y-14871786D02*
X5792500Y-14857500D01*
X5821071Y-14843214D01*
X5892500Y-14843214D01*
X5921071Y-14857500D01*
X5935357Y-14871786D01*
X5949643Y-14900357D01*
X5949643Y-14928929D01*
X5935357Y-14971786D01*
X5763928Y-15143214D01*
X5949643Y-15143214D01*
X6135357Y-14843214D02*
X6163928Y-14843214D01*
X6192500Y-14857500D01*
X6206786Y-14871786D01*
X6221071Y-14900357D01*
X6235357Y-14957500D01*
X6235357Y-15028929D01*
X6221071Y-15086071D01*
X6206786Y-15114643D01*
X6192500Y-15128929D01*
X6163928Y-15143214D01*
X6135357Y-15143214D01*
X6106786Y-15128929D01*
X6092500Y-15114643D01*
X6078214Y-15086071D01*
X6063928Y-15028929D01*
X6063928Y-14957500D01*
X6078214Y-14900357D01*
X6092500Y-14871786D01*
X6106786Y-14857500D01*
X6135357Y-14843214D01*
X6421071Y-14843214D02*
X6449643Y-14843214D01*
X6478214Y-14857500D01*
X6492500Y-14871786D01*
X6506786Y-14900357D01*
X6521071Y-14957500D01*
X6521071Y-15028929D01*
X6506786Y-15086071D01*
X6492500Y-15114643D01*
X6478214Y-15128929D01*
X6449643Y-15143214D01*
X6421071Y-15143214D01*
X6392500Y-15128929D01*
X6378214Y-15114643D01*
X6363928Y-15086071D01*
X6349643Y-15028929D01*
X6349643Y-14957500D01*
X6363928Y-14900357D01*
X6378214Y-14871786D01*
X6392500Y-14857500D01*
X6421071Y-14843214D01*
X6649643Y-15143214D02*
X6649643Y-14943214D01*
X6649643Y-14971786D02*
X6663928Y-14957500D01*
X6692500Y-14943214D01*
X6735357Y-14943214D01*
X6763928Y-14957500D01*
X6778214Y-14986071D01*
X6778214Y-15143214D01*
X6778214Y-14986071D02*
X6792500Y-14957500D01*
X6821071Y-14943214D01*
X6863928Y-14943214D01*
X6892500Y-14957500D01*
X6906786Y-14986071D01*
X6906786Y-15143214D01*
X7049643Y-15143214D02*
X7049643Y-14943214D01*
X7049643Y-14971786D02*
X7063928Y-14957500D01*
X7092500Y-14943214D01*
X7135357Y-14943214D01*
X7163928Y-14957500D01*
X7178214Y-14986071D01*
X7178214Y-15143214D01*
X7178214Y-14986071D02*
X7192500Y-14957500D01*
X7221071Y-14943214D01*
X7263928Y-14943214D01*
X7292500Y-14957500D01*
X7306786Y-14986071D01*
X7306786Y-15143214D01*
X7892500Y-14828929D02*
X7635357Y-15214643D01*
X8278214Y-14843214D02*
X8306786Y-14843214D01*
X8335357Y-14857500D01*
X8349643Y-14871786D01*
X8363928Y-14900357D01*
X8378214Y-14957500D01*
X8378214Y-15028929D01*
X8363928Y-15086071D01*
X8349643Y-15114643D01*
X8335357Y-15128929D01*
X8306786Y-15143214D01*
X8278214Y-15143214D01*
X8249643Y-15128929D01*
X8235357Y-15114643D01*
X8221071Y-15086071D01*
X8206786Y-15028929D01*
X8206786Y-14957500D01*
X8221071Y-14900357D01*
X8235357Y-14871786D01*
X8249643Y-14857500D01*
X8278214Y-14843214D01*
X8506786Y-15114643D02*
X8521071Y-15128929D01*
X8506786Y-15143214D01*
X8492500Y-15128929D01*
X8506786Y-15114643D01*
X8506786Y-15143214D01*
X8706786Y-14843214D02*
X8735357Y-14843214D01*
X8763928Y-14857500D01*
X8778214Y-14871786D01*
X8792500Y-14900357D01*
X8806786Y-14957500D01*
X8806786Y-15028929D01*
X8792500Y-15086071D01*
X8778214Y-15114643D01*
X8763928Y-15128929D01*
X8735357Y-15143214D01*
X8706786Y-15143214D01*
X8678214Y-15128929D01*
X8663928Y-15114643D01*
X8649643Y-15086071D01*
X8635357Y-15028929D01*
X8635357Y-14957500D01*
X8649643Y-14900357D01*
X8663928Y-14871786D01*
X8678214Y-14857500D01*
X8706786Y-14843214D01*
X8978214Y-14971786D02*
X8949643Y-14957500D01*
X8935357Y-14943214D01*
X8921071Y-14914643D01*
X8921071Y-14900357D01*
X8935357Y-14871786D01*
X8949643Y-14857500D01*
X8978214Y-14843214D01*
X9035357Y-14843214D01*
X9063928Y-14857500D01*
X9078214Y-14871786D01*
X9092500Y-14900357D01*
X9092500Y-14914643D01*
X9078214Y-14943214D01*
X9063928Y-14957500D01*
X9035357Y-14971786D01*
X8978214Y-14971786D01*
X8949643Y-14986071D01*
X8935357Y-15000357D01*
X8921071Y-15028929D01*
X8921071Y-15086071D01*
X8935357Y-15114643D01*
X8949643Y-15128929D01*
X8978214Y-15143214D01*
X9035357Y-15143214D01*
X9063928Y-15128929D01*
X9078214Y-15114643D01*
X9092500Y-15086071D01*
X9092500Y-15028929D01*
X9078214Y-15000357D01*
X9063928Y-14986071D01*
X9035357Y-14971786D01*
X9349643Y-14843214D02*
X9292500Y-14843214D01*
X9263928Y-14857500D01*
X9249643Y-14871786D01*
X9221071Y-14914643D01*
X9206786Y-14971786D01*
X9206786Y-15086071D01*
X9221071Y-15114643D01*
X9235357Y-15128929D01*
X9263928Y-15143214D01*
X9321071Y-15143214D01*
X9349643Y-15128929D01*
X9363928Y-15114643D01*
X9378214Y-15086071D01*
X9378214Y-15014643D01*
X9363928Y-14986071D01*
X9349643Y-14971786D01*
X9321071Y-14957500D01*
X9263928Y-14957500D01*
X9235357Y-14971786D01*
X9221071Y-14986071D01*
X9206786Y-15014643D01*
X9635357Y-14843214D02*
X9578214Y-14843214D01*
X9549643Y-14857500D01*
X9535357Y-14871786D01*
X9506786Y-14914643D01*
X9492500Y-14971786D01*
X9492500Y-15086071D01*
X9506786Y-15114643D01*
X9521071Y-15128929D01*
X9549643Y-15143214D01*
X9606786Y-15143214D01*
X9635357Y-15128929D01*
X9649643Y-15114643D01*
X9663928Y-15086071D01*
X9663928Y-15014643D01*
X9649643Y-14986071D01*
X9635357Y-14971786D01*
X9606786Y-14957500D01*
X9549643Y-14957500D01*
X9521071Y-14971786D01*
X9506786Y-14986071D01*
X9492500Y-15014643D01*
X9778214Y-14843214D02*
X9778214Y-14900357D01*
X9892500Y-14843214D02*
X9892500Y-14900357D01*
X10335357Y-15257500D02*
X10321071Y-15243214D01*
X10292500Y-15200357D01*
X10278214Y-15171786D01*
X10263928Y-15128929D01*
X10249643Y-15057500D01*
X10249643Y-15000357D01*
X10263928Y-14928929D01*
X10278214Y-14886071D01*
X10292500Y-14857500D01*
X10321071Y-14814643D01*
X10335357Y-14800357D01*
X10435357Y-14871786D02*
X10449643Y-14857500D01*
X10478214Y-14843214D01*
X10549643Y-14843214D01*
X10578214Y-14857500D01*
X10592500Y-14871786D01*
X10606786Y-14900357D01*
X10606786Y-14928929D01*
X10592500Y-14971786D01*
X10421071Y-15143214D01*
X10606786Y-15143214D01*
X10963928Y-15143214D02*
X10963928Y-14843214D01*
X11092500Y-15143214D02*
X11092500Y-14986071D01*
X11078214Y-14957500D01*
X11049643Y-14943214D01*
X11006786Y-14943214D01*
X10978214Y-14957500D01*
X10963928Y-14971786D01*
X11278214Y-15143214D02*
X11249643Y-15128929D01*
X11235357Y-15114643D01*
X11221071Y-15086071D01*
X11221071Y-15000357D01*
X11235357Y-14971786D01*
X11249643Y-14957500D01*
X11278214Y-14943214D01*
X11321071Y-14943214D01*
X11349643Y-14957500D01*
X11363928Y-14971786D01*
X11378214Y-15000357D01*
X11378214Y-15086071D01*
X11363928Y-15114643D01*
X11349643Y-15128929D01*
X11321071Y-15143214D01*
X11278214Y-15143214D01*
X11549643Y-15143214D02*
X11521071Y-15128929D01*
X11506786Y-15100357D01*
X11506786Y-14843214D01*
X11778214Y-15128929D02*
X11749643Y-15143214D01*
X11692500Y-15143214D01*
X11663928Y-15128929D01*
X11649643Y-15100357D01*
X11649643Y-14986071D01*
X11663928Y-14957500D01*
X11692500Y-14943214D01*
X11749643Y-14943214D01*
X11778214Y-14957500D01*
X11792500Y-14986071D01*
X11792500Y-15014643D01*
X11649643Y-15043214D01*
X11906786Y-15128929D02*
X11935357Y-15143214D01*
X11992500Y-15143214D01*
X12021071Y-15128929D01*
X12035357Y-15100357D01*
X12035357Y-15086071D01*
X12021071Y-15057500D01*
X11992500Y-15043214D01*
X11949643Y-15043214D01*
X11921071Y-15028929D01*
X11906786Y-15000357D01*
X11906786Y-14986071D01*
X11921071Y-14957500D01*
X11949643Y-14943214D01*
X11992500Y-14943214D01*
X12021071Y-14957500D01*
X12135357Y-15257500D02*
X12149643Y-15243214D01*
X12178214Y-15200357D01*
X12192500Y-15171786D01*
X12206786Y-15128929D01*
X12221071Y-15057500D01*
X12221071Y-15000357D01*
X12206786Y-14928929D01*
X12192500Y-14886071D01*
X12178214Y-14857500D01*
X12149643Y-14814643D01*
X12135357Y-14800357D01*
X12678214Y-15257500D02*
X12663928Y-15243214D01*
X12635357Y-15200357D01*
X12621071Y-15171786D01*
X12606786Y-15128929D01*
X12592500Y-15057500D01*
X12592500Y-15000357D01*
X12606786Y-14928929D01*
X12621071Y-14886071D01*
X12635357Y-14857500D01*
X12663928Y-14814643D01*
X12678214Y-14800357D01*
X12792500Y-14943214D02*
X12792500Y-15143214D01*
X12792500Y-14971786D02*
X12806786Y-14957500D01*
X12835357Y-14943214D01*
X12878214Y-14943214D01*
X12906786Y-14957500D01*
X12921071Y-14986071D01*
X12921071Y-15143214D01*
X13106786Y-15143214D02*
X13078214Y-15128929D01*
X13063928Y-15114643D01*
X13049643Y-15086071D01*
X13049643Y-15000357D01*
X13063928Y-14971786D01*
X13078214Y-14957500D01*
X13106786Y-14943214D01*
X13149643Y-14943214D01*
X13178214Y-14957500D01*
X13192500Y-14971786D01*
X13206786Y-15000357D01*
X13206786Y-15086071D01*
X13192500Y-15114643D01*
X13178214Y-15128929D01*
X13149643Y-15143214D01*
X13106786Y-15143214D01*
X13292500Y-14943214D02*
X13406786Y-14943214D01*
X13335357Y-14843214D02*
X13335357Y-15100357D01*
X13349643Y-15128929D01*
X13378214Y-15143214D01*
X13406786Y-15143214D01*
X13735357Y-14943214D02*
X13735357Y-15243214D01*
X13735357Y-14957500D02*
X13763928Y-14943214D01*
X13821071Y-14943214D01*
X13849643Y-14957500D01*
X13863928Y-14971786D01*
X13878214Y-15000357D01*
X13878214Y-15086071D01*
X13863928Y-15114643D01*
X13849643Y-15128929D01*
X13821071Y-15143214D01*
X13763928Y-15143214D01*
X13735357Y-15128929D01*
X14049643Y-15143214D02*
X14021071Y-15128929D01*
X14006786Y-15100357D01*
X14006786Y-14843214D01*
X14292500Y-15143214D02*
X14292500Y-14986071D01*
X14278214Y-14957500D01*
X14249643Y-14943214D01*
X14192500Y-14943214D01*
X14163928Y-14957500D01*
X14292500Y-15128929D02*
X14263928Y-15143214D01*
X14192500Y-15143214D01*
X14163928Y-15128929D01*
X14149643Y-15100357D01*
X14149643Y-15071786D01*
X14163928Y-15043214D01*
X14192500Y-15028929D01*
X14263928Y-15028929D01*
X14292500Y-15014643D01*
X14392500Y-14943214D02*
X14506786Y-14943214D01*
X14435357Y-14843214D02*
X14435357Y-15100357D01*
X14449643Y-15128929D01*
X14478214Y-15143214D01*
X14506786Y-15143214D01*
X14721071Y-15128929D02*
X14692500Y-15143214D01*
X14635357Y-15143214D01*
X14606786Y-15128929D01*
X14592500Y-15100357D01*
X14592500Y-14986071D01*
X14606786Y-14957500D01*
X14635357Y-14943214D01*
X14692500Y-14943214D01*
X14721071Y-14957500D01*
X14735357Y-14986071D01*
X14735357Y-15014643D01*
X14592500Y-15043214D01*
X14992500Y-15143214D02*
X14992500Y-14843214D01*
X14992500Y-15128929D02*
X14963928Y-15143214D01*
X14906786Y-15143214D01*
X14878214Y-15128929D01*
X14863928Y-15114643D01*
X14849643Y-15086071D01*
X14849643Y-15000357D01*
X14863928Y-14971786D01*
X14878214Y-14957500D01*
X14906786Y-14943214D01*
X14963928Y-14943214D01*
X14992500Y-14957500D01*
X15106786Y-15257500D02*
X15121071Y-15243214D01*
X15149643Y-15200357D01*
X15163928Y-15171786D01*
X15178214Y-15128929D01*
X15192500Y-15057500D01*
X15192500Y-15000357D01*
X15178214Y-14928929D01*
X15163928Y-14886071D01*
X15149643Y-14857500D01*
X15121071Y-14814643D01*
X15106786Y-14800357D01*
M02*
