G04 #@! TF.GenerationSoftware,KiCad,Pcbnew,5.1.10-88a1d61d58~88~ubuntu20.04.1*
G04 #@! TF.CreationDate,2021-05-29T16:43:34+02:00*
G04 #@! TF.ProjectId,wt32-eth01-programmer,77743332-2d65-4746-9830-312d70726f67,rev?*
G04 #@! TF.SameCoordinates,Original*
G04 #@! TF.FileFunction,Legend,Top*
G04 #@! TF.FilePolarity,Positive*
%FSLAX46Y46*%
G04 Gerber Fmt 4.6, Leading zero omitted, Abs format (unit mm)*
G04 Created by KiCad (PCBNEW 5.1.10-88a1d61d58~88~ubuntu20.04.1) date 2021-05-29 16:43:34*
%MOMM*%
%LPD*%
G01*
G04 APERTURE LIST*
%ADD10C,0.150000*%
%ADD11C,0.120000*%
%ADD12C,2.200000*%
%ADD13R,1.300000X1.550000*%
%ADD14R,1.200000X1.400000*%
%ADD15O,3.048000X1.524000*%
%ADD16C,2.032000*%
%ADD17R,2.000000X1.500000*%
%ADD18R,2.000000X3.800000*%
%ADD19R,0.800000X0.900000*%
%ADD20R,0.900000X0.800000*%
%ADD21R,0.600000X1.450000*%
%ADD22R,0.300000X1.450000*%
%ADD23O,1.000000X2.100000*%
%ADD24C,0.650000*%
%ADD25O,1.000000X1.600000*%
G04 APERTURE END LIST*
D10*
X70064380Y-59181904D02*
X70064380Y-58610476D01*
X71064380Y-58896190D02*
X70064380Y-58896190D01*
X70064380Y-58372380D02*
X71064380Y-57705714D01*
X70064380Y-57705714D02*
X71064380Y-58372380D01*
X71064380Y-55411666D02*
X70588190Y-55745000D01*
X71064380Y-55983095D02*
X70064380Y-55983095D01*
X70064380Y-55602142D01*
X70112000Y-55506904D01*
X70159619Y-55459285D01*
X70254857Y-55411666D01*
X70397714Y-55411666D01*
X70492952Y-55459285D01*
X70540571Y-55506904D01*
X70588190Y-55602142D01*
X70588190Y-55983095D01*
X70064380Y-55078333D02*
X71064380Y-54411666D01*
X70064380Y-54411666D02*
X71064380Y-55078333D01*
X71064380Y-62801333D02*
X70064380Y-62801333D01*
X70064380Y-62420380D01*
X70112000Y-62325142D01*
X70159619Y-62277523D01*
X70254857Y-62229904D01*
X70397714Y-62229904D01*
X70492952Y-62277523D01*
X70540571Y-62325142D01*
X70588190Y-62420380D01*
X70588190Y-62801333D01*
X70064380Y-61896571D02*
X71064380Y-61658476D01*
X70350095Y-61468000D01*
X71064380Y-61277523D01*
X70064380Y-61039428D01*
X71064380Y-60087047D02*
X70588190Y-60420380D01*
X71064380Y-60658476D02*
X70064380Y-60658476D01*
X70064380Y-60277523D01*
X70112000Y-60182285D01*
X70159619Y-60134666D01*
X70254857Y-60087047D01*
X70397714Y-60087047D01*
X70492952Y-60134666D01*
X70540571Y-60182285D01*
X70588190Y-60277523D01*
X70588190Y-60658476D01*
D11*
X80700000Y-59745000D02*
X80670000Y-59745000D01*
X74240000Y-59745000D02*
X74270000Y-59745000D01*
X74240000Y-53285000D02*
X74270000Y-53285000D01*
X80670000Y-53285000D02*
X80700000Y-53285000D01*
X78770000Y-59745000D02*
X76170000Y-59745000D01*
X80700000Y-53285000D02*
X80700000Y-59745000D01*
X78770000Y-53285000D02*
X76170000Y-53285000D01*
X74240000Y-53285000D02*
X74240000Y-59745000D01*
X70652000Y-72020000D02*
X73952000Y-72020000D01*
X73952000Y-72020000D02*
X73952000Y-68020000D01*
X53975000Y-66040000D02*
X53975000Y-118745000D01*
X55245000Y-120015000D02*
X78105000Y-120015000D01*
X79375000Y-118745000D02*
X79375000Y-66040000D01*
X78105000Y-64770000D02*
X55245000Y-64770000D01*
X58420000Y-125095000D02*
X58420000Y-104140000D01*
X58420000Y-104140000D02*
X74930000Y-104140000D01*
X74930000Y-104140000D02*
X74930000Y-125095000D01*
X74930000Y-125095000D02*
X58420000Y-125095000D01*
X78105000Y-64770000D02*
G75*
G02*
X79375000Y-66040000I0J-1270000D01*
G01*
X53975000Y-66040000D02*
G75*
G02*
X55245000Y-64770000I1270000J0D01*
G01*
X79375000Y-118745000D02*
G75*
G02*
X78105000Y-120015000I-1270000J0D01*
G01*
X55245000Y-120015000D02*
G75*
G02*
X53975000Y-118745000I0J1270000D01*
G01*
X70104000Y-73172000D02*
X68154000Y-73172000D01*
X70104000Y-73172000D02*
X72054000Y-73172000D01*
X70104000Y-83292000D02*
X68154000Y-83292000D01*
X70104000Y-83292000D02*
X73554000Y-83292000D01*
X55494000Y-56026000D02*
X55494000Y-57286000D01*
X55494000Y-62846000D02*
X55494000Y-61586000D01*
X59254000Y-56026000D02*
X55494000Y-56026000D01*
X61504000Y-62846000D02*
X55494000Y-62846000D01*
X65404000Y-78588359D02*
X65404000Y-78895641D01*
X64644000Y-78588359D02*
X64644000Y-78895641D01*
X64644000Y-81431641D02*
X64644000Y-81124359D01*
X65404000Y-81431641D02*
X65404000Y-81124359D01*
X64667641Y-63880000D02*
X64360359Y-63880000D01*
X64667641Y-63120000D02*
X64360359Y-63120000D01*
X61115641Y-74040000D02*
X60808359Y-74040000D01*
X61115641Y-73280000D02*
X60808359Y-73280000D01*
X64364359Y-61215000D02*
X64671641Y-61215000D01*
X64364359Y-61975000D02*
X64671641Y-61975000D01*
X64364359Y-58040000D02*
X64671641Y-58040000D01*
X64364359Y-58800000D02*
X64671641Y-58800000D01*
X64364359Y-54865000D02*
X64671641Y-54865000D01*
X64364359Y-55625000D02*
X64671641Y-55625000D01*
X63490000Y-75964000D02*
X62560000Y-75964000D01*
X60330000Y-75964000D02*
X61260000Y-75964000D01*
X60330000Y-75964000D02*
X60330000Y-78124000D01*
X63490000Y-75964000D02*
X63490000Y-77424000D01*
X61232000Y-79700000D02*
X61232000Y-80630000D01*
X61232000Y-82860000D02*
X61232000Y-81930000D01*
X61232000Y-82860000D02*
X63392000Y-82860000D01*
X61232000Y-79700000D02*
X62692000Y-79700000D01*
X70740000Y-45625000D02*
X70740000Y-43725000D01*
X70740000Y-49525000D02*
X70740000Y-47525000D01*
X61340000Y-45625000D02*
X61340000Y-43725000D01*
X61340000Y-49525000D02*
X61340000Y-47525000D01*
X70740000Y-43725000D02*
X61340000Y-43725000D01*
X66535500Y-62330000D02*
X68820500Y-62330000D01*
X68820500Y-62330000D02*
X68820500Y-60860000D01*
X68820500Y-60860000D02*
X66535500Y-60860000D01*
X66535500Y-59155000D02*
X68820500Y-59155000D01*
X68820500Y-59155000D02*
X68820500Y-57685000D01*
X68820500Y-57685000D02*
X66535500Y-57685000D01*
X66535500Y-55980000D02*
X68820500Y-55980000D01*
X68820500Y-55980000D02*
X68820500Y-54510000D01*
X68820500Y-54510000D02*
X66535500Y-54510000D01*
X55980420Y-68578000D02*
X56261580Y-68578000D01*
X55980420Y-69598000D02*
X56261580Y-69598000D01*
X58659500Y-64022000D02*
X54449500Y-64022000D01*
X54449500Y-64022000D02*
X54449500Y-67042000D01*
X54449500Y-67042000D02*
X58659500Y-67042000D01*
X57277580Y-54866000D02*
X56996420Y-54866000D01*
X57277580Y-53846000D02*
X56996420Y-53846000D01*
D10*
X52006666Y-44242380D02*
X51673333Y-43766190D01*
X51435238Y-44242380D02*
X51435238Y-43242380D01*
X51816190Y-43242380D01*
X51911428Y-43290000D01*
X51959047Y-43337619D01*
X52006666Y-43432857D01*
X52006666Y-43575714D01*
X51959047Y-43670952D01*
X51911428Y-43718571D01*
X51816190Y-43766190D01*
X51435238Y-43766190D01*
X52435238Y-43718571D02*
X52768571Y-43718571D01*
X52911428Y-44242380D02*
X52435238Y-44242380D01*
X52435238Y-43242380D01*
X52911428Y-43242380D01*
X53673333Y-43718571D02*
X53340000Y-43718571D01*
X53340000Y-44242380D02*
X53340000Y-43242380D01*
X53816190Y-43242380D01*
X54340000Y-43242380D02*
X54340000Y-43480476D01*
X54101904Y-43385238D02*
X54340000Y-43480476D01*
X54578095Y-43385238D01*
X54197142Y-43670952D02*
X54340000Y-43480476D01*
X54482857Y-43670952D01*
X55101904Y-43242380D02*
X55101904Y-43480476D01*
X54863809Y-43385238D02*
X55101904Y-43480476D01*
X55340000Y-43385238D01*
X54959047Y-43670952D02*
X55101904Y-43480476D01*
X55244761Y-43670952D01*
X78676666Y-44242380D02*
X78343333Y-43766190D01*
X78105238Y-44242380D02*
X78105238Y-43242380D01*
X78486190Y-43242380D01*
X78581428Y-43290000D01*
X78629047Y-43337619D01*
X78676666Y-43432857D01*
X78676666Y-43575714D01*
X78629047Y-43670952D01*
X78581428Y-43718571D01*
X78486190Y-43766190D01*
X78105238Y-43766190D01*
X79105238Y-43718571D02*
X79438571Y-43718571D01*
X79581428Y-44242380D02*
X79105238Y-44242380D01*
X79105238Y-43242380D01*
X79581428Y-43242380D01*
X80343333Y-43718571D02*
X80010000Y-43718571D01*
X80010000Y-44242380D02*
X80010000Y-43242380D01*
X80486190Y-43242380D01*
X81010000Y-43242380D02*
X81010000Y-43480476D01*
X80771904Y-43385238D02*
X81010000Y-43480476D01*
X81248095Y-43385238D01*
X80867142Y-43670952D02*
X81010000Y-43480476D01*
X81152857Y-43670952D01*
X81771904Y-43242380D02*
X81771904Y-43480476D01*
X81533809Y-43385238D02*
X81771904Y-43480476D01*
X82010000Y-43385238D01*
X81629047Y-43670952D02*
X81771904Y-43480476D01*
X81914761Y-43670952D01*
X81924761Y-57848333D02*
X81972380Y-57705476D01*
X81972380Y-57467380D01*
X81924761Y-57372142D01*
X81877142Y-57324523D01*
X81781904Y-57276904D01*
X81686666Y-57276904D01*
X81591428Y-57324523D01*
X81543809Y-57372142D01*
X81496190Y-57467380D01*
X81448571Y-57657857D01*
X81400952Y-57753095D01*
X81353333Y-57800714D01*
X81258095Y-57848333D01*
X81162857Y-57848333D01*
X81067619Y-57800714D01*
X81020000Y-57753095D01*
X80972380Y-57657857D01*
X80972380Y-57419761D01*
X81020000Y-57276904D01*
X80972380Y-56943571D02*
X81972380Y-56705476D01*
X81258095Y-56515000D01*
X81972380Y-56324523D01*
X80972380Y-56086428D01*
X81972380Y-55181666D02*
X81972380Y-55753095D01*
X81972380Y-55467380D02*
X80972380Y-55467380D01*
X81115238Y-55562619D01*
X81210476Y-55657857D01*
X81258095Y-55753095D01*
X69828190Y-70496190D02*
X70304380Y-70496190D01*
X69304380Y-70829523D02*
X69828190Y-70496190D01*
X69304380Y-70162857D01*
X70304380Y-69305714D02*
X70304380Y-69877142D01*
X70304380Y-69591428D02*
X69304380Y-69591428D01*
X69447238Y-69686666D01*
X69542476Y-69781904D01*
X69590095Y-69877142D01*
X57023095Y-62952380D02*
X57023095Y-63761904D01*
X57070714Y-63857142D01*
X57118333Y-63904761D01*
X57213571Y-63952380D01*
X57404047Y-63952380D01*
X57499285Y-63904761D01*
X57546904Y-63857142D01*
X57594523Y-63761904D01*
X57594523Y-62952380D01*
X57975476Y-62952380D02*
X58594523Y-62952380D01*
X58261190Y-63333333D01*
X58404047Y-63333333D01*
X58499285Y-63380952D01*
X58546904Y-63428571D01*
X58594523Y-63523809D01*
X58594523Y-63761904D01*
X58546904Y-63857142D01*
X58499285Y-63904761D01*
X58404047Y-63952380D01*
X58118333Y-63952380D01*
X58023095Y-63904761D01*
X57975476Y-63857142D01*
X69342095Y-83584380D02*
X69342095Y-84393904D01*
X69389714Y-84489142D01*
X69437333Y-84536761D01*
X69532571Y-84584380D01*
X69723047Y-84584380D01*
X69818285Y-84536761D01*
X69865904Y-84489142D01*
X69913523Y-84393904D01*
X69913523Y-83584380D01*
X70342095Y-83679619D02*
X70389714Y-83632000D01*
X70484952Y-83584380D01*
X70723047Y-83584380D01*
X70818285Y-83632000D01*
X70865904Y-83679619D01*
X70913523Y-83774857D01*
X70913523Y-83870095D01*
X70865904Y-84012952D01*
X70294476Y-84584380D01*
X70913523Y-84584380D01*
X56642095Y-63388380D02*
X56642095Y-64197904D01*
X56689714Y-64293142D01*
X56737333Y-64340761D01*
X56832571Y-64388380D01*
X57023047Y-64388380D01*
X57118285Y-64340761D01*
X57165904Y-64293142D01*
X57213523Y-64197904D01*
X57213523Y-63388380D01*
X58213523Y-64388380D02*
X57642095Y-64388380D01*
X57927809Y-64388380D02*
X57927809Y-63388380D01*
X57832571Y-63531238D01*
X57737333Y-63626476D01*
X57642095Y-63674095D01*
X66646380Y-78908666D02*
X66170190Y-79242000D01*
X66646380Y-79480095D02*
X65646380Y-79480095D01*
X65646380Y-79099142D01*
X65694000Y-79003904D01*
X65741619Y-78956285D01*
X65836857Y-78908666D01*
X65979714Y-78908666D01*
X66074952Y-78956285D01*
X66122571Y-79003904D01*
X66170190Y-79099142D01*
X66170190Y-79480095D01*
X65646380Y-78575333D02*
X65646380Y-77908666D01*
X66646380Y-78337238D01*
X64306380Y-81444666D02*
X63830190Y-81778000D01*
X64306380Y-82016095D02*
X63306380Y-82016095D01*
X63306380Y-81635142D01*
X63354000Y-81539904D01*
X63401619Y-81492285D01*
X63496857Y-81444666D01*
X63639714Y-81444666D01*
X63734952Y-81492285D01*
X63782571Y-81539904D01*
X63830190Y-81635142D01*
X63830190Y-82016095D01*
X63306380Y-80587523D02*
X63306380Y-80778000D01*
X63354000Y-80873238D01*
X63401619Y-80920857D01*
X63544476Y-81016095D01*
X63734952Y-81063714D01*
X64115904Y-81063714D01*
X64211142Y-81016095D01*
X64258761Y-80968476D01*
X64306380Y-80873238D01*
X64306380Y-80682761D01*
X64258761Y-80587523D01*
X64211142Y-80539904D01*
X64115904Y-80492285D01*
X63877809Y-80492285D01*
X63782571Y-80539904D01*
X63734952Y-80587523D01*
X63687333Y-80682761D01*
X63687333Y-80873238D01*
X63734952Y-80968476D01*
X63782571Y-81016095D01*
X63877809Y-81063714D01*
X64347333Y-65122380D02*
X64014000Y-64646190D01*
X63775904Y-65122380D02*
X63775904Y-64122380D01*
X64156857Y-64122380D01*
X64252095Y-64170000D01*
X64299714Y-64217619D01*
X64347333Y-64312857D01*
X64347333Y-64455714D01*
X64299714Y-64550952D01*
X64252095Y-64598571D01*
X64156857Y-64646190D01*
X63775904Y-64646190D01*
X65252095Y-64122380D02*
X64775904Y-64122380D01*
X64728285Y-64598571D01*
X64775904Y-64550952D01*
X64871142Y-64503333D01*
X65109238Y-64503333D01*
X65204476Y-64550952D01*
X65252095Y-64598571D01*
X65299714Y-64693809D01*
X65299714Y-64931904D01*
X65252095Y-65027142D01*
X65204476Y-65074761D01*
X65109238Y-65122380D01*
X64871142Y-65122380D01*
X64775904Y-65074761D01*
X64728285Y-65027142D01*
X60795333Y-75282380D02*
X60462000Y-74806190D01*
X60223904Y-75282380D02*
X60223904Y-74282380D01*
X60604857Y-74282380D01*
X60700095Y-74330000D01*
X60747714Y-74377619D01*
X60795333Y-74472857D01*
X60795333Y-74615714D01*
X60747714Y-74710952D01*
X60700095Y-74758571D01*
X60604857Y-74806190D01*
X60223904Y-74806190D01*
X61652476Y-74615714D02*
X61652476Y-75282380D01*
X61414380Y-74234761D02*
X61176285Y-74949047D01*
X61795333Y-74949047D01*
X64351333Y-60877380D02*
X64018000Y-60401190D01*
X63779904Y-60877380D02*
X63779904Y-59877380D01*
X64160857Y-59877380D01*
X64256095Y-59925000D01*
X64303714Y-59972619D01*
X64351333Y-60067857D01*
X64351333Y-60210714D01*
X64303714Y-60305952D01*
X64256095Y-60353571D01*
X64160857Y-60401190D01*
X63779904Y-60401190D01*
X64684666Y-59877380D02*
X65303714Y-59877380D01*
X64970380Y-60258333D01*
X65113238Y-60258333D01*
X65208476Y-60305952D01*
X65256095Y-60353571D01*
X65303714Y-60448809D01*
X65303714Y-60686904D01*
X65256095Y-60782142D01*
X65208476Y-60829761D01*
X65113238Y-60877380D01*
X64827523Y-60877380D01*
X64732285Y-60829761D01*
X64684666Y-60782142D01*
X64351333Y-57702380D02*
X64018000Y-57226190D01*
X63779904Y-57702380D02*
X63779904Y-56702380D01*
X64160857Y-56702380D01*
X64256095Y-56750000D01*
X64303714Y-56797619D01*
X64351333Y-56892857D01*
X64351333Y-57035714D01*
X64303714Y-57130952D01*
X64256095Y-57178571D01*
X64160857Y-57226190D01*
X63779904Y-57226190D01*
X64732285Y-56797619D02*
X64779904Y-56750000D01*
X64875142Y-56702380D01*
X65113238Y-56702380D01*
X65208476Y-56750000D01*
X65256095Y-56797619D01*
X65303714Y-56892857D01*
X65303714Y-56988095D01*
X65256095Y-57130952D01*
X64684666Y-57702380D01*
X65303714Y-57702380D01*
X64351333Y-54527380D02*
X64018000Y-54051190D01*
X63779904Y-54527380D02*
X63779904Y-53527380D01*
X64160857Y-53527380D01*
X64256095Y-53575000D01*
X64303714Y-53622619D01*
X64351333Y-53717857D01*
X64351333Y-53860714D01*
X64303714Y-53955952D01*
X64256095Y-54003571D01*
X64160857Y-54051190D01*
X63779904Y-54051190D01*
X65303714Y-54527380D02*
X64732285Y-54527380D01*
X65018000Y-54527380D02*
X65018000Y-53527380D01*
X64922761Y-53670238D01*
X64827523Y-53765476D01*
X64732285Y-53813095D01*
X59957619Y-76819238D02*
X59910000Y-76914476D01*
X59814761Y-77009714D01*
X59671904Y-77152571D01*
X59624285Y-77247809D01*
X59624285Y-77343047D01*
X59862380Y-77295428D02*
X59814761Y-77390666D01*
X59719523Y-77485904D01*
X59529047Y-77533523D01*
X59195714Y-77533523D01*
X59005238Y-77485904D01*
X58910000Y-77390666D01*
X58862380Y-77295428D01*
X58862380Y-77104952D01*
X58910000Y-77009714D01*
X59005238Y-76914476D01*
X59195714Y-76866857D01*
X59529047Y-76866857D01*
X59719523Y-76914476D01*
X59814761Y-77009714D01*
X59862380Y-77104952D01*
X59862380Y-77295428D01*
X58957619Y-76485904D02*
X58910000Y-76438285D01*
X58862380Y-76343047D01*
X58862380Y-76104952D01*
X58910000Y-76009714D01*
X58957619Y-75962095D01*
X59052857Y-75914476D01*
X59148095Y-75914476D01*
X59290952Y-75962095D01*
X59862380Y-76533523D01*
X59862380Y-75914476D01*
X61896761Y-84327619D02*
X61801523Y-84280000D01*
X61706285Y-84184761D01*
X61563428Y-84041904D01*
X61468190Y-83994285D01*
X61372952Y-83994285D01*
X61420571Y-84232380D02*
X61325333Y-84184761D01*
X61230095Y-84089523D01*
X61182476Y-83899047D01*
X61182476Y-83565714D01*
X61230095Y-83375238D01*
X61325333Y-83280000D01*
X61420571Y-83232380D01*
X61611047Y-83232380D01*
X61706285Y-83280000D01*
X61801523Y-83375238D01*
X61849142Y-83565714D01*
X61849142Y-83899047D01*
X61801523Y-84089523D01*
X61706285Y-84184761D01*
X61611047Y-84232380D01*
X61420571Y-84232380D01*
X62801523Y-84232380D02*
X62230095Y-84232380D01*
X62515809Y-84232380D02*
X62515809Y-83232380D01*
X62420571Y-83375238D01*
X62325333Y-83470476D01*
X62230095Y-83518095D01*
X65706666Y-52722380D02*
X65706666Y-53436666D01*
X65659047Y-53579523D01*
X65563809Y-53674761D01*
X65420952Y-53722380D01*
X65325714Y-53722380D01*
X66706666Y-53722380D02*
X66135238Y-53722380D01*
X66420952Y-53722380D02*
X66420952Y-52722380D01*
X66325714Y-52865238D01*
X66230476Y-52960476D01*
X66135238Y-53008095D01*
X66597404Y-63477380D02*
X66597404Y-62477380D01*
X66835500Y-62477380D01*
X66978357Y-62525000D01*
X67073595Y-62620238D01*
X67121214Y-62715476D01*
X67168833Y-62905952D01*
X67168833Y-63048809D01*
X67121214Y-63239285D01*
X67073595Y-63334523D01*
X66978357Y-63429761D01*
X66835500Y-63477380D01*
X66597404Y-63477380D01*
X67502166Y-62477380D02*
X68121214Y-62477380D01*
X67787880Y-62858333D01*
X67930738Y-62858333D01*
X68025976Y-62905952D01*
X68073595Y-62953571D01*
X68121214Y-63048809D01*
X68121214Y-63286904D01*
X68073595Y-63382142D01*
X68025976Y-63429761D01*
X67930738Y-63477380D01*
X67645023Y-63477380D01*
X67549785Y-63429761D01*
X67502166Y-63382142D01*
X66597404Y-60302380D02*
X66597404Y-59302380D01*
X66835500Y-59302380D01*
X66978357Y-59350000D01*
X67073595Y-59445238D01*
X67121214Y-59540476D01*
X67168833Y-59730952D01*
X67168833Y-59873809D01*
X67121214Y-60064285D01*
X67073595Y-60159523D01*
X66978357Y-60254761D01*
X66835500Y-60302380D01*
X66597404Y-60302380D01*
X67549785Y-59397619D02*
X67597404Y-59350000D01*
X67692642Y-59302380D01*
X67930738Y-59302380D01*
X68025976Y-59350000D01*
X68073595Y-59397619D01*
X68121214Y-59492857D01*
X68121214Y-59588095D01*
X68073595Y-59730952D01*
X67502166Y-60302380D01*
X68121214Y-60302380D01*
X66597404Y-57127380D02*
X66597404Y-56127380D01*
X66835500Y-56127380D01*
X66978357Y-56175000D01*
X67073595Y-56270238D01*
X67121214Y-56365476D01*
X67168833Y-56555952D01*
X67168833Y-56698809D01*
X67121214Y-56889285D01*
X67073595Y-56984523D01*
X66978357Y-57079761D01*
X66835500Y-57127380D01*
X66597404Y-57127380D01*
X68121214Y-57127380D02*
X67549785Y-57127380D01*
X67835500Y-57127380D02*
X67835500Y-56127380D01*
X67740261Y-56270238D01*
X67645023Y-56365476D01*
X67549785Y-56413095D01*
X55954333Y-68015142D02*
X55906714Y-68062761D01*
X55763857Y-68110380D01*
X55668619Y-68110380D01*
X55525761Y-68062761D01*
X55430523Y-67967523D01*
X55382904Y-67872285D01*
X55335285Y-67681809D01*
X55335285Y-67538952D01*
X55382904Y-67348476D01*
X55430523Y-67253238D01*
X55525761Y-67158000D01*
X55668619Y-67110380D01*
X55763857Y-67110380D01*
X55906714Y-67158000D01*
X55954333Y-67205619D01*
X56287666Y-67110380D02*
X56906714Y-67110380D01*
X56573380Y-67491333D01*
X56716238Y-67491333D01*
X56811476Y-67538952D01*
X56859095Y-67586571D01*
X56906714Y-67681809D01*
X56906714Y-67919904D01*
X56859095Y-68015142D01*
X56811476Y-68062761D01*
X56716238Y-68110380D01*
X56430523Y-68110380D01*
X56335285Y-68062761D01*
X56287666Y-68015142D01*
X56742833Y-63539142D02*
X56695214Y-63586761D01*
X56552357Y-63634380D01*
X56457119Y-63634380D01*
X56314261Y-63586761D01*
X56219023Y-63491523D01*
X56171404Y-63396285D01*
X56123785Y-63205809D01*
X56123785Y-63062952D01*
X56171404Y-62872476D01*
X56219023Y-62777238D01*
X56314261Y-62682000D01*
X56457119Y-62634380D01*
X56552357Y-62634380D01*
X56695214Y-62682000D01*
X56742833Y-62729619D01*
X57123785Y-62729619D02*
X57171404Y-62682000D01*
X57266642Y-62634380D01*
X57504738Y-62634380D01*
X57599976Y-62682000D01*
X57647595Y-62729619D01*
X57695214Y-62824857D01*
X57695214Y-62920095D01*
X57647595Y-63062952D01*
X57076166Y-63634380D01*
X57695214Y-63634380D01*
X56970333Y-56143142D02*
X56922714Y-56190761D01*
X56779857Y-56238380D01*
X56684619Y-56238380D01*
X56541761Y-56190761D01*
X56446523Y-56095523D01*
X56398904Y-56000285D01*
X56351285Y-55809809D01*
X56351285Y-55666952D01*
X56398904Y-55476476D01*
X56446523Y-55381238D01*
X56541761Y-55286000D01*
X56684619Y-55238380D01*
X56779857Y-55238380D01*
X56922714Y-55286000D01*
X56970333Y-55333619D01*
X57922714Y-56238380D02*
X57351285Y-56238380D01*
X57637000Y-56238380D02*
X57637000Y-55238380D01*
X57541761Y-55381238D01*
X57446523Y-55476476D01*
X57351285Y-55524095D01*
%LPC*%
D12*
X53340000Y-46990000D03*
X80010000Y-46990000D03*
D13*
X75220000Y-60490000D03*
X79720000Y-60490000D03*
X79720000Y-52540000D03*
X75220000Y-52540000D03*
D14*
X71452000Y-71120000D03*
X71452000Y-68920000D03*
X73152000Y-68920000D03*
X73152000Y-71120000D03*
D15*
X78105000Y-104140000D03*
X78105000Y-73660000D03*
X78105000Y-76200000D03*
X78105000Y-78740000D03*
X78105000Y-81280000D03*
X78105000Y-83820000D03*
X78105000Y-86360000D03*
X78105000Y-88900000D03*
X78105000Y-91440000D03*
X78105000Y-93980000D03*
X78105000Y-96520000D03*
X78105000Y-99060000D03*
X78105000Y-101600000D03*
X55245000Y-104140000D03*
X55245000Y-101600000D03*
X55245000Y-99060000D03*
X55245000Y-96520000D03*
X55245000Y-93980000D03*
X55245000Y-91440000D03*
X55245000Y-88900000D03*
X55245000Y-86360000D03*
X55245000Y-83820000D03*
X55245000Y-81280000D03*
X55245000Y-78740000D03*
X55245000Y-76200000D03*
X55245000Y-73660000D03*
D16*
X78105000Y-118745000D03*
X55245000Y-118745000D03*
G36*
G01*
X68604000Y-82527000D02*
X68604000Y-82827000D01*
G75*
G02*
X68454000Y-82977000I-150000J0D01*
G01*
X66804000Y-82977000D01*
G75*
G02*
X66654000Y-82827000I0J150000D01*
G01*
X66654000Y-82527000D01*
G75*
G02*
X66804000Y-82377000I150000J0D01*
G01*
X68454000Y-82377000D01*
G75*
G02*
X68604000Y-82527000I0J-150000D01*
G01*
G37*
G36*
G01*
X68604000Y-81257000D02*
X68604000Y-81557000D01*
G75*
G02*
X68454000Y-81707000I-150000J0D01*
G01*
X66804000Y-81707000D01*
G75*
G02*
X66654000Y-81557000I0J150000D01*
G01*
X66654000Y-81257000D01*
G75*
G02*
X66804000Y-81107000I150000J0D01*
G01*
X68454000Y-81107000D01*
G75*
G02*
X68604000Y-81257000I0J-150000D01*
G01*
G37*
G36*
G01*
X68604000Y-79987000D02*
X68604000Y-80287000D01*
G75*
G02*
X68454000Y-80437000I-150000J0D01*
G01*
X66804000Y-80437000D01*
G75*
G02*
X66654000Y-80287000I0J150000D01*
G01*
X66654000Y-79987000D01*
G75*
G02*
X66804000Y-79837000I150000J0D01*
G01*
X68454000Y-79837000D01*
G75*
G02*
X68604000Y-79987000I0J-150000D01*
G01*
G37*
G36*
G01*
X68604000Y-78717000D02*
X68604000Y-79017000D01*
G75*
G02*
X68454000Y-79167000I-150000J0D01*
G01*
X66804000Y-79167000D01*
G75*
G02*
X66654000Y-79017000I0J150000D01*
G01*
X66654000Y-78717000D01*
G75*
G02*
X66804000Y-78567000I150000J0D01*
G01*
X68454000Y-78567000D01*
G75*
G02*
X68604000Y-78717000I0J-150000D01*
G01*
G37*
G36*
G01*
X68604000Y-77447000D02*
X68604000Y-77747000D01*
G75*
G02*
X68454000Y-77897000I-150000J0D01*
G01*
X66804000Y-77897000D01*
G75*
G02*
X66654000Y-77747000I0J150000D01*
G01*
X66654000Y-77447000D01*
G75*
G02*
X66804000Y-77297000I150000J0D01*
G01*
X68454000Y-77297000D01*
G75*
G02*
X68604000Y-77447000I0J-150000D01*
G01*
G37*
G36*
G01*
X68604000Y-76177000D02*
X68604000Y-76477000D01*
G75*
G02*
X68454000Y-76627000I-150000J0D01*
G01*
X66804000Y-76627000D01*
G75*
G02*
X66654000Y-76477000I0J150000D01*
G01*
X66654000Y-76177000D01*
G75*
G02*
X66804000Y-76027000I150000J0D01*
G01*
X68454000Y-76027000D01*
G75*
G02*
X68604000Y-76177000I0J-150000D01*
G01*
G37*
G36*
G01*
X68604000Y-74907000D02*
X68604000Y-75207000D01*
G75*
G02*
X68454000Y-75357000I-150000J0D01*
G01*
X66804000Y-75357000D01*
G75*
G02*
X66654000Y-75207000I0J150000D01*
G01*
X66654000Y-74907000D01*
G75*
G02*
X66804000Y-74757000I150000J0D01*
G01*
X68454000Y-74757000D01*
G75*
G02*
X68604000Y-74907000I0J-150000D01*
G01*
G37*
G36*
G01*
X68604000Y-73637000D02*
X68604000Y-73937000D01*
G75*
G02*
X68454000Y-74087000I-150000J0D01*
G01*
X66804000Y-74087000D01*
G75*
G02*
X66654000Y-73937000I0J150000D01*
G01*
X66654000Y-73637000D01*
G75*
G02*
X66804000Y-73487000I150000J0D01*
G01*
X68454000Y-73487000D01*
G75*
G02*
X68604000Y-73637000I0J-150000D01*
G01*
G37*
G36*
G01*
X73554000Y-73637000D02*
X73554000Y-73937000D01*
G75*
G02*
X73404000Y-74087000I-150000J0D01*
G01*
X71754000Y-74087000D01*
G75*
G02*
X71604000Y-73937000I0J150000D01*
G01*
X71604000Y-73637000D01*
G75*
G02*
X71754000Y-73487000I150000J0D01*
G01*
X73404000Y-73487000D01*
G75*
G02*
X73554000Y-73637000I0J-150000D01*
G01*
G37*
G36*
G01*
X73554000Y-74907000D02*
X73554000Y-75207000D01*
G75*
G02*
X73404000Y-75357000I-150000J0D01*
G01*
X71754000Y-75357000D01*
G75*
G02*
X71604000Y-75207000I0J150000D01*
G01*
X71604000Y-74907000D01*
G75*
G02*
X71754000Y-74757000I150000J0D01*
G01*
X73404000Y-74757000D01*
G75*
G02*
X73554000Y-74907000I0J-150000D01*
G01*
G37*
G36*
G01*
X73554000Y-76177000D02*
X73554000Y-76477000D01*
G75*
G02*
X73404000Y-76627000I-150000J0D01*
G01*
X71754000Y-76627000D01*
G75*
G02*
X71604000Y-76477000I0J150000D01*
G01*
X71604000Y-76177000D01*
G75*
G02*
X71754000Y-76027000I150000J0D01*
G01*
X73404000Y-76027000D01*
G75*
G02*
X73554000Y-76177000I0J-150000D01*
G01*
G37*
G36*
G01*
X73554000Y-77447000D02*
X73554000Y-77747000D01*
G75*
G02*
X73404000Y-77897000I-150000J0D01*
G01*
X71754000Y-77897000D01*
G75*
G02*
X71604000Y-77747000I0J150000D01*
G01*
X71604000Y-77447000D01*
G75*
G02*
X71754000Y-77297000I150000J0D01*
G01*
X73404000Y-77297000D01*
G75*
G02*
X73554000Y-77447000I0J-150000D01*
G01*
G37*
G36*
G01*
X73554000Y-78717000D02*
X73554000Y-79017000D01*
G75*
G02*
X73404000Y-79167000I-150000J0D01*
G01*
X71754000Y-79167000D01*
G75*
G02*
X71604000Y-79017000I0J150000D01*
G01*
X71604000Y-78717000D01*
G75*
G02*
X71754000Y-78567000I150000J0D01*
G01*
X73404000Y-78567000D01*
G75*
G02*
X73554000Y-78717000I0J-150000D01*
G01*
G37*
G36*
G01*
X73554000Y-79987000D02*
X73554000Y-80287000D01*
G75*
G02*
X73404000Y-80437000I-150000J0D01*
G01*
X71754000Y-80437000D01*
G75*
G02*
X71604000Y-80287000I0J150000D01*
G01*
X71604000Y-79987000D01*
G75*
G02*
X71754000Y-79837000I150000J0D01*
G01*
X73404000Y-79837000D01*
G75*
G02*
X73554000Y-79987000I0J-150000D01*
G01*
G37*
G36*
G01*
X73554000Y-81257000D02*
X73554000Y-81557000D01*
G75*
G02*
X73404000Y-81707000I-150000J0D01*
G01*
X71754000Y-81707000D01*
G75*
G02*
X71604000Y-81557000I0J150000D01*
G01*
X71604000Y-81257000D01*
G75*
G02*
X71754000Y-81107000I150000J0D01*
G01*
X73404000Y-81107000D01*
G75*
G02*
X73554000Y-81257000I0J-150000D01*
G01*
G37*
G36*
G01*
X73554000Y-82527000D02*
X73554000Y-82827000D01*
G75*
G02*
X73404000Y-82977000I-150000J0D01*
G01*
X71754000Y-82977000D01*
G75*
G02*
X71604000Y-82827000I0J150000D01*
G01*
X71604000Y-82527000D01*
G75*
G02*
X71754000Y-82377000I150000J0D01*
G01*
X73404000Y-82377000D01*
G75*
G02*
X73554000Y-82527000I0J-150000D01*
G01*
G37*
D17*
X60554000Y-61736000D03*
X60554000Y-57136000D03*
X60554000Y-59436000D03*
D18*
X54254000Y-59436000D03*
G36*
G01*
X64839000Y-78982000D02*
X65209000Y-78982000D01*
G75*
G02*
X65344000Y-79117000I0J-135000D01*
G01*
X65344000Y-79387000D01*
G75*
G02*
X65209000Y-79522000I-135000J0D01*
G01*
X64839000Y-79522000D01*
G75*
G02*
X64704000Y-79387000I0J135000D01*
G01*
X64704000Y-79117000D01*
G75*
G02*
X64839000Y-78982000I135000J0D01*
G01*
G37*
G36*
G01*
X64839000Y-77962000D02*
X65209000Y-77962000D01*
G75*
G02*
X65344000Y-78097000I0J-135000D01*
G01*
X65344000Y-78367000D01*
G75*
G02*
X65209000Y-78502000I-135000J0D01*
G01*
X64839000Y-78502000D01*
G75*
G02*
X64704000Y-78367000I0J135000D01*
G01*
X64704000Y-78097000D01*
G75*
G02*
X64839000Y-77962000I135000J0D01*
G01*
G37*
G36*
G01*
X65209000Y-81038000D02*
X64839000Y-81038000D01*
G75*
G02*
X64704000Y-80903000I0J135000D01*
G01*
X64704000Y-80633000D01*
G75*
G02*
X64839000Y-80498000I135000J0D01*
G01*
X65209000Y-80498000D01*
G75*
G02*
X65344000Y-80633000I0J-135000D01*
G01*
X65344000Y-80903000D01*
G75*
G02*
X65209000Y-81038000I-135000J0D01*
G01*
G37*
G36*
G01*
X65209000Y-82058000D02*
X64839000Y-82058000D01*
G75*
G02*
X64704000Y-81923000I0J135000D01*
G01*
X64704000Y-81653000D01*
G75*
G02*
X64839000Y-81518000I135000J0D01*
G01*
X65209000Y-81518000D01*
G75*
G02*
X65344000Y-81653000I0J-135000D01*
G01*
X65344000Y-81923000D01*
G75*
G02*
X65209000Y-82058000I-135000J0D01*
G01*
G37*
G36*
G01*
X64274000Y-63315000D02*
X64274000Y-63685000D01*
G75*
G02*
X64139000Y-63820000I-135000J0D01*
G01*
X63869000Y-63820000D01*
G75*
G02*
X63734000Y-63685000I0J135000D01*
G01*
X63734000Y-63315000D01*
G75*
G02*
X63869000Y-63180000I135000J0D01*
G01*
X64139000Y-63180000D01*
G75*
G02*
X64274000Y-63315000I0J-135000D01*
G01*
G37*
G36*
G01*
X65294000Y-63315000D02*
X65294000Y-63685000D01*
G75*
G02*
X65159000Y-63820000I-135000J0D01*
G01*
X64889000Y-63820000D01*
G75*
G02*
X64754000Y-63685000I0J135000D01*
G01*
X64754000Y-63315000D01*
G75*
G02*
X64889000Y-63180000I135000J0D01*
G01*
X65159000Y-63180000D01*
G75*
G02*
X65294000Y-63315000I0J-135000D01*
G01*
G37*
G36*
G01*
X60722000Y-73475000D02*
X60722000Y-73845000D01*
G75*
G02*
X60587000Y-73980000I-135000J0D01*
G01*
X60317000Y-73980000D01*
G75*
G02*
X60182000Y-73845000I0J135000D01*
G01*
X60182000Y-73475000D01*
G75*
G02*
X60317000Y-73340000I135000J0D01*
G01*
X60587000Y-73340000D01*
G75*
G02*
X60722000Y-73475000I0J-135000D01*
G01*
G37*
G36*
G01*
X61742000Y-73475000D02*
X61742000Y-73845000D01*
G75*
G02*
X61607000Y-73980000I-135000J0D01*
G01*
X61337000Y-73980000D01*
G75*
G02*
X61202000Y-73845000I0J135000D01*
G01*
X61202000Y-73475000D01*
G75*
G02*
X61337000Y-73340000I135000J0D01*
G01*
X61607000Y-73340000D01*
G75*
G02*
X61742000Y-73475000I0J-135000D01*
G01*
G37*
G36*
G01*
X64758000Y-61780000D02*
X64758000Y-61410000D01*
G75*
G02*
X64893000Y-61275000I135000J0D01*
G01*
X65163000Y-61275000D01*
G75*
G02*
X65298000Y-61410000I0J-135000D01*
G01*
X65298000Y-61780000D01*
G75*
G02*
X65163000Y-61915000I-135000J0D01*
G01*
X64893000Y-61915000D01*
G75*
G02*
X64758000Y-61780000I0J135000D01*
G01*
G37*
G36*
G01*
X63738000Y-61780000D02*
X63738000Y-61410000D01*
G75*
G02*
X63873000Y-61275000I135000J0D01*
G01*
X64143000Y-61275000D01*
G75*
G02*
X64278000Y-61410000I0J-135000D01*
G01*
X64278000Y-61780000D01*
G75*
G02*
X64143000Y-61915000I-135000J0D01*
G01*
X63873000Y-61915000D01*
G75*
G02*
X63738000Y-61780000I0J135000D01*
G01*
G37*
G36*
G01*
X64758000Y-58605000D02*
X64758000Y-58235000D01*
G75*
G02*
X64893000Y-58100000I135000J0D01*
G01*
X65163000Y-58100000D01*
G75*
G02*
X65298000Y-58235000I0J-135000D01*
G01*
X65298000Y-58605000D01*
G75*
G02*
X65163000Y-58740000I-135000J0D01*
G01*
X64893000Y-58740000D01*
G75*
G02*
X64758000Y-58605000I0J135000D01*
G01*
G37*
G36*
G01*
X63738000Y-58605000D02*
X63738000Y-58235000D01*
G75*
G02*
X63873000Y-58100000I135000J0D01*
G01*
X64143000Y-58100000D01*
G75*
G02*
X64278000Y-58235000I0J-135000D01*
G01*
X64278000Y-58605000D01*
G75*
G02*
X64143000Y-58740000I-135000J0D01*
G01*
X63873000Y-58740000D01*
G75*
G02*
X63738000Y-58605000I0J135000D01*
G01*
G37*
G36*
G01*
X64758000Y-55430000D02*
X64758000Y-55060000D01*
G75*
G02*
X64893000Y-54925000I135000J0D01*
G01*
X65163000Y-54925000D01*
G75*
G02*
X65298000Y-55060000I0J-135000D01*
G01*
X65298000Y-55430000D01*
G75*
G02*
X65163000Y-55565000I-135000J0D01*
G01*
X64893000Y-55565000D01*
G75*
G02*
X64758000Y-55430000I0J135000D01*
G01*
G37*
G36*
G01*
X63738000Y-55430000D02*
X63738000Y-55060000D01*
G75*
G02*
X63873000Y-54925000I135000J0D01*
G01*
X64143000Y-54925000D01*
G75*
G02*
X64278000Y-55060000I0J-135000D01*
G01*
X64278000Y-55430000D01*
G75*
G02*
X64143000Y-55565000I-135000J0D01*
G01*
X63873000Y-55565000D01*
G75*
G02*
X63738000Y-55430000I0J135000D01*
G01*
G37*
D19*
X61910000Y-75724000D03*
X62860000Y-77724000D03*
X60960000Y-77724000D03*
D20*
X60992000Y-81280000D03*
X62992000Y-80330000D03*
X62992000Y-82230000D03*
D21*
X62790000Y-51670000D03*
X63590000Y-51670000D03*
X68490000Y-51670000D03*
X69290000Y-51670000D03*
X69290000Y-51670000D03*
X68490000Y-51670000D03*
X63590000Y-51670000D03*
X62790000Y-51670000D03*
D22*
X67790000Y-51670000D03*
X67290000Y-51670000D03*
X66790000Y-51670000D03*
X65790000Y-51670000D03*
X65290000Y-51670000D03*
X64790000Y-51670000D03*
X64290000Y-51670000D03*
X66290000Y-51670000D03*
D23*
X61720000Y-50755000D03*
X70360000Y-50755000D03*
D24*
X68930000Y-50225000D03*
D25*
X70360000Y-46575000D03*
D24*
X63150000Y-50225000D03*
D25*
X61720000Y-46575000D03*
G36*
G01*
X66985500Y-61338750D02*
X66985500Y-61851250D01*
G75*
G02*
X66766750Y-62070000I-218750J0D01*
G01*
X66329250Y-62070000D01*
G75*
G02*
X66110500Y-61851250I0J218750D01*
G01*
X66110500Y-61338750D01*
G75*
G02*
X66329250Y-61120000I218750J0D01*
G01*
X66766750Y-61120000D01*
G75*
G02*
X66985500Y-61338750I0J-218750D01*
G01*
G37*
G36*
G01*
X68560500Y-61338750D02*
X68560500Y-61851250D01*
G75*
G02*
X68341750Y-62070000I-218750J0D01*
G01*
X67904250Y-62070000D01*
G75*
G02*
X67685500Y-61851250I0J218750D01*
G01*
X67685500Y-61338750D01*
G75*
G02*
X67904250Y-61120000I218750J0D01*
G01*
X68341750Y-61120000D01*
G75*
G02*
X68560500Y-61338750I0J-218750D01*
G01*
G37*
G36*
G01*
X66985500Y-58163750D02*
X66985500Y-58676250D01*
G75*
G02*
X66766750Y-58895000I-218750J0D01*
G01*
X66329250Y-58895000D01*
G75*
G02*
X66110500Y-58676250I0J218750D01*
G01*
X66110500Y-58163750D01*
G75*
G02*
X66329250Y-57945000I218750J0D01*
G01*
X66766750Y-57945000D01*
G75*
G02*
X66985500Y-58163750I0J-218750D01*
G01*
G37*
G36*
G01*
X68560500Y-58163750D02*
X68560500Y-58676250D01*
G75*
G02*
X68341750Y-58895000I-218750J0D01*
G01*
X67904250Y-58895000D01*
G75*
G02*
X67685500Y-58676250I0J218750D01*
G01*
X67685500Y-58163750D01*
G75*
G02*
X67904250Y-57945000I218750J0D01*
G01*
X68341750Y-57945000D01*
G75*
G02*
X68560500Y-58163750I0J-218750D01*
G01*
G37*
G36*
G01*
X66985500Y-54988750D02*
X66985500Y-55501250D01*
G75*
G02*
X66766750Y-55720000I-218750J0D01*
G01*
X66329250Y-55720000D01*
G75*
G02*
X66110500Y-55501250I0J218750D01*
G01*
X66110500Y-54988750D01*
G75*
G02*
X66329250Y-54770000I218750J0D01*
G01*
X66766750Y-54770000D01*
G75*
G02*
X66985500Y-54988750I0J-218750D01*
G01*
G37*
G36*
G01*
X68560500Y-54988750D02*
X68560500Y-55501250D01*
G75*
G02*
X68341750Y-55720000I-218750J0D01*
G01*
X67904250Y-55720000D01*
G75*
G02*
X67685500Y-55501250I0J218750D01*
G01*
X67685500Y-54988750D01*
G75*
G02*
X67904250Y-54770000I218750J0D01*
G01*
X68341750Y-54770000D01*
G75*
G02*
X68560500Y-54988750I0J-218750D01*
G01*
G37*
G36*
G01*
X56446000Y-69338000D02*
X56446000Y-68838000D01*
G75*
G02*
X56671000Y-68613000I225000J0D01*
G01*
X57121000Y-68613000D01*
G75*
G02*
X57346000Y-68838000I0J-225000D01*
G01*
X57346000Y-69338000D01*
G75*
G02*
X57121000Y-69563000I-225000J0D01*
G01*
X56671000Y-69563000D01*
G75*
G02*
X56446000Y-69338000I0J225000D01*
G01*
G37*
G36*
G01*
X54896000Y-69338000D02*
X54896000Y-68838000D01*
G75*
G02*
X55121000Y-68613000I225000J0D01*
G01*
X55571000Y-68613000D01*
G75*
G02*
X55796000Y-68838000I0J-225000D01*
G01*
X55796000Y-69338000D01*
G75*
G02*
X55571000Y-69563000I-225000J0D01*
G01*
X55121000Y-69563000D01*
G75*
G02*
X54896000Y-69338000I0J225000D01*
G01*
G37*
G36*
G01*
X57784500Y-66457003D02*
X57784500Y-64606997D01*
G75*
G02*
X58034497Y-64357000I249997J0D01*
G01*
X58859503Y-64357000D01*
G75*
G02*
X59109500Y-64606997I0J-249997D01*
G01*
X59109500Y-66457003D01*
G75*
G02*
X58859503Y-66707000I-249997J0D01*
G01*
X58034497Y-66707000D01*
G75*
G02*
X57784500Y-66457003I0J249997D01*
G01*
G37*
G36*
G01*
X54709500Y-66457003D02*
X54709500Y-64606997D01*
G75*
G02*
X54959497Y-64357000I249997J0D01*
G01*
X55784503Y-64357000D01*
G75*
G02*
X56034500Y-64606997I0J-249997D01*
G01*
X56034500Y-66457003D01*
G75*
G02*
X55784503Y-66707000I-249997J0D01*
G01*
X54959497Y-66707000D01*
G75*
G02*
X54709500Y-66457003I0J249997D01*
G01*
G37*
G36*
G01*
X56812000Y-54106000D02*
X56812000Y-54606000D01*
G75*
G02*
X56587000Y-54831000I-225000J0D01*
G01*
X56137000Y-54831000D01*
G75*
G02*
X55912000Y-54606000I0J225000D01*
G01*
X55912000Y-54106000D01*
G75*
G02*
X56137000Y-53881000I225000J0D01*
G01*
X56587000Y-53881000D01*
G75*
G02*
X56812000Y-54106000I0J-225000D01*
G01*
G37*
G36*
G01*
X58362000Y-54106000D02*
X58362000Y-54606000D01*
G75*
G02*
X58137000Y-54831000I-225000J0D01*
G01*
X57687000Y-54831000D01*
G75*
G02*
X57462000Y-54606000I0J225000D01*
G01*
X57462000Y-54106000D01*
G75*
G02*
X57687000Y-53881000I225000J0D01*
G01*
X58137000Y-53881000D01*
G75*
G02*
X58362000Y-54106000I0J-225000D01*
G01*
G37*
M02*
